<ttFont>
<head>
    <!-- Most of this table will be recalculated by the compiler -->
    <tableVersion value="1.0"/>
    <fontRevision value="1.0"/>
    <checkSumAdjustment value="0xd7da46b3"/>
    <magicNumber value="0x5f0f3cf5"/>
    <flags value="00000000 00000011"/>
    <unitsPerEm value="2048"/>
    <created value="Thu Aug 15 19:15:35 2019"/>
    <modified value="Fri Aug 16 02:19:03 2019"/>
    <xMin value="-523"/>
    <yMin value="-515"/>
    <xMax value="3666"/>
    <yMax value="2047"/>
<macStyle value="00000000 00000010"/>
    <lowestRecPPEM value="3"/>
    <fontDirectionHint value="2"/>
    <indexToLocFormat value="0"/>
    <glyphDataFormat value="0"/>
  </head>
          <CharString index="0">
            176 156 127 97 175 58 vhcurveto
            -4 -14 -5 -41 -13 vvcurveto
            -134 -9 66 -65 126 hhcurveto
            return
          </CharString>
          <CharString index="1">
            rmoveto
            -243 122 -140 return
          </CharString>
          <CharString index="2">
            rmoveto
            -38 callsubr
            26 callsubr
            endchar
          </CharString>
          <CharString index="3">
            -233 -49 92 -136 return
          </CharString>
          <CharString index="4">
            23 callsubr
            endchar
          </CharString>
          <CharString index="5">
            rmoveto
            365 257 259 336 275 99 callsubr
            59 callsubr
            hvcurveto
            9 101 rmoveto
            -72 -41 68 147 1 hvcurveto
            33 callsubr
            endchar
          </CharString>
          <CharString index="6">
            rmoveto
            -68 callsubr
            36 callsubr
            hvcurveto
            -70 callsubr
            -28 103 rmoveto
            -144 115 callsubr
            259 40 callsubr
            hvcurveto
            endchar
          </CharString>
          <CharString index="7">
            210 hhcurveto
            163 142 98 177 73 hvcurveto
            221 callsubr
            return
          </CharString>
          <CharString index="8">
            rmoveto
            -1130 hlineto
            -46 callsubr
            -79 callsubr
            1179 0 -52 callsubr
            endchar
          </CharString>
          <CharString index="9">
            rmoveto
            43 callgsubr
            return
          </CharString>
          <CharString index="10">
            21 callsubr
            endchar
          </CharString>
          <CharString index="11">
            rmoveto
            351 214 218 360 80 hvcurveto
            133 600 37 161 22 31 125 22 rlinecurve
            17 78 -412 0 -17 -78 rlineto
            125 -24 14 -30 -31 -160 -117 -587 rcurveline
            -265 -53 -147 -148 -200 hhcurveto
            -192 18 callgsubr
            endchar
          </CharString>
          <CharString index="12">
            rmoveto
            34 callsubr
            60 callsubr
            -79 callsubr
            102 callsubr
            endchar
          </CharString>
          <CharString index="13">
            1840 rmoveto
            -184 -306 return
          </CharString>
          <CharString index="14">
            -14 callsubr
            endchar
          </CharString>
          <CharString index="15">
            27 callsubr
            endchar
          </CharString>
          <CharString index="16">
            rmoveto
            -514 -57 -16 -75 55 -16 rlineto
            49 -17 10 -20 return
          </CharString>
          <CharString index="17">
            1851 rmoveto
            -251 -135 return
          </CharString>
          <CharString index="18">
            1133 rmoveto
            284 183 return
          </CharString>
          <CharString index="19">
            1536 rmoveto
            89 72 70 85 82 -63 64 -84 -90 return
          </CharString>
          <CharString index="20">
            -305 232 0 256 305 rlineto
            return
          </CharString>
          <CharString index="21">
            -72 -70 -87 -80 63 -64 85 hvcurveto
            return
          </CharString>
          <CharString index="22">
            -186 135 -91 0 134 return
          </CharString>
          <CharString index="23">
            rmoveto
            -461 -55 -15 -77 42 -11 56 -18 12 -17 6 -56 rlinecurve
            96 -953 -109 -87 -207 -121 -134 -70 rlinecurve
            -25 364 vlineto
            63 87 66 82 69 82 rrcurveto
            81 93 91 106 73 90 280 345 156 284 -3 147 -1 112 -80 73 -106 0 -100 -1 -81 -73 2 -103 2 -97 78 -78 97 1 13 0 12 1 12 3 -52 -160 -117 -179 -158 -201 rrcurveto
            endchar
          </CharString>
          <CharString index="24">
            rmoveto
            263 165 184 -165 86 0 return
          </CharString>
          <CharString index="25">
            rmoveto
            -89 -72 -71 -84 -82 63 -64 84 return
          </CharString>
          <CharString index="26">
            rmoveto
            173 -540 -89 -423 -19 -88 -25 -21 -135 -21 rlinecurve
            -17 -77 711 0 16 77 -125 21 -18 20 19 89 rlinecurve
            89 -43 callgsubr
            37 31 103 16 rlinecurve
            17 78 -413 0 -16 -78 122 -17 8 -37 -103 -151 rlinecurve
            -291 -80 callgsubr
            89 callgsubr
            endchar
          </CharString>
          <CharString index="27">
            rmoveto
            98 78 74 91 -1 hvcurveto
            86 -70 67 -92 -98 -79 -73 -93 1 vhcurveto
            -84 70 -68 93 vhcurveto
            endchar
          </CharString>
          <CharString index="28">
            -219 -1028 -19 -40 callsubr
            -16 -78 return
          </CharString>
          <CharString index="29">
            -15 -75 55 -16 rlineto
            49 -17 11 -20 -13 -60 -214 -999 rcurveline
            3 callgsubr
            return
          </CharString>
          <CharString index="30">
            rmoveto
            -90 -72 -71 -84 -82 63 -64 85 50 callsubr
          </CharString>
          <CharString index="31">
            -44 callsubr
            97 -43 callsubr
            return
          </CharString>
          <CharString index="32">
            1147 rmoveto
            110 89 86 105 101 return
          </CharString>
          <CharString index="33">
            197 -183 92 0 -134 395 return
          </CharString>
          <CharString index="34">
            1497 rmoveto
            -514 -53 return
          </CharString>
          <CharString index="35">
            -502 -57 -16 -75 55 -16 49 -17 10 -20 -13 -61 rlinecurve
            return
          </CharString>
          <CharString index="36">
            1543 rmoveto
            -284 -182 -197 182 return
          </CharString>
          <CharString index="37">
            -384 -5 263 -281 425 hhcurveto
            return
          </CharString>
          <CharString index="38">
            -45 42 -67 hhcurveto
            -14 hlineto
            -67 -63 -42 -60 return
          </CharString>
          <CharString index="39">
            497 326 369 460 return
          </CharString>
          <CharString index="40">
            -80 -76 -97 -88 70 -71 94 hvcurveto
            return
          </CharString>
          <CharString index="41">
            64 42 61 12 hvcurveto
            60 13 return
          </CharString>
          <CharString index="42">
            1151 rmoveto
            229 131 158 233 6 hvcurveto
            -87 hlineto
            -101 -19 return
          </CharString>
          <CharString index="43">
            71 68 50 70 14 hvcurveto
            71 16 -47 50 -70 hhcurveto
            -15 hlineto
            return
          </CharString>
          <CharString index="44">
            -78 79 -104 -110 -90 -86 -108 -99 78 -78 105 hvcurveto
            return
          </CharString>
          <CharString index="45">
            138 650 rlineto
            132 30 134 callsubr
            return
          </CharString>
          <CharString index="46">
            -88 67 -106 -85 -74 -34 -53 -41 hvcurveto
            -14 -61 rlineto
            6 return
          </CharString>
          <CharString index="47">
            1155 rmoveto
            105 84 -79 callgsubr
            return
          </CharString>
          <CharString index="48">
            -78 -64 -62 -78 -1 vhcurveto
            -72 55 -57 75 vhcurveto
            return
          </CharString>
          <CharString index="49">
            90 72 69 88 80 -63 64 -85 hvcurveto
            endchar
          </CharString>
          <CharString index="50">
            82 0 459 298 rlineto
            8 vlineto
            return
          </CharString>
          <CharString index="51">
            82 0 458 298 rlineto
            8 vlineto
            return
          </CharString>
          <CharString index="52">
            rmoveto
            180 95 76 117 112 return
          </CharString>
          <CharString index="53">
            1524 rmoveto
            -383 -10 hlineto
            return
          </CharString>
          <CharString index="54">
            rmoveto
            -128 79 -118 178 -49 vhcurveto
            -187 -30 -97 -90 -113 vvcurveto
            -86 57 -68 108 -35 vhcurveto
            -208 -20 -112 -74 -100 vvcurveto
            -138 206 -89 309 340 241 136 213 160 -113 109 -226 37 vhcurveto
            -190 30 rlineto
            -94 16 -30 27 1 33 -1 32 25 24 44 10 rrcurveto
            -6 39 44 -4 48 hhcurveto
            326 191 163 211 71 -23 69 -55 56 hvcurveto
            223 -41 26 126 -362 -12 rlineto
            29 -68 -90 17 -113 hhcurveto
            -323 -1 -193 -149 -218 vvcurveto
            356 -61 rmoveto
            142 55 197 108 69 36 -63 -106 -147 -56 -193 -108 -68 -36 65 105 vhcurveto
            -263 -817 rmoveto
            68 44 51 81 24 vhcurveto
            185 -29 rlineto
            149 -25 44 -41 -66 vvcurveto
            -85 -102 -63 -154 -153 -94 69 97 vhcurveto
            endchar
          </CharString>
          <CharString index="55">
            107 444 rlineto
            -71 hlineto
            -112 -264 -103 -71 -255 -12 rrcurveto
            -179 -8 128 603 154 -2 107 -4 21 223 callsubr
            -62 -158 -40 -44 -112 -4 rrcurveto
            -156 -3 122 573 165 -8 236 -12 45 -59 14 -245 rlinecurve
            71 hlineto
            return
          </CharString>
          <CharString index="56">
            rmoveto
            417 208 415 291 176 100 -140 -257 8 vhcurveto
            71 -3 67 384 rlineto
            64 -96 -186 59 -213 hhcurveto
            -495 -363 -323 -495 -5 hvcurveto
            return
          </CharString>
          <CharString index="57">
            -13 hvcurveto
            -61 -13 45 -42 67 hhcurveto
            369 hmoveto
            67 63 42 61 13 hvcurveto
            60 13 -45 42 -67 hhcurveto
            -15 hlineto
            -66 -64 -42 -60 -13 hvcurveto
            -61 -12 45 -42 67 hhcurveto
            return
          </CharString>
          <CharString index="58">
            64 63 76 hvcurveto
            73 1 -56 57 -73 hhcurveto
            -79 -64 -62 -78 -72 55 -57 return
          </CharString>
          <CharString index="59">
            1524 rmoveto
            -339 -7 hlineto
            297 -388 rlineto
            return
          </CharString>
          <CharString index="60">
            rmoveto
            613 hlineto
            39 180 rlineto
            -614 hlineto
            endchar
          </CharString>
          <CharString index="61">
            -17 -78 114 -20 17 -19 -19 -91 rlinecurve
            return
          </CharString>
          <CharString index="62">
            170 361 -106 callsubr
            return
          </CharString>
          <CharString index="63">
            1526 rmoveto
            -212 -395 return
          </CharString>
          <CharString index="64">
            0 518 386 rlineto
            9 vlineto
            return
          </CharString>
          <CharString index="65">
            rmoveto
            204 154 106 177 return
          </CharString>
          <CharString index="66">
            364 -385 rlineto
            92 hlineto
            return
          </CharString>
          <CharString index="67">
            -90 -24 -20 -124 -20 rlinecurve
            return
          </CharString>
          <CharString index="68">
            rmoveto
            -460 -4 345 -218 359 hhcurveto
            169 218 42 87 126 hvcurveto
            88 410 18 85 22 23 111 18 rlinecurve
            17 77 -614 0 -17 -77 rlineto
            117 -18 13 -21 -17 -86 -83 -402 rcurveline
            -21 -27 -50 -11 -51 hhcurveto
            -179 -124 157 294 417 209 415 292 179 101 -140 -257 8 hvcurveto
            71 -3 66 384 rlineto
            65 -96 -187 58 -213 hhcurveto
            -498 -364 -323 -495 -5 hvcurveto
            endchar
          </CharString>
          <CharString index="69">
            -141 1160 -308 0 -628 -1141 -100 -182 -35 -30 -107 -17 rlinecurve
            -16 -78 428 0 16 78 -131 22 -16 36 88 169 rlinecurve
            87 168 425 0 17 -182 return
          </CharString>
          <CharString index="70">
            1381 1621 1444 rmoveto
            -1250 hlineto
            38 callsubr
            91 callsubr
            717 0 16 77 -128 81 callsubr
            return
          </CharString>
          <CharString index="71">
            116 487 rlineto
            -71 hlineto
            -124 -287 -116 -93 -219 -12 rrcurveto
            -139 -6 return
          </CharString>
          <CharString index="72">
            1594 rmoveto
            594 hlineto
            37 173 rlineto
            -594 hlineto
            return
          </CharString>
          <CharString index="73">
            rmoveto
            -463 -88 callgsubr
            181 callsubr
            endchar
          </CharString>
          <CharString index="74">
            355 82 319 -82 14 66 -272 179 return
          </CharString>
          <CharString index="75">
            rmoveto
            659 hlineto
            34 159 rlineto
            -659 hlineto
            return
          </CharString>
          <CharString index="76">
            -486 -103 272 -188 331 hhcurveto
            return
          </CharString>
          <CharString index="77">
            -71 hhcurveto
            -14 hlineto
            -71 -67 -50 -71 -15 hvcurveto
            return
          </CharString>
          <CharString index="78">
            81 0 459 298 rlineto
            8 vlineto
            return
          </CharString>
          <CharString index="79">
            -11 -33 hhcurveto
            -49 -20 33 76 16 hvcurveto
            return
          </CharString>
          <CharString index="80">
            -19 -19 -91 rlinecurve
            -219 -1028 -19 return
          </CharString>
          <CharString index="81">
            rmoveto
            349 96 309 -96 16 77 return
          </CharString>
          <CharString index="82">
            -240 0 -297 -395 rlineto
            return
          </CharString>
          <CharString index="83">
            61 82 63 hvcurveto
            16 78 rlineto
            -20 return
          </CharString>
          <CharString index="84">
            -44 callsubr
            97 0 return
          </CharString>
          <CharString index="85">
            -514 -53 -16 -75 55 -16 return
          </CharString>
          <CharString index="86">
            -118 -91 callsubr
            return
          </CharString>
          <CharString index="87">
            519 386 rlineto
            9 vlineto
            return
          </CharString>
          <CharString index="88">
            rmoveto
            110 -1161 288 0 515 1040 83 -1040 299 0 570 1133 99 195 43 27 103 16 rlinecurve
            17 78 -423 0 -17 -78 121 -13 11 -41 -80 -176 rlinecurve
            -367 -794 -53 809 -11 167 18 28 122 20 rlinecurve
            17 78 -669 0 -16 -78 117 -15 10 -67 -65 -141 rlinecurve
            -368 -801 -52 811 -9 155 21 39 128 19 rlinecurve
            16 78 -696 0 -16 -78 89 -15 30 -28 15 -167 rlinecurve
            endchar
          </CharString>
          <CharString index="89">
            rmoveto
            102 476 88 0 212 -684 465 0 16 74 -54 26 -27 34 -71 220 rlinecurve
            -200 635 176 153 184 157 70 43 123 24 rlinecurve
            16 78 -474 0 -16 -78 119 -19 7 -46 -131 -130 rlinecurve
            -396 -390 -87 -1 97 456 19 90 23 21 115 19 rlinecurve
            16 78 -676 0 -16 -78 114 -20 17 -27 callsubr
            -40 callsubr
            -16 -78 675 0 17 78 -106 19 -15 20 19 91 rlinecurve
            endchar
          </CharString>
          <CharString index="90">
            -24 -20 -118 -18 rlinecurve
            -16 -78 680 0 16 78 -114 19 -17 19 19 110 callgsubr
            16 78 -681 0 -16 -78 220 callsubr
            -219 -1026 -19 -90 -24 -21 -124 -20 rlinecurve
            -17 -78 return
          </CharString>
          <CharString index="91">
            rmoveto
            205 959 19 90 24 20 124 21 rlinecurve
            17 77 -686 0 -17 -77 114 -21 17 -19 -19 -91 rlinecurve
            -201 -947 -70 -327 -92 -153 -235 -142 rlinecurve
            21 -63 return
          </CharString>
          <CharString index="92">
            243 1147 19 90 25 19 130 22 rlinecurve
            16 77 -692 0 -16 -78 rlineto
            111 -19 18 -28 -23 -107 -213 -1004 rcurveline
            -19 -90 -24 -20 -124 -20 -17 -78 rcurveline
            return
          </CharString>
          <CharString index="93">
            131 126 61 82 62 hvcurveto
            17 78 rlineto
            -20 -28 -34 -11 -33 hhcurveto
            -49 -20 33 76 15 hvcurveto
            160 748 -25 callgsubr
            return
          </CharString>
          <CharString index="94">
            rmoveto
            -513 -57 -15 -75 54 -16 49 -17 10 -20 -13 96 callsubr
            22 -72 355 83 206 140 72 340 rlinecurve
            endchar
          </CharString>
          <CharString index="95">
            1561 -82 callgsubr
            -53 -138 hhcurveto
            -114 -79 47 callgsubr
            1 108 -112 167 hhcurveto
            return
          </CharString>
          <CharString index="96">
            rmoveto
            180 155 82 101 65 hvcurveto
            16 79 rlineto
            133 callsubr
            -297 204 -153 232 vhcurveto
            endchar
          </CharString>
          <CharString index="97">
            1534 rmoveto
            250 136 184 -136 84 0 -133 305 -216 0 -257 -305 rlineto
            return
          </CharString>
          <CharString index="98">
            rmoveto
            -501 9 callsubr
            122 callsubr
            139 callsubr
            endchar
          </CharString>
          <CharString index="99">
            1237 1167 hmoveto
            -36 callsubr
            -15 callsubr
            return
          </CharString>
          <CharString index="100">
            -462 -4 341 -217 367 hhcurveto
            177 143 callsubr
          </CharString>
          <CharString index="101">
            1165 rmoveto
            110 93 76 276 35 hvcurveto
            -88 hlineto
            -105 -21 return
          </CharString>
          <CharString index="102">
            rmoveto
            -114 -396 126 0 332 386 rlineto
            10 vlineto
            return
          </CharString>
          <CharString index="103">
            15 18 -32 hvcurveto
            -15 -65 rlineto
            -47 45 76 -29 86 hhcurveto
            endchar
          </CharString>
          <CharString index="104">
            1166 rmoveto
            98 80 77 95 90 -70 70 -93 -99 return
          </CharString>
          <CharString index="105">
            -128 356 -222 0 -274 -356 rlineto
            endchar
          </CharString>
          <CharString index="106">
            18 29 4 26 hhcurveto
            51 43 -21 -40 -41 -40 -24 -67 return
          </CharString>
          <CharString index="107">
            1304 730 1030 -98 callsubr
            return
          </CharString>
          <CharString index="108">
            209 122 98 123 124 -125 77 return
          </CharString>
          <CharString index="109">
            -28 13 25 -35 hvcurveto
            -33 24 rlineto
            38 -53 -55 24 return
          </CharString>
          <CharString index="110">
            rmoveto
            614 hlineto
            38 180 rlineto
            -613 hlineto
            endchar
          </CharString>
          <CharString index="111">
            rmoveto
            36 169 -716 -194 -13 -63 rlineto
            return
          </CharString>
          <CharString index="112">
            1704 819 105 callsubr
            return
          </CharString>
          <CharString index="113">
            1658 638 104 callgsubr
            return
          </CharString>
          <CharString index="114">
            1539 rmoveto
            -119 -87 -46 -81 return
          </CharString>
          <CharString index="115">
            1327 rmoveto
            -124 125 -77 return
          </CharString>
          <CharString index="116">
            -57 -16 -75 54 -16 49 -17 11 -20 return
          </CharString>
          <CharString index="117">
            1906 rmoveto
            -210 -115 return
          </CharString>
          <CharString index="118">
            -239 0 -297 -395 rlineto
            return
          </CharString>
          <CharString index="119">
            460 hmoveto
            61 callsubr
            return
          </CharString>
          <CharString index="120">
            -57 callgsubr
            376 0 return
          </CharString>
          <CharString index="121">
            1216 rmoveto
            660 hlineto
            return
          </CharString>
          <CharString index="122">
            -707 -228 -16 -74 rlineto
            return
          </CharString>
          <CharString index="123">
            43 200 rlineto
            -660 hlineto
            return
          </CharString>
          <CharString index="124">
            rmoveto
            -150 -176 -52 -37 -118 -20 rrcurveto
            -16 -78 441 0 17 78 -123 22 0 41 119 154 rlinecurve
            224 287 117 -321 46 -120 -16 -38 -119 -23 rlinecurve
            -16 -78 717 0 16 78 -85 29 -30 30 -50 137 rlinecurve
            -184 506 300 353 146 174 54 37 117 20 rlinecurve
            17 78 -440 0 -17 -78 123 -22 1 -41 -119 -154 rlinecurve
            -215 -278 -114 314 -48 126 20 34 117 21 rlinecurve
            16 78 -721 0 -16 -78 rlineto
            90 -27 30 -32 49 -137 182 -498 rcurveline
            endchar
          </CharString>
          <CharString index="125">
            437 hlineto
            16 74 rlineto
            -57 21 -33 45 -63 179 -126 368 rcurveline
            200 63 146 122 200 vvcurveto
            239 -210 133 -414 vhcurveto
            -614 hlineto
            -17 -78 117 -17 16 -21 -18 -88 rlinecurve
            -221 -1036 -18 -87 -24 -22 -125 -17 rlinecurve
            -17 -78 679 0 16 78 rlineto
            -105 19 -16 20 20 91 90 426 rcurveline
            127 hlineto
            2 2 0 2 hhcurveto
            317 445 rmoveto
            -187 -121 -155 -240 -11 vhcurveto
            -69 -3 132 630 56 -3 rlineto
            154 -6 88 -100 -165 vvcurveto
            return
          </CharString>
          <CharString index="126">
            rmoveto
            -581 hlineto
            -16 -78 118 -20 17 -42 -30 -124 rlinecurve
            -209 -874 -43 -171 -27 -39 -130 -18 rlinecurve
            -16 -78 421 0 16 78 -124 18 -12 34 38 177 rlinecurve
            181 855 138 -1162 213 0 244 490 364 699 -178 -986 -16 -86 -25 -21 -126 -18 rlinecurve
            -16 -78 681 0 17 78 -116 17 -14 21 16 87 rlinecurve
            190 1037 16 86 23 22 126 18 rlinecurve
            16 78 -595 0 -457 -946 rlineto
            endchar
          </CharString>
          <CharString index="127">
            16 78 rlineto
            -131 18 -18 23 18 87 75 345 rcurveline
            166 hlineto
            428 290 171 301 247 -173 174 -454 hvcurveto
            -618 hlineto
            -17 -78 rlineto
            118 -17 16 -22 -19 -88 -220 -1034 rcurveline
            -19 -87 -24 -23 -126 -17 -16 -78 rcurveline
            837 1354 rmoveto
            52 -3 rlineto
            151 -8 88 -103 -172 vvcurveto
            1 -255 -152 -159 -216 -11 -75 -3 rcurveline
            endchar
          </CharString>
          <CharString index="128">
            rmoveto
            180 153 80 103 67 hvcurveto
            17 79 rlineto
            -89 callgsubr
            142 callsubr
            -298 205 -151 227 vhcurveto
            160 964 rmoveto
            52 22 -39 -59 -127 -87 -133 -151 -50 hvcurveto
            -42 -14 rlineto
            226 7 81 196 118 hhcurveto
            return
          </CharString>
          <CharString index="129">
            106 444 rlineto
            -72 hlineto
            -111 -267 -119 -68 -272 -12 rrcurveto
            -196 -8 944 1281 16 74 -1094 0 -100 -413 rlineto
            71 hlineto
            114 240 80 63 254 12 rrcurveto
            197 9 -945 -1281 -16 -74 rlineto
            return
          </CharString>
          <CharString index="130">
            136 123 -24 callsubr
            -25 -36 -11 -32 hhcurveto
            -50 -20 33 76 16 hvcurveto
            157 735 -232 0 -138 -118 rlineto
            73 -26 -87 66 -141 66 callgsubr
            -17 callgsubr
            return
          </CharString>
          <CharString index="131">
            rmoveto
            -513 -59 -15 -74 54 -16 rlineto
            49 -17 10 -20 -13 -61 -92 -437 rcurveline
            -232 -48 91 -136 210 hhcurveto
            164 141 98 177 73 hvcurveto
            -3 -13 177 callsubr
            endchar
          </CharString>
          <CharString index="132">
            rmoveto
            74 -77 133 157 49 -34 rlineto
            -89 129 158 callsubr
            -71 1 -62 25 -107 64 rrcurveto
            -74 45 546 550 16 77 -797 0 -111 101 callgsubr
            return
          </CharString>
          <CharString index="133">
            15 -151 -28 -41 -138 -21 rlinecurve
            -16 -78 717 0 16 78 -93 16 -31 28 -21 166 rlinecurve
            -810 287 rmoveto
            305 589 57 -589 rlineto
            return
          </CharString>
          <CharString index="134">
            -12 -61 -113 -526 rcurveline
            -187 -40 71 -87 156 hhcurveto
            137 125 61 82 64 hvcurveto
            16 78 rlineto
            -20 -26 -35 -28 callsubr
            return
          </CharString>
          <CharString index="135">
            -98 -60 -151 hhcurveto
            -124 -86 62 82 6 1 6 1 5 hvcurveto
            -87 hlineto
            -12 -30 -6 -38 -39 vvcurveto
            -157 118 -127 184 vhcurveto
            return
          </CharString>
          <CharString index="136">
            1840 rmoveto
            -183 -306 -29 callsubr
            return
          </CharString>
          <CharString index="137">
            90 150 25 hvcurveto
            -91 hlineto
            -53 -18 -108 -36 -139 hhcurveto
            -138 -94 36 53 4 hvcurveto
            -91 hlineto
            -150 return
          </CharString>
          <CharString index="138">
            rmoveto
            98 78 74 91 -1 hvcurveto
            86 -70 67 -92 -98 -79 -73 -93 1 vhcurveto
            -84 1 69 -68 93 hhcurveto
            endchar
          </CharString>
          <CharString index="139">
            113 94 86 114 104 -83 83 -115 -113 -94 -85 -115 -104 83 -83 115 hvcurveto
            return
          </CharString>
          <CharString index="140">
            245 86 399 153 73 40 -69 -147 vhcurveto
            -244 -1 -85 -399 -154 hhcurveto
            return
          </CharString>
          <CharString index="141">
            218 1028 19 90 24 20 125 20 rlinecurve
            16 78 -686 0 -17 -78 return
          </CharString>
          <CharString index="142">
            1534 rmoveto
            250 136 184 -136 84 -67 callgsubr
            return
          </CharString>
          <CharString index="143">
            384 -259 281 -424 -497 -320 -369 -460 -6 return
          </CharString>
          <CharString index="144">
            102 481 471 0 -102 -481 -20 -92 -17 callsubr
            return
          </CharString>
          <CharString index="145">
            -101 -413 rlineto
            72 hlineto
            99 228 87 78 212 16 rrcurveto
            35 return
          </CharString>
          <CharString index="146">
            1837 rmoveto
            -336 -8 hlineto
            334 -297 rlineto
            76 hlineto
            return
          </CharString>
          <CharString index="147">
            144 87 -122 -273 -407 -172 -486 -254 return
          </CharString>
          <CharString index="148">
            rmoveto
            103 1 86 68 30 249 rrcurveto
            -82 hlineto
            -95 -18 -29 -32 return
          </CharString>
          <CharString index="149">
            -12 -22 33 hvcurveto
            30 -22 rlineto
            -34 50 52 -23 61 hhcurveto
            endchar
          </CharString>
          <CharString index="150">
            -13 -61 rlineto
            2 4 27 2 7 hhcurveto
            63 35 -26 -41 -42 return
          </CharString>
          <CharString index="151">
            1272 -45 callsubr
            154 callsubr
            return
          </CharString>
          <CharString index="152">
            -53 hvcurveto
            -14 -66 rlineto
            22 29 50 15 51 hhcurveto
            76 return
          </CharString>
          <CharString index="153">
            rmoveto
            59 callsubr
            185 callsubr
            endchar
          </CharString>
          <CharString index="154">
            1155 rmoveto
            105 85 83 100 96 -75 75 return
          </CharString>
          <CharString index="155">
            -143 -202 -4 hvcurveto
            76 hlineto
            89 17 return
          </CharString>
          <CharString index="156">
            794 482 -18 77 callsubr
            return
          </CharString>
          <CharString index="157">
            89 73 69 88 80 -63 64 -85 hvcurveto
            endchar
          </CharString>
          <CharString index="158">
            -50 -71 -15 hvcurveto
            -70 -15 46 -50 71 hhcurveto
            return
          </CharString>
          <CharString index="159">
            -89 42 62 6 hvcurveto
            -89 hlineto
            -177 -44 return
          </CharString>
          <CharString index="160">
            rmoveto
            97 78 74 91 hvcurveto
            86 -1 -70 67 return
          </CharString>
          <CharString index="161">
            173 108 82 118 110 return
          </CharString>
          <CharString index="162">
            97 hlineto
            379 -73 callgsubr
            return
          </CharString>
          <CharString index="163">
            -92 0 134 -45 callgsubr
            return
          </CharString>
          <CharString index="164">
            -93 0 135 -45 callgsubr
            return
          </CharString>
          <CharString index="165">
            rmoveto
            242 -122 140 -175 return
          </CharString>
          <CharString index="166">
            -275 186 -191 291 return
          </CharString>
          <CharString index="167">
            114 -16 17 -23 -19 -91 rlinecurve
            return
          </CharString>
          <CharString index="168">
            99 79 77 95 90 -70 70 -93 return
          </CharString>
          <CharString index="169">
            61 82 63 hvcurveto
            17 78 rlineto
            -20 return
          </CharString>
          <CharString index="170">
            -85 -82 -102 -94 74 -76 100 hvcurveto
            return
          </CharString>
          <CharString index="171">
            rmoveto
            70 68 50 70 15 hvcurveto
            71 return
          </CharString>
          <CharString index="172">
            rmoveto
            -92 66 -73 99 105 68 64 190 96 vhcurveto
            42 78 24 -70 rlineto
            -173 59 79 -88 146 hhcurveto
            129 104 62 86 46 hvcurveto
            16 78 rlineto
            -18 -24 -29 -11 -33 hhcurveto
            -57 -42 39 117 -40 hvcurveto
            -97 280 71 114 21 34 19 29 17 24 rlinecurve
            -61 22 59 -44 72 hhcurveto
            94 72 74 92 92 -65 72 -99 -105 -69 -65 -188 -95 hvcurveto
            -45 -85 -114 329 -428 -54 -16 -77 46 -10 59 -16 16 -18 21 -64 rlinecurve
            135 -391 -68 -109 -21 -34 -19 -28 -17 -24 rlinecurve
            61 -22 -59 44 -72 hhcurveto
            -95 -72 -74 -92 hvcurveto
            endchar
          </CharString>
          <CharString index="173">
            rmoveto
            358 257 193 286 165 -79 123 -180 117 hvcurveto
            -95 66 rlineto
            -124 81 -49 67 93 vvcurveto
            118 95 82 135 173 104 -130 -255 11 vhcurveto
            71 hlineto
            64 376 rlineto
            59 -80 -164 56 -203 hhcurveto
            -388 -211 -207 -257 -171 77 -113 183 -118 hvcurveto
            94 -66 rlineto
            128 -86 45 -68 -100 vvcurveto
            -128 -105 -77 -139 -175 -146 125 265 vhcurveto
            -72 hlineto
            -63 -396 rlineto
            -53 93 189 -47 196 hhcurveto
            return
          </CharString>
          <CharString index="174">
            rmoveto
            311 292 268 388 66 hvcurveto
            267 43 -92 137 -160 hhcurveto
            -133 -90 -131 -160 14 hvcurveto
            193 -27 58 -138 -33 -165 rrcurveto
            -159 -31 -107 -99 -122 hhcurveto
            -126 -49 81 144 30 hvcurveto
            14 68 46 190 14 68 rrcurveto
            229 49 -76 93 -198 hhcurveto
            -106 -99 -35 -36 -58 hvcurveto
            -16 -75 rlineto
            6 12 17 2 16 hhcurveto
            66 22 -41 -113 -24 hvcurveto
            -17 -78 -50 -212 -16 -78 rrcurveto
            -244 -52 116 -150 276 hhcurveto
            endchar
          </CharString>
          <CharString index="175">
            rmoveto
            -54 66 145 -48 152 hhcurveto
            342 158 165 187 1 hvcurveto
            136 -65 89 -125 71 vhcurveto
            -92 53 rlineto
            -85 50 -34 42 61 vvcurveto
            68 1 47 44 88 hhcurveto
            130 77 -97 -151 9 hvcurveto
            71 hlineto
            48 265 rlineto
            40 -67 -120 37 -148 hhcurveto
            -301 -186 -135 -204 -136 73 -88 128 -72 hvcurveto
            90 -53 rlineto
            83 -49 27 -43 -62 vvcurveto
            -74 -1 -58 -49 -91 hhcurveto
            -133 -104 99 186 -5 hvcurveto
            -71 hlineto
            return
          </CharString>
          <CharString index="176">
            rmoveto
            -166 -783 375 0 140 651 rlineto
            127 28 73 86 75 hhcurveto
            67 27 -59 -96 -20 hvcurveto
            -149 -709 375 0 137 644 rlineto
            131 28 73 89 76 hhcurveto
            66 27 -59 -99 -21 hvcurveto
            -94 -449 rlineto
            -187 -39 70 -87 156 hhcurveto
            137 125 -24 callsubr
            -25 -36 -28 callsubr
            210 callsubr
            endchar
          </CharString>
          <CharString index="177">
            1658 932 -26 rmoveto
            435 351 333 472 387 -304 305 -382 -440 -345 -333 -472 -387 297 -305 388 hvcurveto
            1 64 rmoveto
            -347 -267 278 351 434 318 306 394 341 273 -278 -351 -434 -323 -306 -389 hvcurveto
            return
          </CharString>
          <CharString index="178">
            1517 802 -26 rmoveto
            351 214 218 360 80 hvcurveto
            133 600 37 161 22 31 125 22 rlinecurve
            17 78 -412 0 -17 -78 rlineto
            125 -24 14 -30 -31 -160 -117 -587 rcurveline
            -265 -53 -147 -148 -200 hhcurveto
            -192 18 callgsubr
            return
          </CharString>
          <CharString index="179">
            rmoveto
            164 -130 145 -279 24 vhcurveto
            256 15 224 98 1 218 rrcurveto
            205 -198 126 -413 vhcurveto
            -615 -106 callgsubr
            -92 -219 -1027 rcurveline
            -19 -90 -90 callgsubr
            191 callsubr
            endchar
          </CharString>
          <CharString index="180">
            rmoveto
            -134 -696 rlineto
            -236 -46 96 -107 203 hhcurveto
            155 141 73 85 80 hvcurveto
            16 77 rlineto
            -25 -39 -50 -10 -50 hhcurveto
            -104 -55 51 131 32 hvcurveto
            14 60 126 475 35 122 rrcurveto
            endchar
          </CharString>
          <CharString index="181">
            770 1445 rmoveto
            -95 hlineto
            -299 -114 -11 -53 123 16 6 1 4 -3 -1 -6 rlinecurve
            -104 -485 -11 -56 -28 -15 -96 -11 rlinecurve
            -11 -52 476 0 10 52 -90 11 -22 15 12 56 rlinecurve
            return
          </CharString>
          <CharString index="182">
            -30 7 14 -38 hvcurveto
            -36 13 rlineto
            18 -47 -48 13 -53 hhcurveto
            -124 -93 -85 -154 -31 hvcurveto
            90 hlineto
            56 12 31 23 51 hhcurveto
            29 31 -8 -13 37 hvcurveto
            36 -13 rlineto
            -17 47 47 -14 54 hhcurveto
            return
          </CharString>
          <CharString index="183">
            rmoveto
            279 7 211 160 227 vvcurveto
            136 -86 82 -115 -130 -78 -107 -130 -6 vhcurveto
            92 -11 64 -42 -79 vvcurveto
            -94 -97 -65 -118 -9 vhcurveto
            endchar
          </CharString>
          <CharString index="184">
            rmoveto
            142 148 67 94 46 callgsubr
            112 529 153 callsubr
            -112 -528 rlineto
            -236 -50 96 -128 213 hhcurveto
            return
          </CharString>
          <CharString index="185">
            70 hhcurveto
            388 hmoveto
            71 67 50 70 15 hvcurveto
            71 16 -47 50 -87 callgsubr
            -16 hvcurveto
            -70 -14 46 -50 71 hhcurveto
            endchar
          </CharString>
          <CharString index="186">
            hhcurveto
            -110 -93 -76 -273 -35 hvcurveto
            88 hlineto
            104 20 32 34 47 hhcurveto
            33 28 -13 -25 35 hvcurveto
            33 -24 53 -38 return
          </CharString>
          <CharString index="187">
            32 hvcurveto
            -89 hlineto
            -63 -20 -107 -41 -136 hhcurveto
            -135 52 callsubr
            109 -106 204 hhcurveto
            endchar
          </CharString>
          <CharString index="188">
            22 -18 18 19 90 rlinecurve
            244 1148 34 -2 203 -15 58 -73 2 -234 rlinecurve
            71 hlineto
            return
          </CharString>
          <CharString index="189">
            601 652 -2 callgsubr
            -223 2 hvcurveto
            -185 106 -165 204 vhcurveto
            return
          </CharString>
          <CharString index="190">
            354 82 320 -82 14 66 -272 179 -55 0 -347 -179 rlineto
            return
          </CharString>
          <CharString index="191">
            78 64 63 76 73 -55 57 -74 -78 -64 -62 -78 hvcurveto
            -72 -1 55 -57 75 hhcurveto
            return
          </CharString>
          <CharString index="192">
            1311 734 1029 rmoveto
            -72 callsubr
            127 callsubr
            return
          </CharString>
          <CharString index="193">
            67 -106 -85 -74 -34 -53 -40 hvcurveto
            -15 -61 rlineto
            6 -1 callsubr
            -45 return
          </CharString>
          <CharString index="194">
            rmoveto
            209 155 30 callsubr
            -39 117 -90 208 hhcurveto
            endchar
          </CharString>
          <CharString index="195">
            98 80 77 95 90 -70 70 -93 -99 -81 -76 -97 -88 71 -71 94 hvcurveto
            return
          </CharString>
          <CharString index="196">
            -43 hhcurveto
            -32 -26 12 22 -32 hvcurveto
            -31 22 rlineto
            34 -50 -51 22 -62 hhcurveto
            return
          </CharString>
          <CharString index="197">
            hvcurveto
            61 13 -45 41 -67 hhcurveto
            -14 hlineto
            -67 -63 -41 -61 -14 hvcurveto
            -60 -12 return
          </CharString>
          <CharString index="198">
            2 -244 -1148 -19 -88 -26 -21 -137 -21 rlinecurve
            -17 -77 return
          </CharString>
          <CharString index="199">
            -51 -43 16 19 -28 hvcurveto
            -16 -71 rlineto
            -55 46 79 -37 93 hhcurveto
            endchar
          </CharString>
          <CharString index="200">
            196 -183 93 0 -135 395 11 callsubr
            return
          </CharString>
          <CharString index="201">
            -18 -42 -55 -66 vvcurveto
            -83 66 -61 82 87 70 64 89 120 return
          </CharString>
          <CharString index="202">
            -43 16 19 -27 hvcurveto
            -17 -71 rlineto
            -55 46 79 -37 94 hhcurveto
            endchar
          </CharString>
          <CharString index="203">
            -61 rlinecurve
            -153 -722 -56 -265 -41 -101 -178 -99 rlinecurve
            return
          </CharString>
          <CharString index="204">
            1594 rmoveto
            595 hlineto
            37 173 rlineto
            -595 hlineto
            return
          </CharString>
          <CharString index="205">
            1524 rmoveto
            637 -104 15 74 -610 228 rlineto
            return
          </CharString>
          <CharString index="206">
            -186 190 -290 -367 -256 -260 -334 return
          </CharString>
          <CharString index="207">
            1504 872 1444 147 callsubr
            return
          </CharString>
          <CharString index="208">
            -127 356 -223 0 -274 -356 rlineto
            endchar
          </CharString>
          <CharString index="209">
            686 0 16 78 -114 20 -17 19 20 91 rlinecurve
            return
          </CharString>
          <CharString index="210">
            681 0 16 78 -108 19 -17 20 19 91 rlinecurve
            return
          </CharString>
          <CharString index="211">
            455 147 249 175 75 351 rlinecurve
            endchar
          </CharString>
          <CharString index="212">
            137 callsubr
            -450 77 148 callsubr
            return
          </CharString>
          <CharString index="213">
            1526 rmoveto
            -229 -131 -158 -233 return
          </CharString>
          <CharString index="214">
            1216 rmoveto
            659 hlineto
            16 callsubr
            return
          </CharString>
          <CharString index="215">
            -258 211 -53 0 -346 -211 rlineto
            endchar
          </CharString>
          <CharString index="216">
            41 -31 -53 -56 -50 -56 -107 -85 callgsubr
            return
          </CharString>
          <CharString index="217">
            rmoveto
            613 hlineto
            38 180 rlineto
            -613 hlineto
            endchar
          </CharString>
          <CharString index="218">
            1226 1020 -18 126 callsubr
            return
          </CharString>
          <CharString index="219">
            27 2 8 hhcurveto
            62 35 -26 -41 -42 -38 -24 return
          </CharString>
          <CharString index="220">
            10 20 -29 hvcurveto
            -26 18 rlineto
            31 -46 -47 19 return
          </CharString>
          <CharString index="221">
            -79 -73 -93 hvcurveto
            -84 1 70 -68 93 hhcurveto
            endchar
          </CharString>
          <CharString index="222">
            -87 122 273 396 167 497 return
          </CharString>
          <CharString index="223">
            rmoveto
            1055 hlineto
            35 166 rlineto
            -1054 hlineto
            return
          </CharString>
          <CharString index="224">
            rmoveto
            675 hlineto
            30 135 rlineto
            -676 hlineto
            return
          </CharString>
          <CharString index="225">
            rmoveto
            675 hlineto
            29 135 rlineto
            -675 hlineto
            return
          </CharString>
          <CharString index="226">
            rmoveto
            656 -88 13 63 -634 194 rlineto
            return
          </CharString>
          <CharString index="227">
            -54 callsubr
            363 -385 rlineto
            return
          </CharString>
          <CharString index="228">
            78 63 63 76 1 hvcurveto
            73 -55 57 -74 return
          </CharString>
          <CharString index="229">
            -13 -61 rlinecurve
            -167 -783 376 0 return
          </CharString>
          <CharString index="230">
            rmoveto
            -84 72 -66 89 92 76 69 84 55 -29 48 -43 27 vhcurveto
            9 31 34 5 35 hhcurveto
            162 73 -104 -202 -35 hvcurveto
            -10 -53 -176 -19 rlineto
            -338 -37 -152 -118 -177 vvcurveto
            -146 119 -95 169 181 138 97 226 47 vhcurveto
            -213 32 179 -110 186 hhcurveto
            181 145 81 98 68 hvcurveto
            16 78 rlineto
            -44 -48 -80 -33 -81 hhcurveto
            -153 -92 111 224 -3 hvcurveto
            38 3 401 41 127 105 2 153 rlinecurve
            154 1 -148 89 -204 hhcurveto
            -132 -116 -41 -81 -97 hvcurveto
            81 -75 -108 41 -150 hhcurveto
            -255 -169 -106 -150 hvcurveto
            1090 159 rmoveto
            60 22 -66 -68 -3 hvcurveto
            -4 -108 -68 -106 -187 -22 -22 -3 rcurveline
            208 14 81 165 107 hhcurveto
            -854 -676 rmoveto
            99 69 95 168 27 vhcurveto
            60 8 -13 -76 rlineto
            -159 -28 -65 -106 -92 hhcurveto
            -59 -40 38 74 hvcurveto
            endchar
          </CharString>
          <CharString index="231">
            rmoveto
            -1102 hlineto
            -769 -1133 -127 -187 -51 -31 -100 -15 rlinecurve
            -17 -78 434 0 16 78 -126 20 -10 43 110 168 rlinecurve
            180 278 419 0 -72 -366 -20 -103 -22 -21 -136 -19 rlinecurve
            -16 -78 1163 0 107 444 rlineto
            -69 hlineto
            -110 -260 -98 -74 -240 -13 rrcurveto
            -177 -8 118 602 140 -2 104 -5 22 -42 -4 -167 rlinecurve
            69 hlineto
            103 516 rlineto
            -69 hlineto
            -58 -158 -40 -42 -108 -6 rrcurveto
            -142 -2 112 572 161 -8 233 -12 37 -59 15 -244 rlinecurve
            70 hlineto
            -994 319 rmoveto
            71 hlineto
            -130 -662 rlineto
            -372 hlineto
            endchar
          </CharString>
          <CharString index="232">
            1495 639 208 rmoveto
            102 476 88 0 212 -684 465 0 16 74 -54 26 -27 34 -71 220 rlinecurve
            -200 635 176 153 184 157 70 43 123 24 rlinecurve
            16 78 -474 0 -16 -78 119 -19 7 -46 -131 -130 rlinecurve
            -396 -390 -87 -1 97 456 19 90 23 21 115 19 rlinecurve
            16 78 -676 0 -16 -78 114 -20 17 -27 callsubr
            -40 callsubr
            -16 -78 675 0 17 78 -106 19 -15 20 19 91 rlinecurve
            return
          </CharString>
          <CharString index="233">
            rmoveto
            125 101 65 81 46 hvcurveto
            16 79 rlineto
            -17 -19 -26 -11 -29 hhcurveto
            -49 -40 38 124 -41 hvcurveto
            -125 380 72 55 154 113 83 40 106 25 rlinecurve
            13 63 -467 0 -13 -63 123 -17 21 -37 -113 -97 rlinecurve
            -318 -270 206 964 -22 callsubr
            13 callsubr
            93 440 59 45 61 -206 rlineto
            -198 56 80 -99 144 hhcurveto
            return
          </CharString>
          <CharString index="234">
            -166 -783 376 0 138 647 rlineto
            131 28 81 86 80 hhcurveto
            71 32 -58 -103 -23 hvcurveto
            -92 -446 rlineto
            -187 -40 71 -87 155 hhcurveto
            137 125 62 callsubr
            -26 -36 -11 -32 hhcurveto
            -49 -21 33 76 16 hvcurveto
            85 396 rlineto
            233 49 -91 127 -208 hhcurveto
            -170 -141 -98 -179 -68 hvcurveto
            return
          </CharString>
          <CharString index="235">
            -179 -652 rmoveto
            136 -47 callgsubr
            -1095 -723 rmoveto
            -20 callgsubr
            955 -736 rmoveto
            280 128 236 222 -1 hvcurveto
            184 -1 -106 165 -204 hhcurveto
            -280 -128 -234 -223 2 hvcurveto
            -185 106 -165 204 vhcurveto
            return
          </CharString>
          <CharString index="236">
            57 vhcurveto
            -3 -14 -5 -41 -13 vvcurveto
            -134 -9 67 -65 126 hhcurveto
            137 123 61 82 62 hvcurveto
            17 78 rlineto
            -20 -26 -35 -11 -33 hhcurveto
            -49 -21 33 76 17 hvcurveto
            258 1215 -22 callsubr
            rlineto
            49 -17 11 -20 -13 -60 -68 -324 rcurveline
            58 -32 -81 48 -118 hhcurveto
            -313 -224 -298 -379 hvcurveto
            return
          </CharString>
          <CharString index="237">
            -153 -124 -90 -166 -58 vhcurveto
            56 247 -502 9 callsubr
            12 callgsubr
            -141 25 -16 17 14 68 73 357 rcurveline
            -57 32 81 -50 118 -83 callgsubr
            -82 -344 -178 -56 -37 29 35 -9 vhcurveto
            101 475 rlineto
            135 32 64 76 70 hhcurveto
            59 36 -50 -131 hvcurveto
            endchar
          </CharString>
          <CharString index="238">
            rmoveto
            128 92 73 130 25 hvcurveto
            -91 hlineto
            -47 -10 -32 -20 -52 hhcurveto
            -30 -31 7 11 -39 hvcurveto
            -38 12 rlineto
            14 -48 -49 12 -55 hhcurveto
            -127 -93 -73 -130 -25 hvcurveto
            91 hlineto
            46 11 31 21 52 hhcurveto
            30 31 -7 -11 38 hvcurveto
            39 -11 rlineto
            -15 49 49 -12 54 hhcurveto
            -330 -1582 -101 callsubr
          </CharString>
          <CharString index="239">
            rmoveto
            124 93 85 154 30 hvcurveto
            -89 hlineto
            -56 -12 -31 -23 -51 hhcurveto
            -29 -31 7 14 -37 hvcurveto
            -36 13 rlineto
            18 -47 -48 13 -53 hhcurveto
            -124 -94 -85 -154 -30 hvcurveto
            89 hlineto
            56 13 31 23 51 hhcurveto
            29 30 -8 -13 37 hvcurveto
            37 -13 rlineto
            -17 47 47 -14 54 hhcurveto
            endchar
          </CharString>
          <CharString index="240">
            -52 -50 -85 -29 -75 hhcurveto
            -143 -110 100 229 250 114 195 168 23 22 -4 -7 20 hvcurveto
            -74 -15 -53 -63 -76 vvcurveto
            -90 71 -66 88 94 76 69 97 139 -119 121 -230 -341 -248 -259 -351 return
          </CharString>
          <CharString index="241">
            83 82 76 hhcurveto
            72 31 -58 -103 -22 hvcurveto
            -93 -446 rlineto
            -187 -39 70 -87 155 hhcurveto
            138 124 61 82 64 hvcurveto
            16 78 rlineto
            -20 -25 -36 -28 callsubr
            84 396 rlineto
            233 49 -91 106 callgsubr
            return
          </CharString>
          <CharString index="242">
            1562 rmoveto
            94 1 81 62 27 230 rrcurveto
            -78 hlineto
            -85 -16 -26 -28 -39 hhcurveto
            -27 -24 113 callsubr
            -56 hhcurveto
            -94 -79 -62 -227 -29 hvcurveto
            78 hlineto
            83 16 27 28 38 hhcurveto
            28 return
          </CharString>
          <CharString index="243">
            rmoveto
            208 119 87 97 81 hvcurveto
            17 78 rlineto
            -60 -68 -110 -39 -113 hhcurveto
            -99 -58 40 70 69 34 47 115 41 hvcurveto
            52 18 rlineto
            199 66 110 86 185 vvcurveto
            175 return
          </CharString>
          <CharString index="244">
            rmoveto
            402 -314 223 -445 vhcurveto
            -590 -106 callgsubr
            -91 -219 -1028 rcurveline
            -19 -90 -90 callgsubr
            603 hlineto
            606 447 319 500 hvcurveto
            return
          </CharString>
          <CharString index="245">
            851 hmoveto
            281 127 236 222 -1 hvcurveto
            184 -106 165 -205 -280 -128 -234 -223 2 vhcurveto
            -185 106 -165 204 vhcurveto
            return
          </CharString>
          <CharString index="246">
            126 620 rlineto
            87 52 113 55 129 hhcurveto
            50 41 -7 -12 31 hvcurveto
            12 27 16 50 54 vvcurveto
            96 -39 66 -86 -112 -75 -103 -249 -122 vhcurveto
            return
          </CharString>
          <CharString index="247">
            19 86 -255 0 39 172 -382 -29 -30 -143 -141 0 -19 -86 142 0 -260 -1223 376 0 138 650 rlineto
            132 30 return
          </CharString>
          <CharString index="248">
            rmoveto
            128 92 73 130 26 hvcurveto
            -91 hlineto
            -47 -11 -31 -20 -52 hhcurveto
            -30 -32 7 11 -38 hvcurveto
            -38 12 -38 callgsubr
            -3 callgsubr
            54 hhcurveto
            endchar
          </CharString>
          <CharString index="249">
            -102 80 199 -14 hvcurveto
            61 18 rlineto
            337 94 164 85 173 vvcurveto
            139 -134 91 -213 -341 -261 -260 -351 return
          </CharString>
          <CharString index="250">
            153 37 61 90 hvcurveto
            85 398 -72 -1 rlineto
            -233 -86 -153 -156 -159 hhcurveto
            -183 -119 176 276 hvcurveto
            endchar
          </CharString>
          <CharString index="251">
            rmoveto
            97 79 74 91 -1 hvcurveto
            86 -1 -69 67 -92 hhcurveto
            -98 114 callsubr
          </CharString>
          <CharString index="252">
            1835 rmoveto
            -275 -6 hlineto
            245 -298 rlineto
            77 hlineto
            304 304 rmoveto
            -263 -6 hlineto
            157 -298 rlineto
            72 hlineto
            return
          </CharString>
          <CharString index="253">
            -159 -208 -123 -98 -123 vhcurveto
            219 -30 rmoveto
            97 49 78 59 43 26 -33 -62 -96 -48 -79 -60 -43 -26 33 62 vhcurveto
            return
          </CharString>
          <CharString index="254">
            rmoveto
            -534 hlineto
            -17 -78 120 -13 22 -65 -23 -103 rlinecurve
            -192 -872 -39 -177 -28 -38 -123 -20 198 callsubr
            return
          </CharString>
          <CharString index="255">
            rmoveto
            -403 -215 -381 -374 -20 vhcurveto
            -52 -3 270 1266 45 -3 rlineto
            208 -12 118 -187 -257 vvcurveto
            return
          </CharString>
          <CharString index="256">
            -45 -27 48 109 -2 hvcurveto
            266 -2 80 247 92 hhcurveto
            45 27 -49 -108 1 hvcurveto
            -266 3 -80 -247 -92 hhcurveto
            return
          </CharString>
          <CharString index="257">
            17 30 4 26 hhcurveto
            50 43 -21 -40 -41 -40 -24 -66 -46 -41 15 18 -32 hvcurveto
            -15 -65 rlineto
            -47 44 76 -29 87 hhcurveto
            endchar
          </CharString>
          <CharString index="258">
            -31 -35 -47 hhcurveto
            -34 -28 13 25 -34 hvcurveto
            -34 24 rlineto
            38 -52 -55 24 -67 79 callsubr
            56 -26 66 1 rlinecurve
            return
          </CharString>
          <CharString index="259">
            rmoveto
            -276 -6 hlineto
            246 -298 rlineto
            77 hlineto
            304 304 rmoveto
            -264 -6 hlineto
            158 -298 rlineto
            72 hlineto
            return
          </CharString>
          <CharString index="260">
            238 -10 27 122 -245 -16 53 249 -390 -50 -42 -197 -135 -36 -14 -72 126 0 return
          </CharString>
          <CharString index="261">
            175 157 127 97 175 129 callsubr
            384 -27 rmoveto
            226 1 -16 callgsubr
            return
          </CharString>
          <CharString index="262">
            -23 3 4 -21 hvcurveto
            45 20 34 46 56 vvcurveto
            85 -63 62 -79 -91 -62 -65 -90 -115 92 -94 172 vhcurveto
            return
          </CharString>
          <CharString index="263">
            1868 rmoveto
            -103 -76 -38 -66 -46 hvcurveto
            -12 -56 rlineto
            17 27 43 13 46 hhcurveto
            67 -101 callgsubr
            return
          </CharString>
          <CharString index="264">
            946 733 1029 rmoveto
            -501 9 callsubr
            122 callsubr
            139 callsubr
            return
          </CharString>
          <CharString index="265">
            77 -32 103 hhcurveto
            156 154 105 229 111 hvcurveto
            -53 47 rlineto
            -71 -46 -53 -30 -56 hhcurveto
            return
          </CharString>
          <CharString index="266">
            1562 rmoveto
            93 1 81 62 28 230 rrcurveto
            -78 hlineto
            -85 -17 -26 -28 -39 hhcurveto
            -27 return
          </CharString>
          <CharString index="267">
            1536 rmoveto
            88 73 70 85 82 -64 64 -84 -89 -73 -70 -87 -80 63 -64 86 hvcurveto
            return
          </CharString>
          <CharString index="268">
            449 1236 rmoveto
            -219 -1028 rlineto
            -19 -92 -24 -19 -123 -19 -17 -78 rcurveline
            return
          </CharString>
          <CharString index="269">
            1562 rmoveto
            94 1 80 62 28 230 rrcurveto
            -78 hlineto
            -85 -17 -26 -28 -38 hhcurveto
            return
          </CharString>
          <CharString index="270">
            -79 -62 -227 -29 hvcurveto
            78 hlineto
            83 16 27 28 38 hhcurveto
            28 23 -11 -19 29 hvcurveto
            return
          </CharString>
          <CharString index="271">
            1526 rmoveto
            -101 -395 97 0 345 388 rlineto
            7 vlineto
            111 hmoveto
            return
          </CharString>
          <CharString index="272">
            32 -7 -12 38 hvcurveto
            38 -11 rlineto
            -15 49 48 -11 55 hhcurveto
            -538 -306 rmoveto
            return
          </CharString>
          <CharString index="273">
            1537 rmoveto
            -115 -396 127 0 332 386 rlineto
            10 vlineto
            return
          </CharString>
          <CharString index="274">
            1265 1311 656 58 callsubr
            186 callsubr
            return
          </CharString>
          <CharString index="275">
            350 hmoveto
            78 64 63 76 73 -55 57 -74 -78 -64 -62 -78 hvcurveto
            -72 -1 return
          </CharString>
          <CharString index="276">
            1697 rmoveto
            -91 -85 -41 -56 -56 hvcurveto
            -12 -57 rlineto
            17 30 54 15 return
          </CharString>
          <CharString index="277">
            75 hvcurveto
            350 hmoveto
            77 64 63 76 hvcurveto
            73 1 -56 57 -73 hhcurveto
            -79 return
          </CharString>
          <CharString index="278">
            rmoveto
            497 326 370 459 169 -50 149 -92 113 hvcurveto
            168 159 -61 65 -168 -159 rlineto
            107 -117 -163 62 -201 hhcurveto
            -497 -319 -369 -460 -6 hvcurveto
            -2 -170 50 -149 93 -114 rrcurveto
            -166 -156 61 -65 166 156 rlineto
            -105 118 164 -62 199 hhcurveto
            167 1391 rmoveto
            122 81 -88 -192 22 hvcurveto
            -650 -612 rlineto
            395 167 497 258 vhcurveto
            -195 -1288 rmoveto
            -121 -81 87 192 -22 hvcurveto
            650 612 rlineto
            -405 -172 -486 -254 vhcurveto
            endchar
          </CharString>
          <CharString index="279">
            rmoveto
            -282 -34 134 -172 243 hhcurveto
            176 126 103 169 61 hvcurveto
            -158 111 -114 181 334 223 305 339 36 vhcurveto
            262 27 -99 154 -160 hhcurveto
            -136 -88 -132 -160 15 hvcurveto
            175 -29 87 -126 -12 -170 rrcurveto
            -163 -12 -107 -111 -123 hhcurveto
            -140 -73 112 316 77 hvcurveto
            45 197 -304 0 -56 -266 rlineto
            -278 -59 -52 -81 -94 hhcurveto
            -102 -34 100 189 22 hvcurveto
            24 223 92 215 142 104 rrcurveto
            -36 57 -338 -47 -236 -249 -36 -307 rlinecurve
            endchar
          </CharString>
          <CharString index="280">
            rmoveto
            246 209 92 155 109 hvcurveto
            13 79 rlineto
            -73 -79 -142 -52 -139 hhcurveto
            -138 -73 50 79 3 hvcurveto
            97 3 96 42 173 hhcurveto
            74 hlineto
            -20 225 rlineto
            -62 hlineto
            -181 -49 55 75 5 hvcurveto
            80 5 72 60 166 hhcurveto
            64 56 -8 -16 44 hvcurveto
            -46 -22 -32 -48 -56 vvcurveto
            -74 1 52 -59 92 hhcurveto
            79 60 62 81 116 -91 120 -330 -334 -201 -124 -184 -9 hvcurveto
            -7 -119 80 -88 163 -25 -203 -19 -131 -93 -6 -141 rrcurveto
            -165 -11 151 -102 268 hhcurveto
            endchar
          </CharString>
          <CharString index="281">
            rmoveto
            162 113 90 159 102 hvcurveto
            -167 16 68 -77 142 hhcurveto
            101 94 53 53 50 hvcurveto
            17 78 rlineto
            -8 -13 -28 -8 -25 hhcurveto
            -73 -50 21 219 -34 hvcurveto
            -15 105 332 520 rlineto
            -340 hlineto
            -13 -43 -37 -104 -40 -104 rrcurveto
            171 -36 -90 102 -186 hhcurveto
            -295 -207 -228 -344 -38 hvcurveto
            -315 -39 145 -173 217 hhcurveto
            72 534 rmoveto
            290 32 67 121 92 hhcurveto
            80 22 -93 -297 9 hvcurveto
            -149 vlineto
            -153 -74 -67 -71 -75 hhcurveto
            -84 -33 97 255 31 hvcurveto
            endchar
          </CharString>
          <CharString index="282">
            rmoveto
            362 255 260 334 112 -31 99 -57 77 hvcurveto
            125 112 -58 64 -125 -113 rlineto
            71 -81 -111 42 -134 hhcurveto
            -365 -252 -262 -332 -114 32 -100 59 -78 hvcurveto
            -117 -106 58 -63 117 107 rlineto
            -70 81 110 -40 132 hhcurveto
            136 960 rmoveto
            74 40 -68 -147 1 hvcurveto
            -353 -320 rlineto
            239 20 83 296 135 hhcurveto
            -127 -862 rmoveto
            -73 -41 66 141 -2 hvcurveto
            353 320 rlineto
            -238 -21 -83 -289 -133 hhcurveto
            endchar
          </CharString>
          <CharString index="283">
            351 215 218 360 78 hvcurveto
            182 825 rlineto
            -4 25 28 -3 28 hhcurveto
            170 2 114 81 135 vvcurveto
            106 -69 91 -89 41 vhcurveto
            -76 hlineto
            10 -16 4 -29 -30 vvcurveto
            -169 -109 -138 -213 vhcurveto
            -76 hlineto
            -17 -78 rlineto
            126 -24 12 -30 -28 -137 -125 -611 rcurveline
            -264 -54 -146 -148 -200 hhcurveto
            -192 -121 128 319 68 hvcurveto
            134 634 20 91 24 19 129 23 rlinecurve
            16 78 -684 0 -16 -78 107 -21 17 -20 -19 -92 rlinecurve
            return
          </CharString>
          <CharString index="284">
            -7 -43 -14 vvcurveto
            -134 -10 69 -66 127 hhcurveto
            126 128 57 75 66 hvcurveto
            17 79 rlineto
            -20 -29 -35 -11 -33 hhcurveto
            -48 -21 33 76 16 hvcurveto
            145 683 rlineto
            -2 17 18 -2 20 hhcurveto
            139 112 73 129 101 -67 83 -116 42 hvcurveto
            -68 hlineto
            11 -18 6 -33 -37 vvcurveto
            -155 -127 -116 -308 -35 vhcurveto
            -128 -15 -15 -73 47 -15 rlineto
            48 -20 12 -18 -13 -61 -90 -418 rcurveline
            -127 -29 -75 -81 -80 hhcurveto
            -74 -30 58 106 23 hvcurveto
            return
          </CharString>
          <CharString index="285">
            rmoveto
            -10 -53 -124 -33 -15 -71 125 0 -145 -915 -33 -206 -50 -96 -85 -23 rlinecurve
            26 25 16 36 40 vvcurveto
            81 -63 66 -77 -81 -66 -65 -85 -121 101 -89 150 275 214 184 641 108 vhcurveto
            91 537 237 -10 27 122 -253 -13 24 142 31 202 60 79 96 4 rlinecurve
            -35 -27 -23 -43 -47 vvcurveto
            -81 65 -64 79 82 66 66 82 127 -124 93 -196 -252 -182 -169 -316 -59 vhcurveto
            endchar
          </CharString>
          <CharString index="286">
            rmoveto
            -104 80 -80 122 184 127 121 296 213 vhcurveto
            565 787 99 139 40 31 115 19 rlinecurve
            16 78 -431 0 -17 -78 142 -18 2 -29 -91 -138 rlinecurve
            -349 -521 -145 550 -30 117 6 22 144 17 rlinecurve
            17 78 -722 0 -16 -78 106 -20 20 -26 37 -117 rlinecurve
            294 -930 -61 -83 -55 -59 -64 -33 rlinecurve
            8 18 5 21 22 vvcurveto
            104 -80 77 -97 -104 -80 -82 -101 vhcurveto
            endchar
          </CharString>
          <CharString index="287">
            393 hlineto
            130 650 rlineto
            154 37 75 52 72 hhcurveto
            81 35 -65 -128 -26 hvcurveto
            -27 -125 -162 -750 -59 -248 rrcurveto
            400 hlineto
            7 33 213 1060 8 37 rrcurveto
            250 50 -101 118 -208 hhcurveto
            -182 -129 -102 -158 -67 hvcurveto
            170 18 -70 83 -160 hhcurveto
            -98 -100 -30 -39 -67 hvcurveto
            -15 -74 rlineto
            5 12 14 2 20 hhcurveto
            65 37 -37 -106 -22 hvcurveto
            -17 -88 -102 -461 -55 -203 rrcurveto
            endchar
          </CharString>
          <CharString index="288">
            15 -16 3 -52 50 -806 rcurveline
            266 hlineto
            136 166 115 192 68 169 23 -527 rcurveline
            260 hlineto
            281 282 293 367 209 vvcurveto
            111 -80 74 -103 -101 -83 -72 -103 -97 77 -78 97 9 9 0 1 9 vhcurveto
            -59 -165 -123 -173 -145 -158 rrcurveto
            -32 836 -352 -54 7 -159 -5 -189 -99 -213 -121 -185 rlinecurve
            return
          </CharString>
          <CharString index="289">
            253 -113 206 -192 111 hvcurveto
            -7 42 48 -4 51 hhcurveto
            186 145 80 142 105 -69 92 -98 44 hvcurveto
            -76 hlineto
            9 -16 4 -29 -30 vvcurveto
            -164 -112 -142 -179 vhcurveto
            -114 -78 24 -138 hhcurveto
            -496 -320 -369 -460 -6 hvcurveto
            425 -167 rmoveto
            396 167 497 258 40 callsubr
            -144 -86 122 273 vhcurveto
            return
          </CharString>
          <CharString index="290">
            rmoveto
            116 105 64 84 49 hvcurveto
            17 79 rlineto
            -17 -26 -24 -10 -31 hhcurveto
            -52 -39 29 83 -36 hvcurveto
            -171 401 57 56 25 28 22 23 20 21 rlinecurve
            -70 20 60 -51 76 hhcurveto
            94 79 76 95 -1 hvcurveto
            90 -1 -69 75 -99 hhcurveto
            -101 -57 -59 -123 -106 hvcurveto
            -300 -354 113 527 71 callgsubr
            101 474 104 -258 rlineto
            -166 58 77 -68 140 hhcurveto
            endchar
          </CharString>
          <CharString index="291">
            687 1226 rmoveto
            2 -107 28 callgsubr
            -105 2 -77 -66 -88 hhcurveto
            -30 -30 7 13 -25 hvcurveto
            32 13 22 30 36 230 callsubr
            -63 127 hhcurveto
            186 173 94 168 hvcurveto
            -2 89 -68 71 -120 28 121 11 115 60 -1 74 callgsubr
            -69 -153 -50 hvcurveto
            45 -17 rlineto
            75 40 55 32 72 hhcurveto
            77 48 -43 -58 1 hvcurveto
            return
          </CharString>
          <CharString index="292">
            365 257 256 332 164 -70 136 -120 83 vhcurveto
            -12 48 56 -8 57 hhcurveto
            200 132 79 140 105 -66 85 -112 42 hvcurveto
            -68 hlineto
            11 -18 6 -33 -35 vvcurveto
            -157 -119 -123 -169 vhcurveto
            -82 -69 24 -108 hhcurveto
            -367 -259 -254 -340 hvcurveto
            374 -150 rmoveto
            33 callsubr
            -72 -41 68 147 1 hvcurveto
            return
          </CharString>
          <CharString index="293">
            -145 -120 -84 -155 -59 vhcurveto
            155 698 -513 -53 -16 -75 55 -16 -57 callgsubr
            231 0 138 117 rlineto
            -72 27 87 -67 141 hhcurveto
            313 223 298 380 hvcurveto
            -384 26 rmoveto
            -225 -82 -344 -177 -56 -37 29 35 -10 vhcurveto
            101 475 rlineto
            135 32 65 76 69 hhcurveto
            59 37 -50 -131 -1 hvcurveto
            return
          </CharString>
          <CharString index="294">
            680 hlineto
            17 78 -108 19 -18 20 19 91 rlinecurve
            8 38 647 763 -170 -801 -19 -92 -23 -19 -120 -19 rlinecurve
            -16 -78 680 0 callgsubr
            -681 0 -16 -78 110 -19 16 -18 -19 -93 rlinecurve
            -8 -37 -647 -763 170 800 19 91 23 19 120 20 rlinecurve
            16 78 -680 0 -17 -78 73 callgsubr
            endchar
          </CharString>
          <CharString index="295">
            rmoveto
            101 91 45 65 44 hvcurveto
            16 74 rlineto
            -13 -18 -25 -9 -27 hhcurveto
            -69 -45 75 95 49 15 46 21 35 hvcurveto
            338 23 233 250 320 vvcurveto
            275 99 callsubr
            -255 160 -182 254 -26 vhcurveto
            -150 -79 -73 -96 -101 vvcurveto
            -107 91 -80 142 vhcurveto
            62 561 rmoveto
            -72 -41 68 147 1 hvcurveto
            33 callsubr
            endchar
          </CharString>
          <CharString index="296">
            rmoveto
            -360 hlineto
            -11 -52 69 -12 9 -23 -16 -66 rlinecurve
            -108 -453 -23 -88 -15 -21 -74 -9 rlinecurve
            222 callsubr
            89 430 80 -601 137 0 155 315 2 0 167 304 -88 -499 -9 -45 -14 -12 -72 -10 rlinecurve
            -11 77 callgsubr
            8 45 14 13 73 10 rlinecurve
            10 52 -369 0 -227 -461 rlineto
            return
          </CharString>
          <CharString index="297">
            76 102 44 13 42 23 32 hvcurveto
            491 326 370 459 384 -259 281 -425 -497 -319 -369 -460 -6 hvcurveto
            -5 -355 224 -267 370 -38 rrcurveto
            -154 -79 -74 -99 -99 vvcurveto
            -108 99 -77 140 vhcurveto
            55 560 rmoveto
            -143 115 callsubr
            258 40 callsubr
            hvcurveto
            endchar
          </CharString>
          <CharString index="298">
            610 hlineto
            515 336 155 294 hvcurveto
            -345 662 rmoveto
            -176 -114 -125 -193 -2 vhcurveto
            -92 -1 117 548 54 -3 rlineto
            144 -5 84 -88 -148 vvcurveto
            -93 -656 rmoveto
            -199 -128 -156 -276 -9 vhcurveto
            -55 -2 134 629 90 -3 rlineto
            139 -5 96 -94 -161 vvcurveto
            return
          </CharString>
          <CharString index="299">
            rmoveto
            -513 -58 -15 -75 59 -18 rlineto
            41 -14 13 -21 -12 -59 -74 -350 rcurveline
            -314 -66 172 -143 322 hhcurveto
            329 262 54 callgsubr
            -67 -319 rmoveto
            48 228 rlineto
            7 21 31 5 31 hhcurveto
            103 48 -65 -110 -146 -72 -162 -114 -92 -39 76 167 35 hvcurveto
            endchar
          </CharString>
          <CharString index="300">
            19 91 25 19 123 20 rlinecurve
            17 78 -681 0 -16 -78 108 -19 18 -20 -20 -91 rlinecurve
            -241 -1136 -422 0 243 1140 19 89 20 22 115 15 rlinecurve
            16 78 -663 0 -16 -78 105 -15 14 -21 -19 -90 rlinecurve
            -242 -1140 -422 0 242 1136 return
          </CharString>
          <CharString index="301">
            rlinecurve
            -16 -78 704 0 17 77 -129 21 -20 20 19 89 rlinecurve
            101 474 134 -3 104 -4 22 -43 -3 -167 rlinecurve
            67 hlineto
            109 515 rlineto
            -67 hlineto
            -62 -158 -40 -43 -110 -5 rrcurveto
            -135 -3 123 585 145 -7 230 -12 47 -60 13 -245 rlinecurve
            71 hlineto
            endchar
          </CharString>
          <CharString index="302">
            142 -1160 307 0 624 1132 104 190 36 31 106 17 rlinecurve
            16 78 -428 0 -16 -78 130 -21 17 -37 -92 -178 rlinecurve
            -441 -850 -84 873 -14 151 27 41 138 21 rlinecurve
            16 78 -716 0 -17 -78 93 -16 31 -28 21 -166 rlinecurve
            return
          </CharString>
          <CharString index="303">
            rmoveto
            372 228 265 327 274 -198 194 -290 -372 -228 -265 -327 -273 198 -195 290 hvcurveto
            -6 101 rmoveto
            -75 -35 70 149 hvcurveto
            251 1 88 389 144 hhcurveto
            75 36 -71 -149 -1 hvcurveto
            -250 -89 -389 -144 vhcurveto
            endchar
          </CharString>
          <CharString index="304">
            -117 112 -200 20 vhcurveto
            41 191 -64 0 -40 -188 rlineto
            -380 -1 -273 -252 -351 vvcurveto
            -287 202 -155 225 -19 vhcurveto
            -41 -191 rlineto
            5 689 rmoveto
            219 95 170 140 53 vhcurveto
            -146 -690 rlineto
            -57 55 -32 85 108 vvcurveto
            endchar
          </CharString>
          <CharString index="305">
            rlinecurve
            -17 -78 415 0 16 78 -125 22 -14 30 35 184 rlinecurve
            159 819 468 -1133 319 0 253 1147 36 162 25 37 123 20 rlinecurve
            17 78 -414 0 -17 -78 rlineto
            126 -22 13 -29 -30 -168 -142 -740 rcurveline
            return
          </CharString>
          <CharString index="306">
            1490 1509 449 rmoveto
            164 -130 145 -279 24 vhcurveto
            256 15 224 98 1 218 rrcurveto
            205 -198 126 -413 vhcurveto
            -615 -106 callgsubr
            -92 -219 -1027 rcurveline
            -19 -90 -90 callgsubr
            191 callsubr
            return
          </CharString>
          <CharString index="307">
            68 -65 129 hhcurveto
            130 126 62 callsubr
            -28 -34 -11 -33 hhcurveto
            -50 -20 33 76 16 hvcurveto
            159 748 -507 -59 -15 -73 48 -16 rlineto
            47 -19 13 -19 -14 -61 -90 -418 rcurveline
            -127 -29 -75 -81 -80 hhcurveto
            -74 -30 58 106 23 hvcurveto
            endchar
          </CharString>
          <CharString index="308">
            1501 499 rmoveto
            242 -215 30 callgsubr
            16 78 -699 0 -17 -78 rlineto
            113 -20 18 -19 -19 -91 -219 -1028 rcurveline
            -19 -90 -24 -20 -123 -20 -17 -78 rcurveline
            718 hlineto
            437 299 187 312 hvcurveto
            return
          </CharString>
          <CharString index="309">
            0 122 1434 rmoveto
            71 -102 callgsubr
            -71 hhcurveto
            -14 hlineto
            -71 -68 -50 -71 -15 hvcurveto
            -71 -15 47 -50 70 hhcurveto
            388 hmoveto
            70 -102 callgsubr
            -70 hhcurveto
            -16 hlineto
            -69 -69 -50 -71 -15 hvcurveto
            -71 -14 46 -50 70 hhcurveto
            return
          </CharString>
          <CharString index="310">
            14 -16 4 -52 58 -806 rcurveline
            265 hlineto
            316 323 263 336 198 vvcurveto
            113 -82 73 -104 -100 -80 -72 -103 -97 78 -78 96 10 10 0 2 10 vhcurveto
            -58 -156 -118 -160 -159 -180 rrcurveto
            return
          </CharString>
          <CharString index="311">
            0 440 1449 rmoveto
            125 93 84 154 30 hvcurveto
            -89 hlineto
            -55 -12 25 callgsubr
            -94 -85 -153 -30 hvcurveto
            89 hlineto
            55 13 31 24 50 hhcurveto
            30 30 -8 -14 37 hvcurveto
            37 -13 rlineto
            -17 47 47 -13 53 hhcurveto
            return
          </CharString>
          <CharString index="312">
            -477 rmoveto
            91 92 34 56 59 hvcurveto
            17 75 rlineto
            -13 -25 -31 -9 -34 hhcurveto
            -63 -42 32 66 77 57 79 127 74 hvcurveto
            85 48 -88 0 -123 -54 rlineto
            -257 -121 -76 -78 -106 vvcurveto
            -91 84 -69 127 vhcurveto
            endchar
          </CharString>
          <CharString index="313">
            1525 rmoveto
            -86 -396 120 0 293 84 callgsubr
            -64 64 -84 -89 -73 -70 -87 -80 64 -64 85 hvcurveto
            716 hmoveto
            89 72 70 86 81 -64 64 -84 -89 -73 -70 -87 -80 64 -64 85 hvcurveto
            endchar
          </CharString>
          <CharString index="314">
            17 -20 -19 -91 rlinecurve
            -242 -1136 -461 0 242 1136 19 92 24 24 callgsubr
          </CharString>
          <CharString index="315">
            1268 1053 1449 rmoveto
            125 92 84 154 31 hvcurveto
            -89 hlineto
            -55 -13 -31 -24 -51 hhcurveto
            -29 -31 8 14 -37 49 callgsubr
            89 hlineto
            55 13 31 24 51 hhcurveto
            29 113 callgsubr
            return
          </CharString>
          <CharString index="316">
            -385 -45 -133 -623 rlineto
            -122 -27 -70 -86 -84 hhcurveto
            -69 -23 58 100 21 hvcurveto
            151 718 -387 -43 -130 -627 rlineto
            -119 -27 -69 -87 -84 hhcurveto
            -69 -22 60 98 20 hvcurveto
            148 return
          </CharString>
          <CharString index="317">
            85 397 rlineto
            233 50 -92 126 -203 hhcurveto
            -152 -141 -96 -167 -60 hvcurveto
            151 16 -86 112 -191 hhcurveto
            -163 -135 -96 -181 -65 hvcurveto
            56 268 -72 callsubr
            return
          </CharString>
          <CharString index="318">
            rrcurveto
            180 3 125 83 140 hhcurveto
            32 30 -4 -8 27 hvcurveto
            -53 -20 -37 -48 -64 vvcurveto
            -83 62 -65 85 84 66 67 85 141 -146 105 -244 -316 -233 -169 -284 -6 vhcurveto
            return
          </CharString>
          <CharString index="319">
            84 -46 44 -2 89 -2 116 94 70 143 1 187 1 93 -107 10 -197 rrcurveto
            70 hlineto
            48 312 -76 46 -131 41 -166 2 rlinecurve
            43 204 -66 0 -43 -205 return
          </CharString>
          <CharString index="320">
            rmoveto
            -161 -127 221 -207 hhcurveto
            -173 -130 -129 -257 -33 hvcurveto
            129 hlineto
            86 callgsubr
            169 131 128 254 34 hvcurveto
            -130 hlineto
            -151 -29 return
          </CharString>
          <CharString index="321">
            259 859 rmoveto
            280 7 210 159 228 vvcurveto
            135 -86 83 -115 -130 -77 -108 -130 -7 vhcurveto
            93 -11 63 -41 -79 vvcurveto
            -94 -96 -65 -118 -9 vhcurveto
            return
          </CharString>
          <CharString index="322">
            1156 rmoveto
            192 170 58 callgsubr
            -32 -29 4 8 -25 hvcurveto
            59 19 46 58 69 vvcurveto
            93 -72 65 -87 -102 -66 -76 -99 -133 114 -97 174 vhcurveto
            return
          </CharString>
          <CharString index="323">
            -169 95 -113 169 -106 vhcurveto
            114 -78 rlineto
            125 -81 40 -51 2 -89 1 -128 -106 -73 -149 0 -194 -1 -119 101 -9 240 rrcurveto
            -69 hlineto
            endchar
          </CharString>
          <CharString index="324">
            70 hlineto
            40 264 -60 32 -123 38 -168 6 rlinecurve
            39 184 -64 0 -39 -183 rlineto
            -311 -5 -198 -124 -216 vvcurveto
            -134 82 -87 163 -68 vhcurveto
            return
          </CharString>
          <CharString index="325">
            0 -17 -78 rlineto
            154 -17 33 -43 -31 -139 -25 -106 -27 -112 -45 -162 -64 -260 -58 -205 -76 -125 rrcurveto
            90 -15 -70 56 -88 hhcurveto
            -113 -72 -86 -100 return
          </CharString>
          <CharString index="326">
            -97 -454 rcurveline
            -211 -45 81 -139 205 hhcurveto
            146 145 78 180 73 hvcurveto
            -160 -13 88 -98 185 hhcurveto
            150 149 91 187 70 hvcurveto
            -3 -14 return
          </CharString>
          <CharString index="327">
            109 -18 17 -19 -20 -93 rlinecurve
            -96 -451 -470 0 96 451 19 90 24 20 119 20 rlinecurve
            16 78 -681 0 -16 -78 114 -20 17 -20 -19 -91 rlinecurve
            return
          </CharString>
          <CharString index="328">
            -3 -13 -8 -45 -13 vvcurveto
            -134 -9 69 -65 128 hhcurveto
            return
          </CharString>
          <CharString index="329">
            -11 -53 248 0 11 53 -71 9 -7 18 20 91 rlinecurve
            return
          </CharString>
          <CharString index="330">
            -44 -3 -167 rlinecurve
            67 hlineto
            109 516 rlineto
            -67 hlineto
            return
          </CharString>
          <CharString index="331">
            -61 61 -95 hhcurveto
            -93 -65 -61 -95 -10 hvcurveto
            -7 -60 rlineto
            -93 return
          </CharString>
          <CharString index="332">
            -62 -78 -1 vhcurveto
            -72 55 -57 75 vhcurveto
            350 hmoveto
            78 63 return
          </CharString>
          <CharString index="333">
            -75 -38 -66 -46 hvcurveto
            -12 -56 rlineto
            17 26 44 13 46 hhcurveto
            return
          </CharString>
          <CharString index="334">
            -82 -78 -107 -108 vvcurveto
            -108 99 -77 140 vhcurveto
            endchar
          </CharString>
          <CharString index="335">
            -85 -41 -56 -55 hvcurveto
            -13 -57 rlineto
            17 31 54 15 48 hhcurveto
            return
          </CharString>
          <CharString index="336">
            -92 0 134 -395 240 0 296 395 rlineto
            return
          </CharString>
          <CharString index="337">
            vvcurveto
            50 -40 37 -51 -53 -39 -39 -50 vhcurveto
            -107 1 124 return
          </CharString>
          <CharString index="338">
            rmoveto
            88 73 70 85 82 -64 63 -84 -89 -73 -69 -87 -80 return
          </CharString>
          <CharString index="339">
            rlineto
            732 -230 rmoveto
            48 230 -390 -103 rlineto
            2 return
          </CharString>
        <CharString name=".notdef">
          2048 20 -494 rmoveto
          159 hlineto
          519 2444 rlineto
          -159 hlineto
          -109 68 callgsubr
          -110 68 callgsubr
          -109 68 callgsubr
          -109 68 callgsubr
          endchar
        </CharString>
        <CharString name=".null">
          0 endchar
        </CharString>
        <CharString name="A">
          1455 1330 288 -105 callsubr
        </CharString>
        <CharString name="AE">
          1973 2156 1444 124 callsubr
        </CharString>
        <CharString name="AEacute">
          1973 1553 -94 callsubr
          -29 callsubr
          247 -396 124 callsubr
        </CharString>
        <CharString name="AEmacron">
          1973 1190 97 callsubr
          929 -323 124 callsubr
        </CharString>
        <CharString name="Aacute">
          1455 1099 -94 callsubr
          -57 callsubr
          -126 -1552 -105 callsubr
        </CharString>
        <CharString name="Abreve">
          1455 1062 -12 callsubr
          268 -1273 -105 callsubr
        </CharString>
        <CharString name="Abreveacute">
          1455 1431 -76 callgsubr
          283 -257 rmoveto
          209 154 30 callsubr
          -38 116 -90 209 hhcurveto
          309 -1245 -105 callsubr
        </CharString>
        <CharString name="Abrevecyrillic">
          1455 1024 1565 -107 callgsubr
          -82 -50 callgsubr
          -26 155 callsubr
          306 -1277 -105 callsubr
        </CharString>
        <CharString name="Abrevedotbelow">
          1455 1062 -12 callsubr
          268 -1273 rmoveto
          -38 callsubr
          26 callsubr
          -312 -709 -77 callsubr
        </CharString>
        <CharString name="Abrevegrave">
          1455 757 1878 rmoveto
          656 -88 13 63 -633 194 rlineto
          228 -514 rmoveto
          209 154 30 callsubr
          -38 116 -90 209 hhcurveto
          309 -1245 -105 callsubr
        </CharString>
        <CharString name="Abrevehookabove">
          1455 1114 -29 callgsubr
          61 -39 165 23 94 46 17 82 rlinecurve
          80 16 -82 52 -125 hhcurveto
          -93 -500 rmoveto
          209 154 30 callsubr
          -38 116 -90 209 hhcurveto
          309 -1245 -105 callsubr
        </CharString>
        <CharString name="Abrevetilde">
          1455 1219 1822 rmoveto
          127 92 73 131 25 hvcurveto
          -91 hlineto
          -47 -10 -31 -21 -52 hhcurveto
          -31 -31 -36 callgsubr
          56 hhcurveto
          -198 -289 rmoveto
          209 154 30 callsubr
          -38 116 -90 209 hhcurveto
          309 -1245 -105 callsubr
        </CharString>
        <CharString name="Acaron">
          1455 1312 -90 callsubr
          -85 callsubr
          -87 callsubr
          -76 -1563 -105 callsubr
        </CharString>
        <CharString name="Acircumflex">
          1455 807 35 callsubr
          610 -1246 -105 callsubr
        </CharString>
        <CharString name="Acircumflexacute">
          1455 1427 -64 callgsubr
          -33 callsubr
          -54 0 -348 -179 rlineto
          640 -1275 -105 callsubr
        </CharString>
        <CharString name="Acircumflexdotbelow">
          1455 807 35 callsubr
          610 -1246 rmoveto
          -38 callsubr
          26 callsubr
          -312 -709 -77 callsubr
        </CharString>
        <CharString name="Acircumflexgrave">
          1455 753 -105 callgsubr
          -46 callgsubr
          -33 callsubr
          -54 0 -348 -179 rlineto
          640 -1275 -105 callsubr
        </CharString>
        <CharString name="Acircumflexhookabove">
          1455 1402 -5 callgsubr
          90 47 17 38 callgsubr
          -54 0 -348 -179 rlineto
          640 -1275 -105 callsubr
        </CharString>
        <CharString name="Acircumflextilde">
          1455 1214 53 callgsubr
          -37 11 rlineto
          15 -49 -49 11 -55 hhcurveto
          -127 -93 -72 -131 -25 hvcurveto
          91 hlineto
          47 11 31 21 52 hhcurveto
          30 165 callsubr
          -33 callsubr
          -54 0 -348 -179 rlineto
          640 -1275 -105 callsubr
        </CharString>
        <CharString name="Acyrillic">
          1455 1330 288 -105 callsubr
        </CharString>
        <CharString name="Adblgrave">
          1455 887 145 callsubr
          126 -1243 -105 callsubr
        </CharString>
        <CharString name="Adieresis">
          1455 873 -104 callgsubr
          -59 callsubr
          350 hmoveto
          121 callsubr
          -59 callsubr
          107 -1264 -105 callsubr
        </CharString>
        <CharString name="Adieresismacron">
          1455 751 1851 rmoveto
          676 hlineto
          28 134 rlineto
          -675 hlineto
          71 -435 rmoveto
          68 63 42 61 13 hvcurveto
          60 12 -69 callsubr
          -13 hvcurveto
          -61 -13 45 -42 67 hhcurveto
          369 hmoveto
          67 63 42 61 13 hvcurveto
          60 13 -45 42 -67 hhcurveto
          -14 hlineto
          -67 -64 -42 -60 -13 hvcurveto
          -61 -12 45 -42 67 hhcurveto
          138 -1262 -105 callsubr
        </CharString>
        <CharString name="Adotaccent">
          1455 1048 -88 callsubr
          -86 callsubr
          282 -1248 -105 callsubr
        </CharString>
        <CharString name="Adotbelow">
          1455 1330 288 rmoveto
          -38 callsubr
          26 callsubr
          -312 -709 -77 callsubr
        </CharString>
        <CharString name="Adotmacron">
          1455 745 1824 118 callsubr
          85 callgsubr
          -70 hhcurveto
          -71 -54 -45 -65 1 hvcurveto
          -64 2 56 -45 72 hhcurveto
          280 -1255 -105 callsubr
        </CharString>
        <CharString name="Agrave">
          1455 1048 39 callsubr
          208 -1244 -105 callsubr
        </CharString>
        <CharString name="Ahookabove">
          1455 1096 1868 rmoveto
          -104 226 callsubr
          20 callgsubr
          -105 vhcurveto
          234 -1580 -105 callsubr
        </CharString>
        <CharString name="Ainvertedbreve">
          1455 1064 10 callsubr
          48 callsubr
          90 54 138 -15 callgsubr
          266 -1618 -105 callsubr
        </CharString>
        <CharString name="Alphagreek">
          1455 1330 288 -105 callsubr
        </CharString>
        <CharString name="Alphatonosgreek">
          1455 1330 288 rmoveto
          -38 callsubr
          15 -151 -28 -41 -138 -21 rlinecurve
          -16 -78 717 0 16 78 -93 16 -31 28 -21 166 rlinecurve
          -962 1156 94 callgsubr
          -192 -869 rmoveto
          305 589 57 -589 rlineto
          endchar
        </CharString>
        <CharString name="Amacron">
          1455 737 -35 callsubr
          556 -1479 -105 callsubr
        </CharString>
        <CharString name="Aogonek">
          1455 1069 -482 rmoveto
          97 81 41 69 38 hvcurveto
          16 74 rlineto
          -13 -15 -22 -10 -26 hhcurveto
          -67 -48 80 108 50 16 48 27 35 hvcurveto
          293 hlineto
          16 78 -93 16 -31 28 -21 166 rlinecurve
          -38 callsubr
          rlineto
          15 -151 -28 -41 -138 -21 -16 -78 rcurveline
          326 hlineto
          -160 -82 -78 -107 -108 vvcurveto
          -108 100 -77 139 vhcurveto
          -549 1057 rmoveto
          305 589 57 -589 rlineto
          endchar
        </CharString>
        <CharString name="Aring">
          1455 787 1727 rmoveto
          -113 113 -70 142 188 110 90 110 112 -112 71 -142 -188 82 callgsubr
          24 -30 -54 -86 -43 -71 -54 -38 -24 30 55 vhcurveto
          346 -1412 -105 callsubr
        </CharString>
        <CharString name="Aringacute">
          1455 1428 1861 4 callsubr
          320 -248 rmoveto
          154 57 callgsubr
          -112 -44 -67 -15 34 callgsubr
          8 30 61 callgsubr
          285 -1290 -105 callsubr
        </CharString>
        <CharString name="Aringbelow">
          1455 1330 288 rmoveto
          -38 callsubr
          26 callsubr
          -628 -867 -19 callgsubr
          -121 -91 -107 3 hvcurveto
          219 -29 rmoveto
          85 -2 46 69 60 hhcurveto
          42 48 callgsubr
        </CharString>
        <CharString name="Atilde">
          1455 1163 135 callsubr
          23 -11 -19 29 hvcurveto
          -100 callgsubr
          167 -1274 -105 callsubr
        </CharString>
        <CharString name="B">
          1490 1509 449 72 callsubr
        </CharString>
        <CharString name="Bdotaccent">
          1490 1040 -88 callsubr
          -86 callsubr
          469 -1087 72 callsubr
        </CharString>
        <CharString name="Bdotbelow">
          199 callsubr
          -381 -589 -82 callsubr
          -58 callsubr
        </CharString>
        <CharString name="Becyrillic">
          1471 1502 469 rmoveto
          235 -213 134 -338 vhcurveto
          -175 hlineto
          108 515 205 -7 264 -10 50 -55 9 -227 rlinecurve
          73 hlineto
          70 390 -1201 0 -17 -78 rlineto
          117 -21 18 -18 -19 -91 -219 -1028 rcurveline
          -19 -90 -25 -19 -126 -21 -17 -78 rcurveline
          721 hlineto
          430 304 172 297 hvcurveto
          -425 21 rmoveto
          -218 -138 -167 -250 -11 vhcurveto
          -72 -3 139 654 84 -1 rlineto
          146 -3 91 -81 -170 vvcurveto
          endchar
        </CharString>
        <CharString name="Betagreek">
          1490 1509 449 72 callsubr
        </CharString>
        <CharString name="Blinebelow">
          199 callsubr
          -713 -829 -47 callsubr
        </CharString>
        <CharString name="C">
          1412 669 531 -51 callsubr
          -7 callsubr
        </CharString>
        <CharString name="Cacute">
          1412 1218 -94 callsubr
          -57 callsubr
          -906 -1309 -51 callsubr
          -7 callsubr
        </CharString>
        <CharString name="Ccaron">
          1412 1431 -90 callsubr
          -185 135 -92 0 134 -87 callsubr
          -856 -1320 -51 callsubr
          -7 callsubr
        </CharString>
        <CharString name="Ccedilla">
          1412 669 531 -51 callsubr
          -4 -423 287 -218 331 -33 rrcurveto
          -125 -131 43 callsubr
          -38 -24 -65 -51 -43 16 19 -27 hvcurveto
          -17 -71 rlineto
          -55 46 79 -37 94 hhcurveto
          54 callsubr
          -92 72 -135 1 hvcurveto
          61 61 rlineto
          176 143 callsubr
        </CharString>
        <CharString name="Ccedillaacute">
          1412 1218 -94 callsubr
          -57 callsubr
          -906 -1309 -51 callsubr
          -4 -423 287 -218 331 -33 rrcurveto
          -125 -131 43 callsubr
          -38 -24 -65 -51 -43 16 19 -27 hvcurveto
          -17 -71 rlineto
          -55 46 79 -37 94 hhcurveto
          54 callsubr
          -92 72 -135 1 hvcurveto
          61 61 rlineto
          176 143 callsubr
        </CharString>
        <CharString name="Ccircumflex">
          1412 926 -95 callgsubr
          183 -136 84 -67 callgsubr
          -170 -1003 -51 callsubr
          -7 callsubr
        </CharString>
        <CharString name="Cdotaccent">
          1412 1167 -88 callsubr
          -86 callsubr
          -498 -1005 -51 callsubr
          -7 callsubr
        </CharString>
        <CharString name="Checyrillic">
          1622 1072 207 rmoveto
          -19 -91 -30 -18 -141 -20 rrcurveto
          -17 -78 709 0 callgsubr
          -680 0 -17 -78 rlineto
          109 -19 18 -18 -20 -93 -106 -499 rcurveline
          -24 -70 -68 -15 -86 hhcurveto
          -146 -68 95 204 44 hvcurveto
          52 243 20 87 19 24 112 15 rlinecurve
          16 78 -669 0 -17 -78 rlineto
          115 -17 15 -21 -19 -88 -44 -210 rcurveline
          -311 -67 154 -151 347 hhcurveto
          144 101 30 36 93 hvcurveto
          endchar
        </CharString>
        <CharString name="Chigreek">
          1415 341 311 17 callsubr
        </CharString>
        <CharString name="D">
          1637 5 callsubr
          endchar
        </CharString>
        <CharString name="Dbar">
          1637 196 698 rmoveto
          140 hlineto
          -105 -490 rlineto
          -19 -90 -90 callgsubr
          603 hlineto
          606 447 319 500 402 -314 223 -445 hvcurveto
          -590 -106 callgsubr
          -91 -96 -454 rcurveline
          -140 hlineto
          1040 114 rmoveto
          -403 -215 -381 -374 -20 vhcurveto
          -52 -2 130 608 210 0 18 84 -210 0 122 573 45 -2 rlineto
          208 -13 118 -187 -257 vvcurveto
          endchar
        </CharString>
        <CharString name="Dcaron">
          1637 1331 -90 callsubr
          -68 callgsubr
          279 -1032 105 callsubr
          endchar
        </CharString>
        <CharString name="Dcircumflexbelow">
          1637 5 callsubr
          -861 -1358 -83 callsubr
          -128 -52 callgsubr
        </CharString>
        <CharString name="Dcommaaccent">
          1637 5 callsubr
          -642 -1366 -55 callsubr
          -61 callsubr
          150 callsubr
        </CharString>
        <CharString name="Ddotaccent">
          1637 1067 1536 rmoveto
          89 72 70 85 82 -63 64 -84 -98 callgsubr
          637 -717 105 callsubr
          endchar
        </CharString>
        <CharString name="Ddotbelow">
          1637 5 callsubr
          -596 -1030 -77 callsubr
        </CharString>
        <CharString name="Decyrillic">
          1514 644 885 rmoveto
          27 99 58 242 28 117 rrcurveto
          428 hlineto
          -265 -1242 rlineto
          -602 hlineto
          129 153 101 236 96 395 rrcurveto
          877 -784 rmoveto
          -193 hlineto
          242 1135 19 91 25 19 123 20 rlinecurve
          16 78 -1288 0 -16 -78 rlineto
          157 -18 30 -44 -34 -152 -17 -75 -27 -108 -25 -84 -95 -382 -109 -254 -144 -148 rrcurveto
          -140 hlineto
          -101 -434 rlineto
          77 hlineto
          258 121 73 75 247 hhcurveto
          597 hlineto
          245 51 -69 -264 9 hvcurveto
          77 hlineto
          endchar
        </CharString>
        <CharString name="Deltagreek">
          1393 48 hmoveto
          1258 hlineto
          14 68 -192 1378 -299 0 -767 -1377 rlineto
          135 26 rmoveto
          570 1056 116 -1056 rlineto
          endchar
        </CharString>
        <CharString name="Djecyrillic">
          1804 1821 436 rmoveto
          262 -185 136 -280 -131 -97 -23 -31 -85 vhcurveto
          55 callgsubr
          72 413 -1255 0 -100 -413 rlineto
          71 hlineto
          -37 callgsubr
          100 468 rcurveline
          20 61 59 11 74 hhcurveto
          131 73 -77 -152 -308 -153 -326 -298 -161 hvcurveto
          23 -66 rlineto
          520 138 310 298 384 vvcurveto
          endchar
        </CharString>
        <CharString name="Dlinebelow">
          1637 5 callsubr
          -928 -1270 110 callsubr
        </CharString>
        <CharString name="Dzecyrillic">
          1207 608 -27 66 callsubr
          endchar
        </CharString>
        <CharString name="Dzhecyrillic">
          1648 161 callsubr
          538 hlineto
          124 18 -38 -288 -11 hvcurveto
          77 hlineto
          288 111 34 38 124 hhcurveto
          539 hlineto
          16 78 -113 20 -18 19 19 91 rlinecurve
          219 1028 19 91 24 19 124 20 rlinecurve
          17 78 -681 0 -16 -78 108 -19 207 callsubr
        </CharString>
        <CharString name="E">
          1293 1489 1444 -99 callsubr
        </CharString>
        <CharString name="Eacute">
          1293 1059 -94 callsubr
          -57 callsubr
          73 -396 -99 callsubr
        </CharString>
        <CharString name="Ebreve">
          1293 1022 -12 callsubr
          467 -117 -99 callsubr
        </CharString>
        <CharString name="Ecaron">
          1293 1272 -90 callsubr
          -85 callsubr
          -87 callsubr
          123 -407 -99 callsubr
        </CharString>
        <CharString name="Ecedilla">
          1293 607 -471 rmoveto
          173 107 82 118 110 -92 72 -134 1 hvcurveto
          81 82 1 6 488 0 -52 callsubr
          72 413 -1130 0 -46 callsubr
          -79 callsubr
          600 0 -147 -53 callgsubr
          63 34 -26 -41 -42 -38 -24 -64 -51 95 callsubr
        </CharString>
        <CharString name="Ecedillabreve">
          1293 1022 -12 callsubr
          -415 -2032 rmoveto
          173 107 82 118 110 -92 72 -134 1 hvcurveto
          81 82 1 6 488 0 -52 callsubr
          72 413 -1130 0 -46 callsubr
          -79 callsubr
          600 0 -147 -53 callgsubr
          63 34 -26 -41 -42 -38 -24 -64 -51 95 callsubr
        </CharString>
        <CharString name="Ecircumflex">
          1293 767 35 callsubr
          809 -90 -99 callsubr
        </CharString>
        <CharString name="Ecircumflexacute">
          1293 1387 -64 callgsubr
          83 callsubr
          839 -119 -99 callsubr
        </CharString>
        <CharString name="Ecircumflexbelow">
          1293 1489 1444 rmoveto
          -1130 hlineto
          -46 callsubr
          -79 callsubr
          1179 0 -52 callsubr
          -1054 -1493 -83 callsubr
          101 callsubr
        </CharString>
        <CharString name="Ecircumflexdotbelow">
          1293 767 35 callsubr
          809 -90 rmoveto
          -1130 hlineto
          -46 callsubr
          -79 callsubr
          1179 0 -52 callsubr
          -789 -1165 -82 callsubr
          -58 callsubr
        </CharString>
        <CharString name="Ecircumflexgrave">
          1293 713 -105 callgsubr
          -46 callgsubr
          83 callsubr
          839 -119 -99 callsubr
        </CharString>
        <CharString name="Ecircumflexhookabove">
          1293 1361 1977 rmoveto
          -89 -82 -35 -47 -54 hvcurveto
          -10 76 callgsubr
          -44 -28 -84 -15 rrcurveto
          58 -38 158 22 89 47 18 82 rlinecurve
          79 17 -78 52 -121 hhcurveto
          -725 -480 rmoveto
          83 callsubr
          839 -119 -99 callsubr
        </CharString>
        <CharString name="Ecircumflextilde">
          1293 1174 1803 rmoveto
          128 92 72 131 25 hvcurveto
          -91 hlineto
          -47 -11 -31 -21 -52 hhcurveto
          -30 -31 8 11 -39 hvcurveto
          91 callgsubr
          -26 hvcurveto
          92 hlineto
          47 11 30 21 52 hhcurveto
          31 165 callsubr
          83 callsubr
          839 -119 -99 callsubr
        </CharString>
        <CharString name="Ecyrillic">
          1418 670 531 rmoveto
          51 3 51 6 51 vhcurveto
          535 -12 27 125 -545 -12 rlineto
          316 64 179 262 230 hhcurveto
          176 100 -140 -257 9 hvcurveto
          70 -3 67 384 rlineto
          64 -96 -186 59 -212 hhcurveto
          -496 -363 -323 -495 -5 hvcurveto
          -462 -4 341 -217 367 hhcurveto
          178 152 37 61 90 hvcurveto
          85 398 -72 -1 rlineto
          -233 -85 -154 -156 -159 hhcurveto
          -182 -120 176 276 hvcurveto
          endchar
        </CharString>
        <CharString name="Edblgrave">
          1293 847 145 callsubr
          325 -87 -99 callsubr
        </CharString>
        <CharString name="Edieresis">
          1293 833 -104 callgsubr
          -79 -63 225 callsubr
          63 76 1 hvcurveto
          73 -55 57 -74 -59 callsubr
          306 -108 -99 callsubr
        </CharString>
        <CharString name="Edotaccent">
          1293 1008 -88 callsubr
          -86 callsubr
          481 -92 -99 callsubr
        </CharString>
        <CharString name="Edotbelow">
          1293 1489 1444 rmoveto
          -1130 hlineto
          -46 callsubr
          -79 callsubr
          1179 0 -52 callsubr
          -789 -1165 -82 callsubr
          -58 callsubr
        </CharString>
        <CharString name="Efcyrillic">
          2052 181 670 rmoveto
          -264 223 -158 472 -23 vhcurveto
          -11 -50 -17 -83 -23 -22 -131 -17 rlinecurve
          -16 -77 680 0 16 77 rlineto
          -120 18 -17 20 17 84 11 49 rcurveline
          639 26 267 228 296 vvcurveto
          264 -224 158 -472 23 vhcurveto
          11 50 17 83 24 22 130 17 rlinecurve
          16 77 -680 0 -17 -77 rlineto
          122 -18 16 -20 -18 -84 -10 -49 rcurveline
          -638 -27 -267 -228 -295 vvcurveto
          443 -20 rmoveto
          243 126 186 314 38 vhcurveto
          -166 -787 rlineto
          -199 35 -75 121 164 vvcurveto
          1105 144 rmoveto
          -244 -127 -185 -316 -39 vhcurveto
          167 788 rlineto
          200 -35 76 -122 -163 vvcurveto
          endchar
        </CharString>
        <CharString name="Egrave">
          1293 1008 39 callsubr
          407 -88 -99 callsubr
        </CharString>
        <CharString name="Ehookabove">
          1293 1055 1868 rmoveto
          -103 226 callsubr
          20 callgsubr
          -106 vhcurveto
          434 -424 -99 callsubr
        </CharString>
        <CharString name="Einvertedbreve">
          1293 1024 10 callsubr
          48 callsubr
          90 54 138 -15 callgsubr
          465 -462 -99 callsubr
        </CharString>
        <CharString name="Elcyrillic">
          1550 227 -27 rmoveto
          231 105 269 550 137 hvcurveto
          56 206 50 210 31 136 rrcurveto
          405 hlineto
          -242 -1136 -19 -92 -23 -19 -119 -19 rlinecurve
          -17 -78 680 0 17 78 -113 18 -19 19 20 93 rlinecurve
          103 callgsubr
          -1265 218 callsubr
          -108 73 -76 123 hvcurveto
          endchar
        </CharString>
        <CharString name="Emacron">
          1293 697 -35 callsubr
          755 -323 -99 callsubr
        </CharString>
        <CharString name="Emacronacute">
          1293 1391 1878 4 callsubr
          -44 -205 117 callsubr
          806 -276 -99 callsubr
        </CharString>
        <CharString name="Emacrongrave">
          1293 717 1878 119 callsubr
          -98 -462 117 callsubr
          806 -276 -99 callsubr
        </CharString>
        <CharString name="Emcyrillic">
          1881 961 1444 19 callsubr
        </CharString>
        <CharString name="Encyrillic">
          6 callsubr
          -17 callsubr
          103 callsubr
          endchar
        </CharString>
        <CharString name="Eogonek">
          1293 948 72 callgsubr
          -27 hhcurveto
          -66 -48 80 108 50 16 48 27 35 hvcurveto
          186 hlineto
          -52 callsubr
          72 413 -1130 0 -17 -78 rlineto
          114 -20 17 -19 63 callgsubr
          894 hlineto
          -159 227 callsubr
        </CharString>
        <CharString name="Epsilongreek">
          1293 1489 1444 -99 callsubr
        </CharString>
        <CharString name="Epsilontonosgreek">
          1725 1921 1444 rmoveto
          -1130 hlineto
          -17 -78 114 -20 18 -19 -20 -91 rlinecurve
          -219 -1028 -19 -90 -23 -20 -125 -20 rlinecurve
          -16 -78 1180 0 106 444 rlineto
          -71 hlineto
          -111 -264 -103 -71 -256 -12 rrcurveto
          -178 -8 127 603 154 -2 107 -4 22 223 callsubr
          -63 -158 -40 -44 -112 -4 rrcurveto
          -155 -3 121 573 166 -8 235 -12 45 -59 14 -245 rlinecurve
          71 hlineto
          -1499 413 -5 callsubr
          endchar
        </CharString>
        <CharString name="Ercyrillic">
          1458 754 hmoveto
          20 callsubr
        </CharString>
        <CharString name="Ereversedcyrillic">
          1459 410 1357 rmoveto
          -83 -357 rlineto
          72 hlineto
          246 95 145 123 161 hhcurveto
          207 91 -215 -287 -30 -1 -30 -2 -29 hvcurveto
          -535 13 -26 -126 549 10 rlineto
          -316 -48 -168 -284 -261 hhcurveto
          -204 -100 162 205 -2 hvcurveto
          -72 hlineto
          -53 -351 rlineto
          -61 73 178 -57 200 hhcurveto
          558 354 342 468 439 -326 249 -391 -154 -159 -40 -74 -98 hvcurveto
          endchar
        </CharString>
        <CharString name="Escyrillic">
          1412 669 531 -51 callsubr
          -7 callsubr
        </CharString>
        <CharString name="Etagreek">
          6 callsubr
          -17 callsubr
          103 callsubr
          endchar
        </CharString>
        <CharString name="Etatonosgreek">
          2094 1074 104 callgsubr
          -24 -20 -118 -18 rlinecurve
          -16 -78 680 0 16 78 -114 19 -17 19 19 110 callgsubr
          17 78 -682 0 -16 -78 220 callsubr
          -218 -1026 -20 -90 -24 -21 -124 -20 rlinecurve
          -17 -78 103 callsubr
          -724 1236 -5 callsubr
          endchar
        </CharString>
        <CharString name="Etilde">
          1293 1123 135 callsubr
          23 -11 -19 29 hvcurveto
          -100 callgsubr
          366 -118 -99 callsubr
        </CharString>
        <CharString name="Etildebelow">
          1293 1489 1444 rmoveto
          -1130 hlineto
          -46 callsubr
          -79 callsubr
          1179 0 -52 callsubr
          -676 -1468 41 callsubr
          89 callsubr
          -103 -1 -85 -68 -31 -54 callgsubr
          30 27 42 callsubr
        </CharString>
        <CharString name="F">
          1237 1467 1444 rmoveto
          -1106 hlineto
          -16 -78 115 -20 16 -27 callsubr
          -90 -23 -20 -125 -20 194 callsubr
        </CharString>
        <CharString name="Fdotaccent">
          1237 1028 -88 callsubr
          -86 callsubr
          439 -92 rmoveto
          -1106 hlineto
          -16 -78 115 -20 16 -27 callsubr
          -90 -23 -20 -125 -20 194 callsubr
        </CharString>
        <CharString name="G">
          1576 232 652 -39 callsubr
        </CharString>
        <CharString name="Gacute">
          1576 1223 -94 callsubr
          -57 callsubr
          -1348 -1188 -39 callsubr
        </CharString>
        <CharString name="Gammagreek">
          1225 1478 1444 rmoveto
          -1118 hlineto
          -17 -78 118 -21 17 -18 -19 -91 rlinecurve
          -219 -1028 -19 -90 -24 -19 -127 -21 rlinecurve
          -17 -78 711 0 17 78 -131 21 -21 19 19 89 rlinecurve
          243 1148 152 -7 245 -11 44 -54 5 -229 rlinecurve
          71 hlineto
          endchar
        </CharString>
        <CharString name="Gbreve">
          1576 1186 -12 callsubr
          -954 -909 -39 callsubr
        </CharString>
        <CharString name="Gcaron">
          1576 1436 -90 callsubr
          -85 callsubr
          -87 callsubr
          -1298 -1199 -39 callsubr
        </CharString>
        <CharString name="Gcircumflex">
          1576 931 35 callsubr
          -612 -882 -39 callsubr
        </CharString>
        <CharString name="Gcommaaccent">
          1576 232 652 rmoveto
          -460 -4 345 -218 359 hhcurveto
          169 218 42 87 126 hvcurveto
          88 410 18 85 22 23 111 18 rlinecurve
          17 77 -614 0 -17 -77 rlineto
          117 -18 13 -21 -17 -86 -83 -402 rcurveline
          -21 -27 -50 -11 -51 hhcurveto
          -179 -124 157 294 417 209 415 292 179 101 -140 -257 8 hvcurveto
          71 -3 66 384 rlineto
          65 -96 -187 58 -213 hhcurveto
          -498 -364 -323 -495 -5 hvcurveto
          570 -1122 rmoveto
          181 94 76 117 112 -61 callsubr
          -1 callsubr
          -45 -42 -4 callsubr
        </CharString>
        <CharString name="Gdotaccent">
          1576 1172 -88 callsubr
          -86 callsubr
          -940 -884 -39 callsubr
        </CharString>
        <CharString name="Geacutecyrillic">
          1216 1021 -94 callsubr
          -29 callsubr
          95 -396 rmoveto
          -1115 hlineto
          -16 -78 113 -20 18 -27 callsubr
          -40 callsubr
          -34 callgsubr
        </CharString>
        <CharString name="Gecyrillic">
          1216 1472 1444 rmoveto
          -1115 hlineto
          -16 -78 113 -20 18 -27 callsubr
          -40 callsubr
          -34 callgsubr
        </CharString>
        <CharString name="Germandbls">
          1599 605 hmoveto
          283 1355 138 -7 rlineto
          205 -9 81 -93 -141 vvcurveto
          -139 -95 -87 -152 -13 vhcurveto
          -57 -267 rlineto
          163 -70 81 -113 -140 vvcurveto
          -129 -74 -75 -107 -118 -81 107 199 7 vhcurveto
          -72 hlineto
          -64 -313 rlineto
          -52 66 131 -39 143 hhcurveto
          284 241 160 288 199 -100 157 -178 88 hvcurveto
          194 15 154 92 173 vvcurveto
          189 -174 109 -348 vhcurveto
          -796 hlineto
          -17 -78 rlineto
          115 -20 19 -21 -20 -89 -216 -1028 rcurveline
          -18 -91 -24 -19 -125 -20 -16 -78 rcurveline
          endchar
        </CharString>
        <CharString name="Geupturncyrillic">
          1198 1431 1348 rmoveto
          105 451 rlineto
          -77 hlineto
          -276 -126 -87 -79 -246 hhcurveto
          -643 hlineto
          -16 -78 113 -20 18 -19 -20 -91 rlinecurve
          -218 -1028 -19 -40 callsubr
          -17 -78 711 0 17 78 rlineto
          -119 21 -37 19 19 89 243 1141 rcurveline
          endchar
        </CharString>
        <CharString name="Gmacron">
          1576 861 -35 callsubr
          -666 -1115 -39 callsubr
        </CharString>
        <CharString name="H">
          6 callsubr
          -17 callsubr
          103 callsubr
          endchar
        </CharString>
        <CharString name="Hacyrillic">
          1415 341 311 17 callsubr
        </CharString>
        <CharString name="Hardsigncyrillic">
          1697 1768 499 rmoveto
          242 -216 30 callgsubr
          17 78 -951 0 -92 -386 rlineto
          73 hlineto
          108 242 59 41 203 10 rrcurveto
          20 1 -243 -1145 rlineto
          -19 -89 -24 -20 -127 -20 -17 -78 rcurveline
          721 hlineto
          437 300 187 312 hvcurveto
          -426 25 rmoveto
          -236 -139 -183 -251 -11 vhcurveto
          -73 -3 147 693 78 -2 rlineto
          148 -4 90 -82 -172 vvcurveto
          endchar
        </CharString>
        <CharString name="Hbar">
          6 callsubr
          -23 -20 -118 -18 rlinecurve
          -17 -78 680 0 16 78 -114 19 -17 18 19 93 rlinecurve
          174 817 139 0 19 84 -140 0 27 127 19 92 24 19 124 19 rlinecurve
          17 78 -680 0 -16 -78 109 -18 16 -19 -20 -93 rlinecurve
          -27 -127 -470 0 27 127 19 90 23 20 119 20 rlinecurve
          16 78 -679 0 -46 callsubr
          -27 -127 -140 0 -18 -84 140 0 -174 -817 -19 -40 callsubr
          -16 -78 679 0 17 78 -109 19 -16 20 19 91 rlinecurve
          123 577 rmoveto
          51 240 470 0 -51 -240 rlineto
          endchar
        </CharString>
        <CharString name="Hbrevebelow">
          6 callsubr
          -17 callsubr
          103 callsubr
          130 -668 rmoveto
          213 56 callgsubr
          -12 callgsubr
          170 hhcurveto
          endchar
        </CharString>
        <CharString name="Hcaron">
          1658 1447 1850 14 callgsubr
          -903 -1642 rmoveto
          37 callsubr
          103 callsubr
          endchar
        </CharString>
        <CharString name="Hcedilla">
          1658 292 -471 rmoveto
          173 107 82 118 110 -92 72 -135 1 hvcurveto
          82 84 1 4 300 0 16 78 -108 19 -17 20 19 91 rlinecurve
          37 callsubr
          289 0 -146 -53 callgsubr
          63 34 -26 -41 -42 -38 -24 -64 -51 95 callsubr
        </CharString>
        <CharString name="Hcircumflex">
          1658 942 1534 15 callgsubr
          -217 -1326 rmoveto
          37 callsubr
          103 callsubr
          endchar
        </CharString>
        <CharString name="Hdieresis">
          1658 1008 1552 rmoveto
          78 63 62 77 1 hvcurveto
          73 -55 57 -74 -59 callsubr
          350 hmoveto
          78 63 62 77 1 hvcurveto
          73 -55 57 -74 -59 callsubr
          -720 -1344 rmoveto
          37 callsubr
          103 callsubr
          endchar
        </CharString>
        <CharString name="Hdotaccent">
          1658 1183 1535 rmoveto
          -93 callgsubr
          -90 -86 callsubr
          -545 -1327 rmoveto
          37 callsubr
          103 callsubr
          endchar
        </CharString>
        <CharString name="Hdotbelow">
          6 callsubr
          -17 callsubr
          103 callsubr
          137 -342 -82 callsubr
          -58 callsubr
        </CharString>
        <CharString name="I">
          782 639 208 -95 callsubr
        </CharString>
        <CharString name="IAcyrillic">
          1507 331 983 rmoveto
          -152 89 -99 150 -40 vhcurveto
          -263 -335 -126 -158 -89 -97 -73 -28 rlinecurve
          -16 -74 455 0 474 624 rlineto
          5 6 -1 5 hhcurveto
          99 hlineto
          -88 -415 -20 -92 -24 -19 -119 -19 rlinecurve
          -16 -78 680 0 17 78 rlineto
          -114 19 -17 18 19 93 219 1028 rcurveline
          19 92 24 19 124 19 17 78 rcurveline
          -714 hlineto
          -478 -245 -181 -280 hvcurveto
          413 -20 rmoveto
          209 129 168 254 10 vhcurveto
          74 3 -135 -637 -85 2 rlineto
          -147 3 -90 91 151 vvcurveto
          endchar
        </CharString>
        <CharString name="IJ">
          1570 1437 277 -16 callsubr
          -59 callgsubr
          -798 -69 -95 callsubr
        </CharString>
        <CharString name="IJacute">
          1570 795 1841 rmoveto
          -184 -306 -56 callsubr
          417 -1 rmoveto
          -184 -306 -57 callsubr
          -488 -1563 -16 callsubr
          -59 callgsubr
          -798 -69 -95 callsubr
        </CharString>
        <CharString name="IUcyrillic">
          2346 47 hmoveto
          680 hlineto
          17 78 rlineto
          -108 19 -18 20 19 91 102 480 rcurveline
          180 hlineto
          -1 -19 -1 -19 -20 vvcurveto
          -362 236 -294 436 497 340 365 475 362 -236 295 -436 -1 vhcurveto
          -441 -318 -288 -397 -65 hvcurveto
          -170 hlineto
          96 451 19 91 23 19 120 20 rlinecurve
          16 78 -680 0 -17 -78 73 callgsubr
          1522 -2 rmoveto
          -154 -74 160 250 368 139 515 261 154 73 -161 -250 -368 -138 -514 -261 hvcurveto
          endchar
        </CharString>
        <CharString name="Iacute">
          782 795 1841 rmoveto
          -184 -306 -56 callsubr
          -512 -1633 -95 callsubr
        </CharString>
        <CharString name="Ibreve">
          782 758 1562 -82 callgsubr
          -54 -138 hhcurveto
          -114 -79 54 73 6 0 5 1 5 hvcurveto
          -76 hlineto
          -10 -26 -6 -34 -34 vvcurveto
          -138 109 -112 167 vhcurveto
          -119 -1354 -95 callsubr
        </CharString>
        <CharString name="Icaron">
          782 1008 -90 callsubr
          -85 callsubr
          -304 232 0 256 304 rlineto
          -463 -1643 -95 callsubr
        </CharString>
        <CharString name="Icircumflex">
          782 503 1535 rmoveto
          250 135 184 -135 84 0 -133 304 -216 0 -257 -304 rlineto
          224 -1327 -95 callsubr
        </CharString>
        <CharString name="Icyrillic">
          782 639 208 -95 callsubr
        </CharString>
        <CharString name="Idblgrave">
          782 583 1836 152 callsubr
          -261 -1324 -95 callsubr
        </CharString>
        <CharString name="Idieresis">
          782 569 1553 rmoveto
          77 -49 callsubr
          170 callsubr
          -63 -62 -78 -1 hvcurveto
          -72 55 -57 75 vhcurveto
          -280 -1345 -95 callsubr
        </CharString>
        <CharString name="Idieresisacute">
          782 1127 1878 4 callsubr
          113 -239 rmoveto
          67 64 42 60 12 90 callsubr
          44 -42 68 hhcurveto
          369 hmoveto
          67 63 42 23 callgsubr
          68 hhcurveto
          -249 -1343 -95 callsubr
        </CharString>
        <CharString name="Idotaccent">
          782 744 1537 rmoveto
          89 72 70 85 82 -63 63 -84 -90 -72 -69 -87 -81 63 -63 85 hvcurveto
          -105 -1329 -95 callsubr
        </CharString>
        <CharString name="Idotbelow">
          782 639 208 rmoveto
          34 callsubr
          60 callsubr
          -79 callsubr
          102 callsubr
          -300 -342 -82 callsubr
          90 73 69 88 80 -64 64 -85 hvcurveto
          endchar
        </CharString>
        <CharString name="Iecyrillic">
          1293 1489 1444 -99 callsubr
        </CharString>
        <CharString name="Igrave">
          782 744 1838 rmoveto
          -336 -8 hlineto
          334 -298 rlineto
          76 hlineto
          -179 -1324 -95 callsubr
        </CharString>
        <CharString name="Ihookabove">
          782 791 1869 rmoveto
          -103 -75 -38 -67 -46 hvcurveto
          -12 -55 rlineto
          17 26 44 13 46 hhcurveto
          66 -101 callgsubr
          80 hlineto
          180 52 82 62 87 vvcurveto
          86 -80 59 -106 vhcurveto
          -152 -1661 -95 callsubr
        </CharString>
        <CharString name="Iicyrillic">
          1671 47 hmoveto
          187 callsubr
        </CharString>
        <CharString name="Iinvertedbreve">
          782 760 10 callsubr
          17 callgsubr
          -6 -1 -4 hvcurveto
          76 hlineto
          10 26 6 34 34 vvcurveto
          138 -1 -107 112 -167 hhcurveto
          -121 -1698 -95 callsubr
        </CharString>
        <CharString name="Iishortcyrillic">
          1671 1174 1565 -107 callgsubr
          -83 -50 callgsubr
          -25 155 callsubr
          -1127 -1565 rmoveto
          187 callsubr
        </CharString>
        <CharString name="Imacron">
          782 433 1594 rmoveto
          594 hlineto
          37 174 rlineto
          -594 hlineto
          169 -1560 -95 callsubr
        </CharString>
        <CharString name="Iocyrillic">
          1293 833 -104 callgsubr
          -79 -63 225 callsubr
          63 76 1 hvcurveto
          73 -55 57 -74 -59 callsubr
          306 -108 -99 callsubr
        </CharString>
        <CharString name="Iogonek">
          782 356 -482 51 callgsubr
          80 108 50 16 48 28 35 hvcurveto
          281 hlineto
          16 78 -114 20 -17 19 20 91 rlinecurve
          34 callsubr
          rlineto
          114 -16 17 -23 63 callgsubr
          307 hlineto
          -160 227 callsubr
        </CharString>
        <CharString name="Iotadieresisgreek">
          782 569 1553 rmoveto
          77 -49 callsubr
          170 callsubr
          -63 -62 -78 -1 hvcurveto
          -72 55 -57 75 vhcurveto
          -280 -1345 -95 callsubr
        </CharString>
        <CharString name="Iotagreek">
          782 639 208 -95 callsubr
        </CharString>
        <CharString name="Iotatonosgreek">
          1229 1085 208 rmoveto
          219 1028 19 90 24 20 124 20 rlinecurve
          16 78 -686 0 -17 -78 115 -16 16 -23 -19 -91 rlinecurve
          -218 -1028 -19 -40 callsubr
          -17 -78 686 0 17 78 -115 20 -16 19 19 91 rlinecurve
          -735 1236 -5 callsubr
          endchar
        </CharString>
        <CharString name="Itilde">
          782 859 1563 rmoveto
          94 1 80 62 28 229 rrcurveto
          -78 hlineto
          -84 -17 -26 -29 -38 hhcurveto
          -27 -24 11 19 -29 hvcurveto
          -26 19 rlineto
          31 -46 -47 19 -57 hhcurveto
          -93 163 callsubr
          -100 callgsubr
          -220 -1355 -95 callsubr
        </CharString>
        <CharString name="Itildebelow">
          782 639 208 rmoveto
          34 callsubr
          60 callsubr
          -79 callsubr
          102 callsubr
          -187 -645 rmoveto
          103 1 86 68 31 249 rrcurveto
          -82 hlineto
          -95 -19 -29 -32 89 callsubr
          -102 -1 -86 -68 -31 -245 rrcurveto
          82 hlineto
          93 18 30 31 43 hhcurveto
          31 26 42 callsubr
        </CharString>
        <CharString name="J">
          788 655 277 -16 callsubr
          104 callsubr
        </CharString>
        <CharString name="Jacute">
          788 786 -94 callsubr
          -29 callsubr
          -487 -1563 -16 callsubr
          104 callsubr
        </CharString>
        <CharString name="Jcircumflex">
          788 494 -10 callsubr
          249 -1257 -16 callsubr
          104 callsubr
        </CharString>
        <CharString name="Jecyrillic">
          788 655 277 -16 callsubr
          104 callsubr
        </CharString>
        <CharString name="K">
          1495 639 208 -18 callsubr
        </CharString>
        <CharString name="Kaacutecyrillic">
          1495 1204 -94 callsubr
          -29 callsubr
          -921 -1632 -18 callsubr
        </CharString>
        <CharString name="Kacute">
          1495 1204 -94 callsubr
          -29 callsubr
          -921 -1632 -18 callsubr
        </CharString>
        <CharString name="Kacyrillic">
          1495 639 208 -18 callsubr
        </CharString>
        <CharString name="Kappagreek">
          1495 639 208 -18 callsubr
        </CharString>
        <CharString name="Kcaron">
          1495 1417 1851 rmoveto
          -252 -135 -68 callgsubr
          -871 -1643 -18 callsubr
        </CharString>
        <CharString name="Kcommaaccent">
          125 callsubr
          93 -678 -55 callsubr
          -88 67 -107 -85 -73 -34 -53 -41 hvcurveto
          -14 -61 rlineto
          6 17 29 4 27 hhcurveto
          50 43 -21 -40 -41 -40 -24 -67 -45 -78 callgsubr
        </CharString>
        <CharString name="Kdotbelow">
          125 callsubr
          138 -342 -82 callsubr
          -58 callsubr
        </CharString>
        <CharString name="Klinebelow">
          125 callsubr
          -194 -582 3 callsubr
        </CharString>
        <CharString name="L">
          -8 callsubr
          endchar
        </CharString>
        <CharString name="Lacute">
          1237 784 29 callsubr
          26 -1840 rmoveto
          -36 callsubr
          -15 callsubr
          endchar
        </CharString>
        <CharString name="Lambdagreek">
          1464 1330 280 rmoveto
          -138 1165 -306 0 -625 -1144 -99 -183 -35 -23 -107 -17 rlinecurve
          -16 -78 426 0 17 78 -136 22 -15 34 94 180 rlinecurve
          439 841 80 -872 12 -145 -23 -40 -140 -20 rlinecurve
          -16 -78 718 0 17 78 -97 15 -31 29 -19 158 rlinecurve
          endchar
        </CharString>
        <CharString name="Lcaron">
          1237 1192 1114 rmoveto
          330 -44 callgsubr
          57 -1114 rmoveto
          -36 callsubr
          -15 callsubr
          endchar
        </CharString>
        <CharString name="Lcircumflexbelow">
          -8 callsubr
          279 -462 -83 callsubr
          -2 callsubr
        </CharString>
        <CharString name="Lcommaaccent">
          -8 callsubr
          498 -470 -55 callsubr
          -61 callsubr
          31 callgsubr
        </CharString>
        <CharString name="Ldot">
          -8 callsubr
          1062 672 50 callgsubr
          endchar
        </CharString>
        <CharString name="Ldotbelow">
          -8 callsubr
          544 -134 -77 callsubr
        </CharString>
        <CharString name="Ldotbelowmacron">
          1237 422 97 callsubr
          708 -1767 rmoveto
          -36 callsubr
          -15 callsubr
          544 -134 -77 callsubr
        </CharString>
        <CharString name="Ljecyrillic">
          2178 31 157 rmoveto
          -108 73 -76 123 231 105 269 550 137 vhcurveto
          56 206 50 210 31 136 rrcurveto
          383 hlineto
          -242 -1137 rlineto
          -18 -89 -26 -19 -129 -21 -17 -78 rcurveline
          725 hlineto
          437 299 187 312 242 -215 135 -338 hvcurveto
          -169 hlineto
          77 361 19 90 27 17 134 22 rlinecurve
          17 78 -1256 218 callsubr
          hvcurveto
          1793 367 -77 callgsubr
          692 77 -1 rlineto
          148 -3 91 -83 -172 vvcurveto
          endchar
        </CharString>
        <CharString name="Llinebelow">
          -8 callsubr
          212 -374 -47 callsubr
        </CharString>
        <CharString name="Lslash">
          1237 180 627 rmoveto
          149 37 -97 -456 -19 -40 callsubr
          -17 -78 1119 0 -36 callsubr
          144 680 310 76 20 92 -310 -77 79 376 19 90 25 19 130 22 rlinecurve
          16 77 -692 0 -16 -78 111 -19 18 -28 -23 -107 rlinecurve
          -97 -457 -147 -36 rlineto
          endchar
        </CharString>
        <CharString name="M">
          1881 961 1444 19 callsubr
        </CharString>
        <CharString name="Macute">
          1881 1349 -94 callsubr
          -57 callsubr
          -745 -396 19 callsubr
        </CharString>
        <CharString name="Mdotaccent">
          1881 1298 -88 callsubr
          -86 callsubr
          -337 -92 19 callsubr
        </CharString>
        <CharString name="Mdotbelow">
          1881 961 1444 rmoveto
          -581 hlineto
          -16 -78 118 -20 17 -42 -30 -124 rlinecurve
          -209 -874 -43 -171 -27 -39 -130 -18 rlinecurve
          -16 -78 421 0 16 78 -124 18 -12 34 38 177 rlinecurve
          181 855 138 -1162 213 0 244 490 364 699 -178 -986 -16 -86 -25 -21 -126 -18 rlinecurve
          -16 -78 681 0 17 78 -116 17 -14 21 16 87 rlinecurve
          190 1037 16 86 23 22 126 18 rlinecurve
          16 78 -595 0 -457 -946 rlineto
          -306 -632 -82 callsubr
          -58 callsubr
        </CharString>
        <CharString name="Mugreek">
          1881 961 1444 19 callsubr
        </CharString>
        <CharString name="N">
          1504 872 1444 147 callsubr
          endchar
        </CharString>
        <CharString name="Nacute">
          1504 1168 -94 callsubr
          -56 callsubr
          -652 -396 147 callsubr
          endchar
        </CharString>
        <CharString name="Ncaron">
          1504 1381 -90 callsubr
          -85 callsubr
          -87 callsubr
          -603 -407 147 callsubr
          endchar
        </CharString>
        <CharString name="Ncircumflexbelow">
          100 callsubr
          -908 -869 -83 callsubr
          -2 callsubr
        </CharString>
        <CharString name="Ncommaaccent">
          100 callsubr
          -689 -877 rmoveto
          181 94 76 117 112 -61 callsubr
          -1 callsubr
          -45 -42 -4 callsubr
        </CharString>
        <CharString name="Ndotaccent">
          1504 1117 -88 callsubr
          -86 callsubr
          -245 -92 147 callsubr
          endchar
        </CharString>
        <CharString name="Ndotbelow">
          100 callsubr
          -643 -541 rmoveto
          -90 -71 -71 -84 -82 63 -64 84 50 callsubr
        </CharString>
        <CharString name="Ngrave">
          1504 1117 39 callsubr
          -319 -88 147 callsubr
          endchar
        </CharString>
        <CharString name="Njecyrillic">
          2292 643 208 rmoveto
          111 518 449 0 -110 -518 rlineto
          -19 -90 -24 -20 -124 -20 -16 -78 rcurveline
          717 hlineto
          437 299 175 292 230 -216 130 -338 hvcurveto
          -178 hlineto
          87 410 19 90 28 17 134 22 rlinecurve
          17 78 -700 0 -16 -78 113 -20 17 -19 -19 -91 rlinecurve
          -87 -409 -449 0 87 409 19 90 24 20 119 20 rlinecurve
          17 78 -681 0 -16 -78 113 -20 17 -19 -19 -91 rlinecurve
          -218 -1028 -19 -90 -25 -20 -123 -20 rlinecurve
          -16 -78 680 0 16 78 -108 19 -18 20 19 91 rlinecurve
          1294 282 rmoveto
          -217 -139 -168 -250 -11 vhcurveto
          -73 -3 137 643 86 -1 rlineto
          150 -3 89 -78 -162 vvcurveto
          endchar
        </CharString>
        <CharString name="Nlinebelow">
          100 callsubr
          -975 -781 -47 callsubr
        </CharString>
        <CharString name="Ntilde">
          1504 1232 162 callsubr
          -28 -23 113 callsubr
          65 callgsubr
          -360 -118 147 callsubr
          endchar
        </CharString>
        <CharString name="Nugreek">
          1504 872 1444 147 callsubr
          endchar
        </CharString>
        <CharString name="O">
          1658 913 -25 -101 callsubr
        </CharString>
        <CharString name="OE">
          2059 233 646 rmoveto
          -419 293 -252 386 vhcurveto
          124 70 25 133 hhcurveto
          759 hlineto
          106 444 rlineto
          -70 hlineto
          -109 -261 -100 -75 -239 -12 rrcurveto
          -167 -7 128 602 141 -2 105 -5 20 -42 -5 -168 rlinecurve
          68 hlineto
          110 518 rlineto
          -68 hlineto
          -62 -159 -39 -42 -108 -6 rrcurveto
          -142 -2 121 572 149 -7 232 -13 36 -60 12 -243 rlinecurve
          71 hlineto
          73 412 rlineto
          -816 hlineto
          -133 -80 25 -146 hhcurveto
          -512 -341 -360 -463 hvcurveto
          420 -127 rmoveto
          389 180 460 313 56 46 -11 -15 31 vhcurveto
          -267 -1255 rlineto
          -7 -20 -23 -3 -25 hhcurveto
          -180 -111 148 294 hvcurveto
          endchar
        </CharString>
        <CharString name="Oacute">
          1658 1181 -94 callsubr
          -56 callsubr
          -624 -1865 -101 callsubr
        </CharString>
        <CharString name="Obreve">
          1658 1144 1561 -82 callgsubr
          -53 -138 hhcurveto
          -114 -79 47 callgsubr
          108 -112 168 vhcurveto
          -231 -1586 -101 callsubr
        </CharString>
        <CharString name="Ocaron">
          1658 1394 -90 callsubr
          -85 callsubr
          -87 callsubr
          -575 -1876 -101 callsubr
        </CharString>
        <CharString name="Ocircumflex">
          1658 889 -10 callsubr
          112 -1559 -101 callsubr
        </CharString>
        <CharString name="Ocircumflexacute">
          1658 1509 1858 rmoveto
          36 169 -716 -194 -14 -63 rlineto
          -57 -273 rmoveto
          83 callsubr
          141 -1588 -101 callsubr
        </CharString>
        <CharString name="Ocircumflexdotbelow">
          1658 889 -10 callsubr
          112 -1559 rmoveto
          -68 callsubr
          36 callsubr
          hvcurveto
          -70 callsubr
          -28 103 rmoveto
          -144 115 callsubr
          259 40 callsubr
          hvcurveto
          -71 -212 -77 callsubr
        </CharString>
        <CharString name="Ocircumflexgrave">
          1658 834 -105 callgsubr
          -633 194 rlineto
          -112 -530 rmoveto
          83 callsubr
          141 -1588 -101 callsubr
        </CharString>
        <CharString name="Ocircumflexhookabove">
          1658 1483 1977 rmoveto
          -89 -82 -35 -47 -54 hvcurveto
          -10 -49 rlineto
          14 30 53 13 47 hhcurveto
          74 33 -27 -34 -8 hvcurveto
          -8 -36 -43 -28 -85 -15 rrcurveto
          58 -38 158 22 90 47 18 82 rlinecurve
          79 16 -77 52 -121 hhcurveto
          -725 -480 rmoveto
          83 callsubr
          141 -1588 -101 callsubr
        </CharString>
        <CharString name="Ocircumflextilde">
          1658 1296 1803 rmoveto
          128 91 72 131 25 hvcurveto
          -91 hlineto
          -47 -10 -31 -21 -52 hhcurveto
          -30 -32 8 11 -38 hvcurveto
          -38 11 rlineto
          15 -49 -49 11 -55 hhcurveto
          -127 -92 -72 -131 -26 hvcurveto
          91 hlineto
          47 11 31 21 52 hhcurveto
          30 32 -7 -12 38 hvcurveto
          38 -11 rlineto
          -15 49 49 -11 55 hhcurveto
          -538 -306 rmoveto
          83 callsubr
          141 -1588 -101 callsubr
        </CharString>
        <CharString name="Ocyrillic">
          1658 913 -25 -101 callsubr
        </CharString>
        <CharString name="Odblgrave">
          1658 969 1835 152 callsubr
          -373 -1556 -101 callsubr
        </CharString>
        <CharString name="Odieresis">
          1658 955 1552 rmoveto
          77 -49 callsubr
          75 hvcurveto
          350 hmoveto
          77 -49 callsubr
          75 hvcurveto
          -392 -1577 -101 callsubr
        </CharString>
        <CharString name="Odieresismacron">
          1658 832 1851 rmoveto
          676 hlineto
          29 134 rlineto
          -675 hlineto
          70 -435 rmoveto
          68 -66 callsubr
          -46 42 -66 hhcurveto
          -15 hlineto
          -67 -62 -42 -60 -14 hvcurveto
          -61 -12 44 -42 67 hhcurveto
          370 hmoveto
          66 -66 callsubr
          -69 callsubr
          -14 hvcurveto
          -61 -12 45 -42 67 hhcurveto
          -360 -1575 -101 callsubr
        </CharString>
        <CharString name="Odotaccent">
          1658 1130 -88 callsubr
          -86 callsubr
          -217 -1561 -101 callsubr
        </CharString>
        <CharString name="Odotaccentmacron">
          1658 826 1824 rmoveto
          676 hlineto
          29 135 rlineto
          -676 hlineto
          276 -416 rmoveto
          70 55 45 64 -2 hvcurveto
          65 -1 -57 45 -71 hhcurveto
          -70 -55 -45 -65 2 hvcurveto
          -64 1 56 -45 72 hhcurveto
          -218 -1568 -101 callsubr
        </CharString>
        <CharString name="Odotbelow">
          1658 913 -25 rmoveto
          -68 callsubr
          36 callsubr
          hvcurveto
          -70 callsubr
          -28 103 rmoveto
          -144 115 callsubr
          259 40 callsubr
          hvcurveto
          -71 -212 -77 callsubr
        </CharString>
        <CharString name="Ograve">
          1658 1130 39 callsubr
          -291 -1557 -101 callsubr
        </CharString>
        <CharString name="Ohookabove">
          1658 1177 1868 rmoveto
          -103 -76 -38 -66 -45 hvcurveto
          -12 -56 rlineto
          17 26 44 13 46 hhcurveto
          66 -101 callgsubr
          111 callgsubr
          -264 -1893 -101 callsubr
        </CharString>
        <CharString name="Ohorn">
          1688 230 640 rmoveto
          -70 callsubr
          -68 callsubr
          182 callsubr
          endchar
        </CharString>
        <CharString name="Ohornacute">
          1688 1183 29 callsubr
          -1310 -1200 rmoveto
          -70 callsubr
          -68 callsubr
          182 callsubr
          endchar
        </CharString>
        <CharString name="Ohorndotbelow">
          1688 230 640 rmoveto
          -70 callsubr
          -68 callsubr
          182 callsubr
          182 -607 -69 callgsubr
        </CharString>
        <CharString name="Ohorngrave">
          1688 1132 -81 callgsubr
          -976 -892 rmoveto
          -70 callsubr
          -68 callsubr
          182 callsubr
          endchar
        </CharString>
        <CharString name="Ohornhookabove">
          1688 1180 156 callsubr
          112 callgsubr
          -950 -1228 rmoveto
          -70 callsubr
          -68 callsubr
          182 callsubr
          endchar
        </CharString>
        <CharString name="Ohorntilde">
          1688 1248 159 callsubr
          -32 callgsubr
          -1018 -922 rmoveto
          -70 callsubr
          -68 callsubr
          182 callsubr
          endchar
        </CharString>
        <CharString name="Ohungarumlaut">
          1658 973 -28 callgsubr
          -725 -1863 -101 callsubr
        </CharString>
        <CharString name="Oinvertedbreve">
          1658 1146 10 callsubr
          48 callsubr
          89 54 139 -15 callgsubr
          -233 -1931 -101 callsubr
        </CharString>
        <CharString name="Omacron">
          1658 819 -35 callsubr
          57 -1792 -101 callsubr
        </CharString>
        <CharString name="Omacronacute">
          1658 1513 1878 4 callsubr
          -44 -205 118 callsubr
          108 -1745 -101 callsubr
        </CharString>
        <CharString name="Omacrongrave">
          1658 839 1878 119 callsubr
          -98 -462 118 callsubr
          108 -1745 -101 callsubr
        </CharString>
        <CharString name="Omegagreek">
          1714 126 hmoveto
          644 hlineto
          69 328 rlineto
          -127 66 -59 138 18 239 19 379 163 214 223 -1 192 0 106 -150 -21 -285 -16 -321 -123 -210 -198 -72 rrcurveto
          -68 -325 650 0 145 417 rlineto
          -62 hlineto
          -101 -156 -132 -52 -369 -4 13 59 rcurveline
          405 66 261 264 16 309 15 306 -242 254 -466 3 -499 2 -312 -300 -16 44 callgsubr
          -92 55 -30 153 rlinecurve
          -62 hlineto
          endchar
        </CharString>
        <CharString name="Omegatonosgreek">
          1976 388 hmoveto
          644 hlineto
          68 328 rlineto
          -127 66 -59 138 19 239 19 379 162 214 223 -1 193 0 106 -150 -21 -285 -16 -321 -124 -210 -197 -72 rrcurveto
          -68 -325 649 0 146 417 rlineto
          -63 hlineto
          -100 -156 -133 -52 -368 -4 12 59 rcurveline
          406 66 260 264 16 309 16 306 -243 254 -465 3 -499 2 -312 -300 -17 44 callgsubr
          -91 55 -30 153 rlinecurve
          -62 hlineto
          -79 1027 -5 callsubr
          endchar
        </CharString>
        <CharString name="Omicrongreek">
          1658 913 -25 -101 callsubr
        </CharString>
        <CharString name="Omicrontonosgreek">
          1909 1164 -25 rmoveto
          -68 callsubr
          36 callsubr
          hvcurveto
          -70 callsubr
          -814 1469 -5 callsubr
          442 -1366 rmoveto
          -143 -87 122 273 396 166 497 259 40 callsubr
          hvcurveto
          endchar
        </CharString>
        <CharString name="Oogonek">
          1658 830 -482 51 callgsubr
          190 callsubr
        </CharString>
        <CharString name="Oogonekmacron">
          1658 819 -35 callsubr
          -26 -2249 51 callgsubr
          190 callsubr
        </CharString>
        <CharString name="Oslash">
          1658 913 -25 171 callsubr
        </CharString>
        <CharString name="Oslashacute">
          1658 1181 -94 callsubr
          -56 callsubr
          -624 -1865 171 callsubr
        </CharString>
        <CharString name="Otilde">
          1658 1245 162 callsubr
          -28 -23 113 callsubr
          65 callgsubr
          -332 -1587 -101 callsubr
        </CharString>
        <CharString name="Otildeacute">
          1658 1513 1877 rmoveto
          36 170 -716 -194 -14 -63 rlineto
          424 -233 131 callsubr
        </CharString>
        <CharString name="Otildedieresis">
          1658 988 1816 rmoveto
          68 64 42 60 12 hvcurveto
          61 13 -45 41 -68 hhcurveto
          -13 hlineto
          -67 -48 callgsubr
          369 hmoveto
          66 64 42 23 callgsubr
          67 hhcurveto
          -86 -259 131 callsubr
        </CharString>
        <CharString name="Otildemacron">
          1658 832 1851 rmoveto
          675 hlineto
          30 134 rlineto
          -676 hlineto
          382 -428 131 callsubr
        </CharString>
        <CharString name="P">
          1458 754 hmoveto
          20 callsubr
        </CharString>
        <CharString name="Pacute">
          1458 1119 1841 rmoveto
          -183 -306 -29 callsubr
          -722 -1841 rmoveto
          20 callsubr
        </CharString>
        <CharString name="Pdotaccent">
          1458 1069 1537 rmoveto
          88 72 70 85 82 -63 63 -84 -89 -73 -69 -87 -81 63 -63 86 hvcurveto
          -315 -1537 rmoveto
          20 callsubr
        </CharString>
        <CharString name="Pecyrillic">
          1659 1505 208 rmoveto
          103 callgsubr
          -1554 0 -17 -78 114 -20 18 -27 callsubr
          -91 -24 -18 -124 -21 rlinecurve
          -17 -78 680 0 17 78 -108 19 -17 20 19 91 rlinecurve
          242 1136 460 0 -241 -1136 -20 -92 -23 -19 -120 -19 rlinecurve
          -16 -78 681 0 16 78 -113 18 -18 19 19 93 rlinecurve
          endchar
        </CharString>
        <CharString name="Phigreek">
          1929 226 717 rmoveto
          -33 -309 215 -181 435 -16 rrcurveto
          -3 -14 -19 -89 -27 -24 -118 -20 rlinecurve
          -15 -68 607 0 15 68 rlineto
          -111 19 -17 25 18 89 3 14 rcurveline
          521 14 279 185 33 320 33 311 -240 175 -411 15 rrcurveto
          3 12 19 89 27 24 118 20 rlinecurve
          14 68 -607 0 -14 -68 110 -18 18 -26 -19 -89 rlinecurve
          -3 -12 -494 -12 -304 -178 -33 -324 rlinecurve
          413 -5 rmoveto
          25 239 135 187 240 8 rrcurveto
          -177 -845 -171 30 -75 158 23 223 rlinecurve
          957 21 rmoveto
          -25 -244 -131 -183 -246 -10 rrcurveto
          178 845 169 -31 78 -161 -23 -216 rlinecurve
          endchar
        </CharString>
        <CharString name="Pigreek">
          1664 1516 211 rmoveto
          216 1021 19 89 21 25 132 20 rlinecurve
          17 78 -1564 0 -17 -78 121 -21 12 -22 -19 -90 rlinecurve
          -216 -1022 -20 -90 -22 -22 -130 -22 rlinecurve
          -16 -77 687 0 16 77 -115 20 -13 25 20 89 rlinecurve
          240 1136 464 0 -240 -1136 -19 -90 -21 -23 -124 -20 rlinecurve
          -17 -78 685 0 17 78 -122 19 -11 24 19 90 rlinecurve
          endchar
        </CharString>
        <CharString name="Psigreek">
          1958 628 hmoveto
          677 hlineto
          17 77 rlineto
          -131 20 -19 25 19 88 59 283 rcurveline
          375 15 197 124 138 376 68 186 rcurveline
          45 123 35 33 94 6 17 78 rcurveline
          5 -34 -72 7 -65 hhcurveto
          -206 -106 -63 -227 -83 hvcurveto
          -68 -189 -92 -251 -69 -100 -153 -24 rlinecurve
          136 641 19 90 26 24 112 19 rlinecurve
          16 78 -617 0 -16 -78 rlineto
          102 -19 17 -24 -20 -90 -135 -641 rcurveline
          -143 24 -25 101 15 250 11 185 rcurveline
          227 14 -81 67 -208 hhcurveto
          -63 -76 -7 -5 -35 hvcurveto
          -17 -78 92 -6 23 -33 -7 -123 rlinecurve
          -11 -186 -21 -375 142 -125 369 -15 rlinecurve
          -60 -283 -19 -88 -29 -25 -138 -20 rlinecurve
          endchar
        </CharString>
        <CharString name="Q">
          1682 1327 -413 rmoveto
          121 109 34 50 72 hvcurveto
          15 73 rlineto
          -126 -12 -86 33 -151 152 -98 98 rcurveline
          342 107 211 312 370 vvcurveto
          36 callsubr
          vhcurveto
          -4 -323 185 -250 312 -72 158 -173 rcurveline
          -182 167 126 -53 153 hhcurveto
          -442 491 rmoveto
          -144 115 callsubr
          259 40 callsubr
          hvcurveto
          endchar
        </CharString>
        <CharString name="R">
          1498 1072 hmoveto
          18 callsubr
          endchar
        </CharString>
        <CharString name="Racute">
          1498 1065 -94 callsubr
          -57 callsubr
          -350 -1840 rmoveto
          18 callsubr
          endchar
        </CharString>
        <CharString name="Rcaron">
          1498 1278 -90 callsubr
          -85 callsubr
          -87 callsubr
          -300 -1851 rmoveto
          18 callsubr
          endchar
        </CharString>
        <CharString name="Rcommaaccent">
          1498 1072 hmoveto
          18 callsubr
          -416 -1549 rmoveto
          181 94 76 117 112 -61 callsubr
          -1 callsubr
          -45 -42 -4 callsubr
        </CharString>
        <CharString name="Rdblgrave">
          1498 853 145 callsubr
          -98 -1531 rmoveto
          18 callsubr
          endchar
        </CharString>
        <CharString name="Rdotaccent">
          1498 1014 -88 callsubr
          -86 callsubr
          58 -1536 rmoveto
          18 callsubr
          endchar
        </CharString>
        <CharString name="Rdotbelow">
          1498 1072 hmoveto
          18 callsubr
          -370 -1213 -69 callgsubr
        </CharString>
        <CharString name="Rdotbelowmacron">
          1498 703 -35 callsubr
          332 -1767 rmoveto
          18 callsubr
          -370 -1213 -69 callgsubr
        </CharString>
        <CharString name="Rhogreek">
          1458 754 hmoveto
          20 callsubr
        </CharString>
        <CharString name="Rinvertedbreve">
          1498 1030 10 callsubr
          48 callsubr
          90 54 138 hhcurveto
          113 79 -54 -72 -7 0 -5 -1 -5 hvcurveto
          76 hlineto
          10 26 6 34 34 vvcurveto
          138 -108 113 -167 vhcurveto
          42 -1906 rmoveto
          18 callsubr
          endchar
        </CharString>
        <CharString name="Rlinebelow">
          1498 1072 hmoveto
          18 callsubr
          -702 -1453 -47 callsubr
        </CharString>
        <CharString name="S">
          1207 608 -27 66 callsubr
          endchar
        </CharString>
        <CharString name="Sacute">
          1207 1008 -94 callsubr
          -56 callsubr
          -756 -1867 66 callsubr
          endchar
        </CharString>
        <CharString name="Sacutedotaccent">
          1207 1007 1777 rmoveto
          71 54 45 64 -1 hvcurveto
          64 -1 -58 45 -70 hhcurveto
          -71 -55 -45 -64 2 hvcurveto
          -64 1 58 -45 70 hhcurveto
          278 -157 rmoveto
          36 169 -716 -194 -13 -62 rlineto
          16 -1560 66 callsubr
          endchar
        </CharString>
        <CharString name="Scaron">
          1207 1221 -90 callsubr
          -85 callsubr
          -87 callsubr
          -707 -1878 66 callsubr
          endchar
        </CharString>
        <CharString name="Scarondotaccent">
          1207 1012 1799 rmoveto
          71 54 45 64 -1 hvcurveto
          64 -2 -57 45 -71 hhcurveto
          -70 -55 -45 -64 2 hvcurveto
          -64 1 57 -45 71 7 callgsubr
          -710 -1753 66 callsubr
          endchar
        </CharString>
        <CharString name="Scedilla">
          1207 508 -94 callgsubr
          -92 72 -135 1 hvcurveto
          60 61 rlineto
          351 5 250 192 282 vvcurveto
          165 -79 123 -180 117 vhcurveto
          -95 66 rlineto
          -124 81 -49 67 93 vvcurveto
          118 95 82 135 173 104 -130 -255 11 vhcurveto
          71 hlineto
          64 376 rlineto
          59 -80 -164 56 -203 hhcurveto
          -388 -211 -207 -257 -171 77 -113 183 -118 hvcurveto
          94 -66 rlineto
          128 -86 45 -68 -100 vvcurveto
          -128 -105 -77 -139 -175 -146 125 265 vhcurveto
          -72 hlineto
          -63 -396 81 -46 152 -41 166 -11 rlinecurve
          -122 -128 43 callsubr
          -38 -24 -84 callgsubr
          endchar
        </CharString>
        <CharString name="Schwa">
          1564 806 -27 rmoveto
          477 331 344 466 428 -295 258 -418 -159 -183 -34 -64 -115 hvcurveto
          -83 -396 rlineto
          73 hlineto
          266 112 169 122 162 hhcurveto
          214 91 -186 -302 -54 -2 -52 -4 -50 hvcurveto
          -927 hlineto
          -25 -64 -15 -79 -78 vvcurveto
          -258 151 -267 446 vhcurveto
          -224 416 rmoveto
          83 11 88 19 64 vhcurveto
          554 2 rlineto
          -335 -44 -133 -217 -182 hhcurveto
          -157 -68 137 178 hvcurveto
          endchar
        </CharString>
        <CharString name="Scircumflex">
          1207 716 -10 callsubr
          -20 -1561 66 callsubr
          endchar
        </CharString>
        <CharString name="Scommaaccent">
          1207 608 -27 66 callsubr
          -125 -443 -55 callsubr
          -61 callsubr
          31 callgsubr
        </CharString>
        <CharString name="Sdotaccent">
          1207 957 -88 callsubr
          -86 callsubr
          -349 -1563 66 callsubr
          endchar
        </CharString>
        <CharString name="Sdotbelow">
          1207 608 -27 66 callsubr
          -79 -107 -77 callsubr
        </CharString>
        <CharString name="Sdotbelowdotaccent">
          1207 957 -88 callsubr
          -86 callsubr
          -349 -1563 66 callsubr
          -79 -107 -77 callsubr
        </CharString>
        <CharString name="Shacyrillic">
          2445 449 1236 rmoveto
          -219 -1028 -19 -92 -24 -19 -123 -19 rlinecurve
          -17 -78 2344 0 16 78 -113 20 -17 19 19 91 rlinecurve
          218 1028 193 callsubr
          19 92 24 24 callgsubr
        </CharString>
        <CharString name="Shchacyrillic">
          2459 161 callsubr
          1968 hlineto
          237 37 -65 -268 15 hvcurveto
          78 hlineto
          80 433 -189 0 241 1136 193 callsubr
          20 92 23 24 callgsubr
        </CharString>
        <CharString name="Sigmagreek">
          79 callgsubr
          -74 379 -696 -620 -598 -16 -76 1182 0 128 536 rlineto
          -83 hlineto
          -220 -98 -82 -47 -270 hhcurveto
          -400 hlineto
          605 575 4 23 -267 488 266 -6 279 -5 40 -64 9 -226 rlinecurve
          71 hlineto
          endchar
        </CharString>
        <CharString name="Softsigncyrillic">
          1430 201 callsubr
          -425 25 -77 callgsubr
          102 callgsubr
        </CharString>
        <CharString name="T">
          -37 callsubr
          endchar
        </CharString>
        <CharString name="Taugreek">
          -37 callsubr
          endchar
        </CharString>
        <CharString name="Tbar">
          1381 345 698 rmoveto
          290 hlineto
          -104 -492 -19 -87 -26 -21 -137 -21 rlinecurve
          -17 -77 717 0 16 77 -128 21 -18 19 19 89 rlinecurve
          104 492 292 0 17 84 -291 0 122 572 34 -1 203 -16 58 -72 2 -234 rlinecurve
          71 hlineto
          71 413 -1250 0 38 callsubr
          1 -122 -572 rlineto
          -289 hlineto
          endchar
        </CharString>
        <CharString name="Tcaron">
          1381 1312 -90 callsubr
          -85 callsubr
          -87 callsubr
          215 -407 rmoveto
          -1250 hlineto
          38 callsubr
          91 callsubr
          717 0 16 77 -128 81 callsubr
          endchar
        </CharString>
        <CharString name="Tcedilla">
          1381 618 -471 96 callgsubr
          82 84 1 4 294 0 16 77 -128 81 callsubr
          71 413 -1250 0 38 callsubr
          91 callsubr
          331 0 -146 -153 -49 callgsubr
          92 callsubr
        </CharString>
        <CharString name="Tcircumflexbelow">
          -37 callsubr
          -1175 -1493 rmoveto
          262 165 185 -165 85 0 -127 -52 callgsubr
        </CharString>
        <CharString name="Tcommaaccent">
          -37 callsubr
          -956 -1501 -55 callsubr
          -88 67 -107 -84 -74 -34 -53 -41 hvcurveto
          -14 -61 rlineto
          6 150 callsubr
        </CharString>
        <CharString name="Tdotaccent">
          1381 1048 -88 callsubr
          -86 callsubr
          573 -92 rmoveto
          -1250 hlineto
          38 callsubr
          91 callsubr
          717 0 16 77 -128 81 callsubr
          endchar
        </CharString>
        <CharString name="Tdotbelow">
          -37 callsubr
          -911 -1165 rmoveto
          -89 -72 -71 -84 -82 63 -64 85 89 73 69 88 80 -64 64 -85 hvcurveto
          endchar
        </CharString>
        <CharString name="Tecyrillic">
          -37 callsubr
          endchar
        </CharString>
        <CharString name="Thetagreek">
          1740 935 -27 rmoveto
          482 361 342 436 33 hvcurveto
          33 419 -269 301 -466 -1 rrcurveto
          -481 -360 -343 -436 -33 hvcurveto
          -418 -34 269 -300 465 hhcurveto
          9 92 rmoveto
          -218 -103 229 389 41 hvcurveto
          410 41 132 286 263 hhcurveto
          221 101 -227 -393 -41 hvcurveto
          -409 -41 -134 -285 -262 hhcurveto
          -221 404 rmoveto
          59 hlineto
          142 51 47 52 85 hhcurveto
          85 hlineto
          85 26 -52 -142 -10 hvcurveto
          59 hlineto
          106 501 rlineto
          -59 hlineto
          -143 -52 -47 -50 -84 hhcurveto
          -85 hlineto
          -83 -27 50 143 9 hvcurveto
          -59 hlineto
          endchar
        </CharString>
        <CharString name="Thorn">
          1455 219 207 rmoveto
          -19 -90 -24 -19 -124 -21 rrcurveto
          -16 -78 685 0 16 78 rlineto
          -112 20 -18 19 19 91 25 118 rcurveline
          169 hlineto
          369 333 141 305 219 -172 156 -387 hvcurveto
          -137 hlineto
          19 89 19 91 25 19 122 21 rlinecurve
          17 77 -686 0 -16 -77 112 -21 19 -18 -20 -92 rlinecurve
          660 -431 rmoveto
          1 -197 -119 -179 -238 -10 rrcurveto
          -71 -3 136 641 68 -2 rlineto
          146 -7 77 -107 -136 vvcurveto
          endchar
        </CharString>
        <CharString name="Tlinebelow">
          -37 callsubr
          -1242 -1405 110 callsubr
        </CharString>
        <CharString name="Tsecyrillic">
          1668 161 callsubr
          1178 hlineto
          240 38 -65 -268 15 hvcurveto
          77 hlineto
          80 433 -193 0 242 1136 19 91 24 19 123 20 rlinecurve
          17 78 -680 0 -16 -78 108 -19 207 callsubr
        </CharString>
        <CharString name="Tshecyrillic">
          1895 1625 1444 rmoveto
          -1255 hlineto
          -100 -413 rlineto
          71 hlineto
          -37 callgsubr
          99 468 rcurveline
          19 61 59 12 78 hhcurveto
          161 63 -95 -190 -41 hvcurveto
          -90 -421 547 0 16 78 rlineto
          -114 17 -15 21 18 88 35 163 rcurveline
          318 64 -169 148 -330 hhcurveto
          -138 -97 -23 -30 -85 hvcurveto
          55 callgsubr
          endchar
        </CharString>
        <CharString name="U">
          1517 802 -26 -96 callsubr
        </CharString>
        <CharString name="Uacute">
          1517 1228 -94 callsubr
          -56 callsubr
          -782 -1866 -96 callsubr
        </CharString>
        <CharString name="Ubreve">
          1517 1191 -12 callsubr
          -389 -1587 -96 callsubr
        </CharString>
        <CharString name="Ubrevecyrillic">
          1486 1167 1565 -107 callgsubr
          -83 -50 callgsubr
          -25 155 callsubr
          -935 -1408 179 callsubr
        </CharString>
        <CharString name="Ucaron">
          1517 1441 -90 callsubr
          -85 callsubr
          -87 callsubr
          -733 -1877 -96 callsubr
        </CharString>
        <CharString name="Ucircumflex">
          1517 936 -10 callsubr
          -46 -1560 -96 callsubr
        </CharString>
        <CharString name="Ucircumflexbelow">
          71 callsubr
          -303 -436 -83 callsubr
          -2 callsubr
        </CharString>
        <CharString name="Ucyrillic">
          1486 232 157 179 callsubr
        </CharString>
        <CharString name="Udblgrave">
          1517 1016 1835 152 callsubr
          -531 -1557 -96 callsubr
        </CharString>
        <CharString name="Udieresis">
          1517 1002 1552 rmoveto
          77 -49 callsubr
          75 hvcurveto
          350 hmoveto
          78 63 63 76 hvcurveto
          73 1 -56 57 -73 hhcurveto
          -79 -63 -62 -78 -1 hvcurveto
          -72 55 -57 75 vhcurveto
          -550 -1578 -96 callsubr
        </CharString>
        <CharString name="Udieresisacute">
          1517 1560 -75 callgsubr
          113 -240 rmoveto
          67 -66 callsubr
          -69 callsubr
          -50 callsubr
          -519 -1576 -96 callsubr
        </CharString>
        <CharString name="Udieresisbelow">
          71 callsubr
          -263 -408 rmoveto
          91 74 70 85 -1 hvcurveto
          81 -66 63 -86 -92 -75 -69 -87 1 vhcurveto
          -80 1 65 -63 88 hhcurveto
          428 hmoveto
          91 74 88 callgsubr
          65 -63 88 hhcurveto
          endchar
        </CharString>
        <CharString name="Udieresiscaron">
          1517 1594 2036 rmoveto
          -354 -79 -320 79 -14 -63 274 -173 54 0 347 173 rlineto
          -601 -423 rmoveto
          67 -66 callsubr
          -69 callsubr
          -50 callsubr
          -519 -1576 -96 callsubr
        </CharString>
        <CharString name="Udieresisgrave">
          1517 886 1877 rmoveto
          656 -87 13 63 -634 194 rlineto
          59 -497 rmoveto
          67 -66 callsubr
          -69 callsubr
          -50 callsubr
          -519 -1576 -96 callsubr
        </CharString>
        <CharString name="Udieresismacron">
          1517 880 97 callgsubr
          71 -435 rmoveto
          67 -66 callsubr
          -69 callsubr
          -50 callsubr
          -519 -1576 -96 callsubr
        </CharString>
        <CharString name="Udotbelow">
          71 callsubr
          -38 -108 -82 callsubr
          50 callsubr
        </CharString>
        <CharString name="Ugrave">
          1517 1177 39 callsubr
          -449 -1558 -96 callsubr
        </CharString>
        <CharString name="Uhookabove">
          1517 1224 1868 rmoveto
          -103 226 callsubr
          66 -101 callgsubr
          111 callgsubr
          -422 -1894 -96 callsubr
        </CharString>
        <CharString name="Uhorn">
          1670 303 648 rmoveto
          -31 callsubr
          176 callsubr
          endchar
        </CharString>
        <CharString name="Uhornacute">
          1670 1234 -94 callsubr
          -29 callsubr
          -1287 -1192 rmoveto
          -31 callsubr
          176 callsubr
          endchar
        </CharString>
        <CharString name="Uhorndotbelow">
          1670 303 648 rmoveto
          -31 callsubr
          176 callsubr
          293 -1367 rmoveto
          -89 -72 -71 -84 -82 63 -64 85 89 73 69 88 80 -64 64 -85 hvcurveto
          endchar
        </CharString>
        <CharString name="Uhorngrave">
          1670 1182 1837 rmoveto
          -335 -8 hlineto
          334 -297 rlineto
          76 hlineto
          -954 -884 rmoveto
          -31 callsubr
          176 callsubr
          endchar
        </CharString>
        <CharString name="Uhornhookabove">
          1670 1230 156 callsubr
          80 hlineto
          180 52 82 62 88 vvcurveto
          85 -81 59 -105 vhcurveto
          -927 -1220 rmoveto
          -31 callsubr
          176 callsubr
          endchar
        </CharString>
        <CharString name="Uhorntilde">
          1670 1298 159 callsubr
          -23 10 20 -29 93 callgsubr
          -28 hvcurveto
          78 hlineto
          83 16 27 28 38 hhcurveto
          27 24 -11 -19 28 hvcurveto
          27 -19 rlineto
          -31 46 47 -20 56 hhcurveto
          -995 -914 rmoveto
          -31 callsubr
          176 callsubr
          endchar
        </CharString>
        <CharString name="Uhungarumlaut">
          1517 1020 -28 callgsubr
          -883 -1864 -96 callsubr
        </CharString>
        <CharString name="Uinvertedbreve">
          1517 1193 10 callsubr
          48 callsubr
          90 54 138 -15 callgsubr
          -391 -1932 -96 callsubr
        </CharString>
        <CharString name="Umacron">
          1517 866 -35 callsubr
          -101 -1793 -96 callsubr
        </CharString>
        <CharString name="Umacrondieresis">
          1517 1036 -63 callgsubr
          -45 41 -68 hhcurveto
          -13 hlineto
          -68 -48 callgsubr
          370 hmoveto
          66 64 42 60 12 90 callsubr
          39 callgsubr
          -75 -1746 -96 callsubr
        </CharString>
        <CharString name="Uogonek">
          1517 780 72 callgsubr
          -26 hhcurveto
          -67 -48 76 102 45 13 42 24 32 hvcurveto
          310 27 191 213 75 336 rrcurveto
          133 600 37 161 23 31 124 22 rlinecurve
          17 78 -412 0 -17 -78 rlineto
          125 -24 14 -30 -31 -160 -117 -587 rcurveline
          -265 -53 -147 -148 -200 hhcurveto
          -192 -8 callgsubr
          105 -21 17 -20 -19 -92 rlinecurve
          -124 -585 -98 -465 244 -192 311 -16 rlinecurve
          -147 -78 -71 -97 -97 vvcurveto
          -108 99 -77 140 vhcurveto
          endchar
        </CharString>
        <CharString name="Upsilondieresisgreek">
          1405 959 1552 rmoveto
          84 callsubr
          168 callsubr
          56 -57 74 hhcurveto
          -850 -382 -81 callsubr
        </CharString>
        <CharString name="Upsilongreek">
          1405 459 1170 -81 callsubr
        </CharString>
        <CharString name="Upsilontonosgreek">
          1881 935 1170 rmoveto
          172 -540 -89 -423 -18 -88 -25 -21 -136 -21 rlinecurve
          -16 -77 710 0 17 77 -126 21 -18 20 19 89 rlinecurve
          90 -43 callgsubr
          36 31 104 16 rlinecurve
          16 78 -412 0 -16 -78 122 -17 8 -37 -104 -151 rlinecurve
          -290 -80 callgsubr
          16 78 -706 0 -17 -78 91 -16 27 -28 48 -152 rlinecurve
          -585 274 -5 callsubr
          endchar
        </CharString>
        <CharString name="Uring">
          1517 916 1727 rmoveto
          -113 112 -70 143 187 111 90 110 112 -112 71 -143 -187 82 callgsubr
          23 -30 -54 -86 -42 -71 -54 -38 -24 30 55 vhcurveto
          -311 -1726 -96 callsubr
        </CharString>
        <CharString name="Utilde">
          1517 1292 162 callsubr
          -27 -24 113 callsubr
          -57 hhcurveto
          -93 163 callsubr
          -100 callgsubr
          -490 -1588 -96 callsubr
        </CharString>
        <CharString name="Utildeacute">
          1517 1560 -75 callgsubr
          424 -233 rmoveto
          127 92 73 130 26 hvcurveto
          -91 hlineto
          -47 -11 -31 -20 -52 hhcurveto
          -30 -32 7 11 -38 hvcurveto
          -38 12 -38 callgsubr
          -3 callgsubr
          55 hhcurveto
          -489 -1583 -96 callsubr
        </CharString>
        <CharString name="Utildebelow">
          71 callsubr
          75 -411 41 callsubr
          -44 hhcurveto
          -31 -26 12 22 -33 hvcurveto
          -31 22 rlineto
          34 -49 -51 22 -62 hhcurveto
          -103 -1 -86 -68 -30 -54 callgsubr
          30 27 -12 -22 33 hvcurveto
          30 -22 rlineto
          -34 50 51 -23 62 hhcurveto
          endchar
        </CharString>
        <CharString name="V">
          99 callgsubr
          endchar
        </CharString>
        <CharString name="Vdotbelow">
          99 callgsubr
          262 -1290 -77 callsubr
        </CharString>
        <CharString name="Vecyrillic">
          1490 1509 449 72 callsubr
        </CharString>
        <CharString name="Vtilde">
          1463 1270 135 callsubr
          24 -11 -19 28 hvcurveto
          -100 callgsubr
          -835 -406 rmoveto
          195 callsubr
          endchar
        </CharString>
        <CharString name="W">
          2233 416 1156 -19 callsubr
        </CharString>
        <CharString name="Wacute">
          2233 1651 29 callsubr
          -1592 -684 -19 callsubr
        </CharString>
        <CharString name="Wcircumflex">
          2233 1359 -95 callgsubr
          -42 callgsubr
          -856 -378 -19 callsubr
        </CharString>
        <CharString name="Wdieresis">
          2233 1425 1552 rmoveto
          84 callsubr
          168 callsubr
          56 -57 74 hhcurveto
          -1359 -396 -19 callsubr
        </CharString>
        <CharString name="Wdotaccent">
          2233 1601 160 callsubr
          -1185 -380 -19 callsubr
        </CharString>
        <CharString name="Wdotbelow">
          2233 416 1156 rmoveto
          110 -1161 288 0 515 1040 83 -1040 299 0 570 1133 99 195 43 27 103 16 rlinecurve
          17 78 -423 0 -17 -78 121 -13 11 -41 -80 -176 rlinecurve
          -367 -794 -53 809 -11 167 18 28 122 20 rlinecurve
          17 78 -669 0 -16 -78 117 -15 10 -67 -65 -141 rlinecurve
          -368 -801 -52 811 -9 155 21 39 128 19 rlinecurve
          16 78 -696 0 -16 -78 89 -15 30 -28 15 -167 rlinecurve
          648 -1290 -82 callsubr
          50 callsubr
        </CharString>
        <CharString name="Wgrave">
          2233 1600 -81 callgsubr
          -1258 -376 -19 callsubr
        </CharString>
        <CharString name="X">
          1415 341 311 17 callsubr
        </CharString>
        <CharString name="Xdieresis">
          1415 990 1552 rmoveto
          60 callgsubr
          350 hmoveto
          60 callgsubr
          -999 -1241 17 callsubr
        </CharString>
        <CharString name="Xdotaccent">
          1415 1166 160 callsubr
          -825 -1225 17 callsubr
        </CharString>
        <CharString name="Xigreek">
          1377 1600 1444 rmoveto
          -1203 hlineto
          -125 -483 rlineto
          75 hlineto
          189 87 71 31 250 hhcurveto
          374 hlineto
          249 59 -31 -189 6 hvcurveto
          75 hlineto
          -765 -285 rmoveto
          165 42 callgsubr
          -57 -51 -48 -140 hhcurveto
          -164 2 callgsubr
          562 -676 rmoveto
          87 callgsubr
          -353 hlineto
          -272 -58 41 224 -4 hvcurveto
          -74 hlineto
          -95 -536 rlineto
          endchar
        </CharString>
        <CharString name="Xigreek.1">
          1393 61 hmoveto
          1262 hlineto
          87 callgsubr
          -146 hlineto
          86 405 rlineto
          53 42 callgsubr
          -56 -52 -48 -140 hhcurveto
          -52 hlineto
          85 406 rlineto
          158 hlineto
          250 58 -31 -189 7 hvcurveto
          74 hlineto
          82 483 -1219 0 -125 -483 rlineto
          75 hlineto
          189 87 72 31 249 hhcurveto
          159 hlineto
          -85 -406 rlineto
          -55 2 callgsubr
          55 hlineto
          -85 -405 rlineto
          -151 hlineto
          -272 -58 41 224 -4 hvcurveto
          -75 hlineto
          endchar
        </CharString>
        <CharString name="Y">
          1405 459 1170 -81 callsubr
        </CharString>
        <CharString name="Yacute">
          1405 1185 29 callsubr
          -1083 -670 -81 callsubr
        </CharString>
        <CharString name="Ycircumflex">
          1405 893 -95 callgsubr
          -42 callgsubr
          -347 -364 -81 callsubr
        </CharString>
        <CharString name="Ydieresis">
          1405 959 1552 rmoveto
          84 callsubr
          168 callsubr
          56 -57 74 hhcurveto
          -850 -382 -81 callsubr
        </CharString>
        <CharString name="Ydotaccent">
          1405 1135 160 callsubr
          -676 -366 -81 callsubr
        </CharString>
        <CharString name="Ydotbelow">
          1405 459 1170 rmoveto
          173 -540 -89 -423 -19 -88 -25 -21 -135 -21 rlinecurve
          -17 -77 711 0 16 77 -125 21 -18 20 19 89 rlinecurve
          89 -43 callgsubr
          37 31 103 16 rlinecurve
          17 78 -413 0 -16 -78 122 -17 8 -37 -103 -151 rlinecurve
          -291 -80 callgsubr
          89 callgsubr
          208 -1304 -82 callsubr
          -58 callsubr
        </CharString>
        <CharString name="Yericyrillic">
          2158 201 callsubr
          515 -291 rmoveto
          34 callsubr
          60 callsubr
          -79 callsubr
          102 callsubr
          -940 316 -77 callgsubr
          102 callgsubr
        </CharString>
        <CharString name="Ygrave">
          1405 1134 -81 callgsubr
          -749 -362 -81 callsubr
        </CharString>
        <CharString name="Yhookabove">
          1405 1182 156 callsubr
          112 callgsubr
          -723 -698 -81 callsubr
        </CharString>
        <CharString name="Yicyrillic">
          782 569 1553 rmoveto
          77 -49 callsubr
          170 callsubr
          -63 -62 -78 -1 hvcurveto
          -72 55 -57 75 vhcurveto
          -280 -1345 -95 callsubr
        </CharString>
        <CharString name="Ymacron">
          1405 823 97 callsubr
          -401 -597 -81 callsubr
        </CharString>
        <CharString name="Ytilde">
          1405 1250 159 callsubr
          -32 callgsubr
          -791 -392 -81 callsubr
        </CharString>
        <CharString name="Z">
          1282 1208 hmoveto
          22 callsubr
          endchar
        </CharString>
        <CharString name="Zacute">
          1282 1040 -94 callsubr
          -56 callsubr
          -188 -1840 rmoveto
          22 callsubr
          endchar
        </CharString>
        <CharString name="Zcaron">
          1282 1253 -90 callsubr
          -85 callsubr
          -87 callsubr
          -139 -1851 rmoveto
          22 callsubr
          endchar
        </CharString>
        <CharString name="Zcircumflex">
          1282 748 -10 callsubr
          548 -1534 rmoveto
          22 callsubr
          endchar
        </CharString>
        <CharString name="Zdotaccent">
          1282 989 -88 callsubr
          -73 -70 -87 -80 64 -64 85 hvcurveto
          219 -1536 rmoveto
          22 callsubr
          endchar
        </CharString>
        <CharString name="Zdotbelow">
          1282 1208 hmoveto
          22 callsubr
          541 -134 -82 callsubr
          -58 callsubr
        </CharString>
        <CharString name="Zecyrillic">
          1363 606 -26 rmoveto
          428 341 178 313 190 -177 97 -236 17 hvcurveto
          285 33 211 121 226 vvcurveto
          214 -204 108 -339 -196 -164 -46 -64 -106 vhcurveto
          -86 -361 rlineto
          73 hlineto
          246 103 148 119 169 hhcurveto
          121 68 -91 -131 -199 -121 -152 -223 hvcurveto
          -131 hlineto
          -21 -97 rlineto
          131 hlineto
          175 88 -91 -153 -189 -125 -183 -226 -1 hvcurveto
          -183 -104 139 225 -6 hvcurveto
          -73 hlineto
          -55 -353 rlineto
          -62 85 156 -53 194 hhcurveto
          endchar
        </CharString>
        <CharString name="Zetagreek">
          1282 1208 hmoveto
          22 callsubr
          endchar
        </CharString>
        <CharString name="Zhecyrillic">
          2225 472 hmoveto
          508 682 80 0 -101 -474 -19 -91 -25 -18 -126 -21 rlinecurve
          -17 -78 693 0 17 78 -116 20 -19 18 19 92 rlinecurve
          101 474 80 0 218 -682 464 0 16 74 -53 28 -29 33 -75 219 rlinecurve
          -204 631 185 163 176 153 69 42 135 23 rlinecurve
          16 78 -481 0 -16 -78 118 -21 7 -43 -105 -105 rlinecurve
          -420 -417 -80 0 97 456 19 91 25 19 127 20 rlinecurve
          16 78 -694 0 -16 -78 117 -16 18 -22 -20 -92 rlinecurve
          -97 -457 -78 1 -251 419 -67 111 27 38 121 18 rlinecurve
          16 78 -483 0 -16 -78 128 -24 57 -34 111 -158 rlinecurve
          113 -157 -468 -628 rlineto
          -169 -225 -43 -39 -66 -27 -15 -74 rcurveline
          endchar
        </CharString>
        <CharString name="Zlinebelow">
          1282 1208 hmoveto
          22 callsubr
          209 -374 3 callsubr
        </CharString>
        <CharString name="a">
          1268 -45 callsubr
          -107 callsubr
          -103 callsubr
        </CharString>
        <CharString name="a.dnum">
          789 115 198 rmoveto
          -134 74 -76 103 91 73 53 93 31 vhcurveto
          -2 -9 -2 -17 -10 vvcurveto
          -73 -2 42 -34 73 hhcurveto
          84 73 36 48 38 hvcurveto
          12 52 rlineto
          -9 -14 -18 -5 -20 hhcurveto
          -28 -12 18 45 10 hvcurveto
          81 380 -148 0 -82 -68 rlineto
          42 -17 -51 38 -83 hhcurveto
          -179 -130 -156 -214 3 hvcurveto
          240 -13 rmoveto
          113 -1 40 182 96 hhcurveto
          29 19 -13 -17 5 hvcurveto
          -54 -254 rlineto
          -61 -15 -31 -35 -36 hhcurveto
          -30 -20 22 63 -2 hvcurveto
          endchar
        </CharString>
        <CharString name="a.numr">
          789 256 866 rmoveto
          -135 1 73 -76 104 hhcurveto
          91 73 53 93 31 hvcurveto
          -2 -9 -2 -17 -10 vvcurveto
          -72 -2 41 -35 74 hhcurveto
          84 73 37 47 38 hvcurveto
          11 52 rlineto
          -8 -14 -18 -6 -19 hhcurveto
          -28 -12 18 45 10 hvcurveto
          80 380 -147 0 -82 -68 rlineto
          42 -17 -52 38 -82 hhcurveto
          -179 -130 -156 -213 2 hvcurveto
          241 -14 rmoveto
          114 -2 40 181 96 hhcurveto
          29 20 -13 -17 5 hvcurveto
          -54 -254 rlineto
          -60 -15 -31 -36 -37 hhcurveto
          -29 -20 23 62 -2 hvcurveto
          endchar
        </CharString>
        <CharString name="a.sups">
          789 293 1039 rmoveto
          -134 1 73 -77 103 hhcurveto
          92 73 53 94 31 hvcurveto
          -3 -9 -1 -17 -10 vvcurveto
          -73 -3 42 -35 74 hhcurveto
          84 73 37 48 38 hvcurveto
          11 52 rlineto
          -9 -14 -18 -5 -19 hhcurveto
          -28 -12 17 45 9 hvcurveto
          81 380 -147 0 -82 -67 rlineto
          42 -17 -52 38 -83 hhcurveto
          -178 -130 -157 -213 2 hvcurveto
          241 -13 rmoveto
          113 -2 40 181 96 hhcurveto
          29 19 -13 -16 6 hvcurveto
          -55 -254 rlineto
          -61 -14 -31 -35 -37 hhcurveto
          -29 -20 22 63 -2 hvcurveto
          endchar
        </CharString>
        <CharString name="aacute">
          1268 949 -23 callsubr
          -20 callsubr
          -1183 -1165 -106 callsubr
          -107 callsubr
          -103 callsubr
        </CharString>
        <CharString name="abreve">
          1268 899 -65 callsubr
          28 callsubr
          -729 -790 -106 callsubr
          -107 callsubr
          -103 callsubr
        </CharString>
        <CharString name="abreveacute">
          100 callgsubr
          263 -313 -42 callsubr
          31 hvcurveto
          -88 hlineto
          -63 -21 -107 -41 -135 hhcurveto
          -136 52 callsubr
          110 -106 204 hhcurveto
          -678 -746 -106 callsubr
          -107 callsubr
          -103 callsubr
        </CharString>
        <CharString name="abrevecyrillic">
          1268 854 1156 rmoveto
          192 169 58 callgsubr
          -31 -29 4 8 -25 hvcurveto
          59 19 45 58 69 vvcurveto
          93 -71 65 -88 -102 -66 -76 -99 -133 114 -97 175 vhcurveto
          -684 -795 -106 callsubr
          -107 callsubr
          -103 callsubr
        </CharString>
        <CharString name="abrevedotbelow">
          1268 899 -65 callsubr
          28 callsubr
          -729 -790 -106 callsubr
          -107 callsubr
          23 callsubr
          84 -778 -80 callsubr
        </CharString>
        <CharString name="abrevegrave">
          1268 607 98 callsubr
          199 -615 -42 callsubr
          31 hvcurveto
          -88 hlineto
          -63 -21 -107 -41 -135 hhcurveto
          -136 52 callsubr
          110 -106 204 hhcurveto
          -678 -746 -106 callsubr
          -107 callsubr
          -103 callsubr
        </CharString>
        <CharString name="abrevehookabove">
          1268 960 169 callsubr
          48 hhcurveto
          77 -56 callgsubr
          58 -45 163 27 92 54 21 96 rlinecurve
          94 19 -77 61 -123 hhcurveto
          -112 -590 -42 callsubr
          31 hvcurveto
          -88 hlineto
          -63 -21 -107 -41 -135 hhcurveto
          -136 52 callsubr
          110 -106 204 hhcurveto
          -678 -746 -106 callsubr
          -107 callsubr
          -103 callsubr
        </CharString>
        <CharString name="abrevetilde">
          208 callsubr
          -205 -342 -42 callsubr
          31 hvcurveto
          -88 hlineto
          -63 -21 -107 -41 -135 hhcurveto
          -136 52 callsubr
          110 -106 204 hhcurveto
          -678 -746 -106 callsubr
          -107 callsubr
          -103 callsubr
        </CharString>
        <CharString name="acaron">
          1268 1179 -71 callsubr
          56 callsubr
          -1106 -1182 -106 callsubr
          -107 callsubr
          -103 callsubr
        </CharString>
        <CharString name="acircumflex">
          1268 614 -89 callsubr
          -74 callsubr
          11 callsubr
          -347 -772 -106 callsubr
          -107 callsubr
          -103 callsubr
        </CharString>
        <CharString name="acircumflexacute">
          100 callgsubr
          -66 -312 rmoveto
          -58 callgsubr
          -54 0 -346 -211 rlineto
          -366 -824 -106 callsubr
          -107 callsubr
          -103 callsubr
        </CharString>
        <CharString name="acircumflexdotbelow">
          1268 614 -89 callsubr
          -74 callsubr
          11 callsubr
          -347 -772 -106 callsubr
          -107 callsubr
          23 callsubr
          84 -778 -80 callsubr
        </CharString>
        <CharString name="acircumflexgrave">
          1268 607 98 callsubr
          -130 -614 rmoveto
          -58 callgsubr
          -54 0 -346 -211 rlineto
          -366 -824 -106 callsubr
          -107 callsubr
          -103 callsubr
        </CharString>
        <CharString name="acircumflexhookabove">
          1268 1223 1697 rmoveto
          -91 -85 -41 -56 -56 hvcurveto
          -12 -57 rlineto
          17 31 54 15 48 hhcurveto
          76 33 -31 -41 -9 hvcurveto
          -10 -43 -44 -32 -87 -18 rrcurveto
          58 -45 162 27 93 54 20 109 callgsubr
          -58 callgsubr
          -54 0 -346 -211 rlineto
          -366 -824 -106 callsubr
          -107 callsubr
          -103 callsubr
        </CharString>
        <CharString name="acircumflextilde">
          208 callsubr
          -534 -341 rmoveto
          -58 callgsubr
          -54 0 -346 -211 rlineto
          -366 -824 -106 callsubr
          -107 callsubr
          -103 callsubr
        </CharString>
        <CharString name="acute">
          1024 848 -44 callsubr
          98 -43 callsubr
          endchar
        </CharString>
        <CharString name="acutecmb">
          0 336 -44 callsubr
          98 -43 callsubr
          endchar
        </CharString>
        <CharString name="acutecmb.short">
          0 313 1413 rmoveto
          -184 -306 -57 callsubr
          endchar
        </CharString>
        <CharString name="acutedotaccentcmb">
          6 callgsubr
          262 -185 rmoveto
          43 199 -708 -228 -15 -74 rlineto
          endchar
        </CharString>
        <CharString name="acutedotaccentcmb.short">
          0 403 1777 rmoveto
          71 55 45 64 -2 hvcurveto
          64 -1 -57 45 -71 hhcurveto
          -70 -55 -45 -64 1 hvcurveto
          -64 1 58 -45 70 hhcurveto
          279 -157 rmoveto
          35 169 -715 -194 -14 -62 rlineto
          endchar
        </CharString>
        <CharString name="acyrillic">
          1268 -45 callsubr
          -107 callsubr
          -103 callsubr
        </CharString>
        <CharString name="adblgrave">
          1268 692 -48 callsubr
          96 hlineto
          380 -73 callgsubr
          -909 -768 -106 callsubr
          -107 callsubr
          -103 callsubr
        </CharString>
        <CharString name="adieresis">
          1268 659 1166 rmoveto
          88 callsubr
          460 hmoveto
          98 80 77 95 90 -70 70 -93 -99 -67 callsubr
          -949 -805 -106 callsubr
          -107 callsubr
          -103 callsubr
        </CharString>
        <CharString name="adieresismacron">
          1268 595 -62 callgsubr
          -64 callsubr
          -70 -68 51 callsubr
          83 callgsubr
          -15 hlineto
          -70 -68 -50 -71 -15 hvcurveto
          -70 -15 47 -50 70 hhcurveto
          -858 -764 -106 callsubr
          -107 callsubr
          -103 callsubr
        </CharString>
        <CharString name="adotaccent">
          1268 888 47 callsubr
          -99 -105 63 callsubr
          -718 -794 -106 callsubr
          -107 callsubr
          -103 callsubr
        </CharString>
        <CharString name="adotbelow">
          1268 -45 callsubr
          -107 callsubr
          23 callsubr
          84 -778 -80 callsubr
        </CharString>
        <CharString name="adotmacron">
          1268 593 1456 rmoveto
          658 67 callgsubr
          -708 -760 -106 callsubr
          -107 callsubr
          -103 callsubr
        </CharString>
        <CharString name="ae">
          1598 243 782 123 callsubr
        </CharString>
        <CharString name="aeacute">
          1598 1139 -76 callsubr
          -1299 -744 123 callsubr
        </CharString>
        <CharString name="aemacron">
          1598 730 14 callsubr
          16 callsubr
          -530 -634 123 callsubr
        </CharString>
        <CharString name="agrave">
          1268 908 -54 callsubr
          -41 callsubr
          -811 -768 -106 callsubr
          -107 callsubr
          -103 callsubr
        </CharString>
        <CharString name="ahookabove">
          1268 951 7 callsubr
          -52 hvcurveto
          -15 -66 rlineto
          22 29 50 15 51 hhcurveto
          76 109 callsubr
          -781 -1178 -106 callsubr
          -107 callsubr
          -103 callsubr
        </CharString>
        <CharString name="ainvertedbreve">
          1268 902 106 callsubr
          -7 hvcurveto
          87 -39 callgsubr
          10 callgsubr
          -183 vhcurveto
          -732 -1165 -106 callsubr
          -107 callsubr
          -103 callsubr
        </CharString>
        <CharString name="alphagreek">
          1331 490 -21 174 callsubr
        </CharString>
        <CharString name="alphatonosgreek">
          1331 913 1537 -5 callsubr
          -767 -1558 174 callsubr
        </CharString>
        <CharString name="amacron">
          1268 541 107 callsubr
          -413 -1055 -106 callsubr
          -107 callsubr
          -103 callsubr
        </CharString>
        <CharString name="ampersand">
          1574 106 343 rmoveto
          -206 154 -163 268 167 139 69 152 152 vhcurveto
          158 -195 468 0 13 55 -86 61 -80 80 -102 129 rlinecurve
          -112 140 141 157 148 160 50 34 109 14 rlinecurve
          15 78 -431 0 -16 -78 121 -15 21 -40 -93 -116 rlinecurve
          -110 -137 -266 335 -2 2 -1 2 -2 3 rlinecurve
          244 64 137 102 147 vvcurveto
          174 -150 120 -277 -298 -181 -164 -222 -1 vhcurveto
          -1 -106 40 -91 81 -115 rrcurveto
          -269 -68 -148 -146 -216 vvcurveto
          639 867 rmoveto
          100 61 56 83 88 46 -71 -109 -104 -50 -92 -94 -62 vhcurveto
          -97 129 -37 75 78 vvcurveto
          -291 -717 rmoveto
          97 50 71 67 46 vhcurveto
          11 -14 12 -15 12 -15 332 -409 rcurveline
          -39 -58 -57 -17 -65 hhcurveto
          -174 -130 125 170 hvcurveto
          endchar
        </CharString>
        <CharString name="anoteleiagreek">
          562 452 657 rmoveto
          113 94 86 114 104 -83 83 -115 -113 -93 -85 -115 -104 82 -83 115 hvcurveto
          endchar
        </CharString>
        <CharString name="aogonek">
          1268 -45 callsubr
          -107 callsubr
          19 19 1 3 18 hvcurveto
          -206 -115 -77 -88 -103 vvcurveto
          -101 84 -62 124 103 91 46 64 41 vhcurveto
          16 74 rlineto
          -14 -19 -27 -8 -28 hhcurveto
          -44 -33 29 59 97 84 114 156 143 hvcurveto
          17 78 rlineto
          -19 -27 -35 -11 -32 hhcurveto
          -49 -21 33 75 16 hvcurveto
          158 739 -232 0 -138 -118 rlineto
          73 -26 -87 66 -141 66 callgsubr
          -17 callgsubr
          endchar
        </CharString>
        <CharString name="approxequal">
          1271 1064 822 rmoveto
          -161 -127 221 -206 hhcurveto
          -174 -130 -129 -256 -33 hvcurveto
          129 -1 rlineto
          86 callgsubr
          170 130 128 254 34 hvcurveto
          -130 hlineto
          -151 -29 -78 -69 -97 hhcurveto
          -112 -527 213 callsubr
          -78 -69 -97 hhcurveto
          endchar
        </CharString>
        <CharString name="aring">
          1268 590 8 callsubr
          158 1 callsubr
          -158 -209 -122 -98 -123 vhcurveto
          219 -30 rmoveto
          97 48 78 59 43 26 -33 -62 -96 -48 -79 -59 -43 -26 33 62 vhcurveto
          -639 -936 -106 callsubr
          -107 callsubr
          -103 callsubr
        </CharString>
        <CharString name="aringacute">
          1268 1266 1527 rmoveto
          42 198 15 callsubr
          29 callgsubr
          -74 hlineto
          -163 -121 -59 -89 -20 hvcurveto
          -90 -18 96 -58 162 hhcurveto
          68 70 rmoveto
          -30 hlineto
          -48 -19 32 46 9 hvcurveto
          46 10 34 32 47 hhcurveto
          30 hlineto
          46 22 -32 -46 -10 hvcurveto
          -46 -10 -35 -32 -46 hhcurveto
          -708 -817 -106 callsubr
          -107 callsubr
          -103 callsubr
        </CharString>
        <CharString name="aringbelow">
          1268 -45 callsubr
          -107 callsubr
          23 callsubr
          -219 -626 rmoveto
          -113 1 128 -70 158 hhcurveto
          208 122 90 108 -4 hvcurveto
          113 -2 -127 70 -158 hhcurveto
          -209 -121 32 callgsubr
        </CharString>
        <CharString name="asciicircum">
          1284 876 1444 rmoveto
          -551 -595 94 -86 510 523 290 -522 109 84 -297 596 rlineto
          endchar
        </CharString>
        <CharString name="asciitilde">
          1271 1006 548 213 callsubr
          -79 -69 -96 hhcurveto
          endchar
        </CharString>
        <CharString name="asterisk">
          920 749 1474 rmoveto
          -67 -43 -47 -86 -21 0 -22 5 -28 hvcurveto
          33 -187 19 0 115 183 rlineto
          26 42 10 36 30 vvcurveto
          60 -41 40 -57 vhcurveto
          -303 -134 rmoveto
          -63 -44 -48 -57 -53 35 -45 102 -27 hvcurveto
          183 -47 10 15 -84 159 rlineto
          77 -41 -53 26 -45 hhcurveto
          545 -56 rmoveto
          -48 -38 -20 -59 -63 hvcurveto
          -138 -128 7 -16 162 6 rlineto
          160 4 57 52 66 vvcurveto
          55 -39 40 -60 vhcurveto
          -613 -455 rmoveto
          48 36 21 58 65 hvcurveto
          137 129 -7 16 -161 -7 rlineto
          -160 -5 -58 -51 -66 vvcurveto
          -55 40 -40 60 vhcurveto
          652 48 rmoveto
          53 -35 47 -102 26 vhcurveto
          -183 48 -10 -16 84 -159 rlineto
          -77 40 53 -26 46 hhcurveto
          62 45 48 56 hvcurveto
          -410 -239 rmoveto
          67 43 48 86 20 -1 23 -5 27 hvcurveto
          -33 188 -19 0 -114 -183 rlineto
          -27 -43 -9 -36 -29 vvcurveto
          -60 41 -41 57 vhcurveto
          endchar
        </CharString>
        <CharString name="at">
          2116 1526 -304 rmoveto
          -1 79 rlineto
          -81 -134 -148 -21 -159 hhcurveto
          -422 -340 287 472 548 423 381 504 479 310 -277 -406 -324 -198 -202 -181 -89 -26 52 100 21 hvcurveto
          147 684 -191 0 -149 -125 rlineto
          90 -32 -79 57 -117 hhcurveto
          -277 -185 -301 -318 -219 95 -121 155 132 115 86 172 74 hvcurveto
          -4 -22 -2 -23 -16 vvcurveto
          -132 -5 94 -101 195 hhcurveto
          395 229 320 360 454 -374 314 -533 -579 -464 -432 -602 -531 394 -327 466 174 182 43 82 105 hvcurveto
          -501 697 rmoveto
          189 91 311 138 54 36 -42 -81 -8 vhcurveto
          -73 -344 rlineto
          -113 -24 -63 -80 -68 hhcurveto
          -60 -23 59 101 hvcurveto
          endchar
        </CharString>
        <CharString name="atilde">
          1268 1023 1165 rmoveto
          111 93 76 276 34 -40 callgsubr
          2 callsubr
          40 callgsubr
          28 -13 -25 36 -41 callgsubr
          -853 -804 -106 callsubr
          -107 callsubr
          -103 callsubr
        </CharString>
        <CharString name="austral">
          1411 83 387 rmoveto
          218 hlineto
          -59 -112 -80 -153 -38 -30 -105 -14 rlinecurve
          -17 -78 404 0 17 78 -111 15 -23 32 72 144 rlinecurve
          60 118 458 0 11 -131 10 -123 -19 -38 -129 -17 rlinecurve
          -16 -78 669 0 17 78 -93 13 -27 29 -14 136 rlinecurve
          -15 131 218 0 14 63 -239 0 -23 212 308 0 13 64 -328 0 -80 720 -291 0 -383 -720 -327 0 -13 -64 306 0 -113 -212 rlineto
          -238 hlineto
          497 276 rmoveto
          218 425 37 -425 rlineto
          -396 -276 rmoveto
          109 212 292 0 19 -212 rlineto
          endchar
        </CharString>
        <CharString name="austral.tnum">
          1320 100 446 rmoveto
          -14 -64 193 0 -54 -107 -76 -153 -36 -30 -91 -14 rlinecurve
          -16 -78 382 0 17 78 -109 15 -19 30 70 146 rlinecurve
          55 113 407 0 7 -126 7 -124 -19 -36 -124 -18 rlinecurve
          -17 -78 650 0 17 78 -79 12 -23 30 -10 136 rlinecurve
          -11 126 189 0 14 64 -208 0 -17 211 270 0 13 64 -288 0 -59 725 -306 0 -365 -725 -292 0 -13 -64 272 0 -106 -211 rlineto
          254 275 rmoveto
          203 420 23 -420 rlineto
          -359 -275 rmoveto
          102 211 260 0 12 -211 rlineto
          endchar
        </CharString>
        <CharString name="b">
          167 callsubr
          endchar
        </CharString>
        <CharString name="backslash">
          829 525 -288 rmoveto
          159 hlineto
          -104 1876 rlineto
          -159 hlineto
          endchar
        </CharString>
        <CharString name="baht">
          1441 1455 462 rmoveto
          158 -126 139 -272 24 vhcurveto
          249 15 218 95 1 205 rrcurveto
          172 -140 115 -310 24 vhcurveto
          47 222 -63 0 -47 -218 rlineto
          1 -22 -23 0 -24 hhcurveto
          -588 hlineto
          -16 -78 rlineto
          115 -20 16 -19 -19 -91 -204 -969 rcurveline
          -19 -88 -24 -21 -124 -20 -17 -78 rcurveline
          605 hlineto
          17 16 0 1 17 hvcurveto
          -47 -220 64 0 47 222 rlineto
          414 23 259 149 257 vvcurveto
          -597 863 rmoveto
          53 -2 29 -1 27 -4 23 -7 rlinecurve
          -106 -501 -16 -1 -16 -1 -17 -1 rlinecurve
          -87 hlineto
          391 283 rmoveto
          -128 -66 -100 -123 -38 vhcurveto
          98 461 rlineto
          60 -39 31 -67 -89 vvcurveto
          -410 -372 rmoveto
          86 -2 rlineto
          17 16 -2 -3 15 hvcurveto
          -125 -586 rlineto
          -3 -23 -25 -2 -27 hhcurveto
          -62 -2 rlineto
          447 342 rmoveto
          -150 -72 -126 -172 -46 vhcurveto
          118 554 rlineto
          81 -39 45 -81 -112 vvcurveto
          endchar
        </CharString>
        <CharString name="baht.tnum">
          -13 callgsubr
          160 -130 110 -286 24 vhcurveto
          47 221 -63 0 -47 -218 rlineto
          1 -17 -19 0 -19 hhcurveto
          -546 hlineto
          -16 -78 rlineto
          102 -17 16 -23 -18 -90 -205 -969 rcurveline
          -19 -88 -20 -22 -115 -19 -17 -78 rcurveline
          578 hlineto
          7 7 0 7 hhcurveto
          -47 -219 64 0 47 221 rlineto
          392 19 247 150 261 vvcurveto
          -545 863 rmoveto
          49 -2 24 -1 22 -4 20 -6 rlinecurve
          -107 -502 -12 -2 -12 0 -13 -1 rlinecurve
          -81 hlineto
          364 303 rmoveto
          -133 -63 -111 -117 -41 vhcurveto
          99 462 rlineto
          54 -36 27 -59 -82 vvcurveto
          -382 -392 rmoveto
          70 -2 rlineto
          16 -1 15 -1 14 -3 -125 -587 rcurveline
          -15 -2 -15 -1 -16 -1 -73 -2 rcurveline
          420 369 rmoveto
          -160 -76 -141 -159 -48 vhcurveto
          118 554 rlineto
          77 -37 40 -75 -93 vvcurveto
          endchar
        </CharString>
        <CharString name="bar">
          829 274 -288 rmoveto
          159 hlineto
          398 1876 rlineto
          -159 hlineto
          endchar
        </CharString>
        <CharString name="bdotaccent">
          1265 710 1583 rmoveto
          105 85 82 100 96 -75 75 -99 -105 -86 -82 -102 -94 75 -75 100 hvcurveto
          601 -927 58 callsubr
          186 callsubr
          endchar
        </CharString>
        <CharString name="bdotbelow">
          167 callsubr
          -350 -1126 -86 callgsubr
          114 callsubr
        </CharString>
        <CharString name="becyrillic">
          1254 1284 549 rmoveto
          263 -174 189 -277 -224 -175 -127 -183 -86 vhcurveto
          -1 13 0 14 15 vvcurveto
          4 250 105 149 397 22 rrcurveto
          5 121 6 6 hhcurveto
          311 15 113 99 57 265 rrcurveto
          -78 hlineto
          -24 -49 -86 -18 -179 -8 rrcurveto
          -570 -23 -338 -404 -544 vvcurveto
          -328 179 -187 297 363 254 248 323 vhcurveto
          -373 142 rmoveto
          -234 -86 -379 -149 -74 -39 70 145 233 86 379 150 73 39 -70 -144 vhcurveto
          endchar
        </CharString>
        <CharString name="betagreek">
          1279 17 -460 rmoveto
          398 hlineto
          101 584 rlineto
          -84 53 112 -61 136 hhcurveto
          272 199 187 247 29 hvcurveto
          33 252 -130 184 -247 24 215 50 118 111 16 156 rrcurveto
          196 23 -138 140 -292 hhcurveto
          -318 -191 -175 -378 -81 hvcurveto
          406 186 rmoveto
          172 37 40 89 92 hhcurveto
          71 43 -67 -163 -21 hvcurveto
          -19 -168 -68 -99 -143 -7 rrcurveto
          -51 -246 163 -7 80 -90 -15 -189 rlinecurve
          -183 -15 -105 -86 -115 hhcurveto
          -73 -61 35 60 -39 hvcurveto
          45 228 139 656 15 65 rrcurveto
          endchar
        </CharString>
        <CharString name="bitcoin">
          1441 1455 462 rmoveto
          158 -125 139 -273 24 vhcurveto
          249 15 218 95 1 205 rrcurveto
          150 -106 106 -231 41 vhcurveto
          50 236 -63 0 -49 -227 rlineto
          7 -55 -61 3 -67 hhcurveto
          -15 hlineto
          46 217 -63 0 -47 -217 -509 0 -16 -78 115 -20 16 -19 -19 -91 rlinecurve
          -204 -969 -19 -88 -24 -21 -124 -20 rlinecurve
          -17 -78 508 0 -47 -219 64 0 46 219 rlineto
          34 hlineto
          58 56 2 5 53 hvcurveto
          -48 -226 64 0 49 232 rlineto
          345 43 210 144 232 vvcurveto
          -316 628 rmoveto
          -164 -108 -117 -196 -2 vhcurveto
          -87 hlineto
          110 518 53 -2 rlineto
          149 -6 79 -85 -142 vvcurveto
          -91 -630 rmoveto
          -186 -110 -148 -275 -6 vhcurveto
          -62 -2 128 600 86 -2 rlineto
          148 -6 85 -96 -154 vvcurveto
          endchar
        </CharString>
        <CharString name="bitcoin.tnum">
          -13 callgsubr
          138 -98 102 -211 40 vhcurveto
          50 235 -63 0 -49 -226 rlineto
          6 -49 -54 3 -60 hhcurveto
          -35 hlineto
          46 217 -63 0 -47 -217 -447 0 -16 -78 102 -17 16 -23 -18 -90 rlinecurve
          -205 -969 -19 -88 -20 -22 -115 -19 rlinecurve
          -17 -78 445 0 -46 -219 63 0 47 219 rlineto
          69 hlineto
          45 45 2 3 42 hvcurveto
          -48 -224 64 0 49 230 rlineto
          326 40 201 146 235 vvcurveto
          -291 648 rmoveto
          -168 -100 -133 -183 -2 vhcurveto
          -81 hlineto
          110 518 49 -2 rlineto
          134 -10 71 -72 -131 vvcurveto
          -91 -623 rmoveto
          -193 -112 -166 -235 -7 vhcurveto
          -73 -3 129 600 70 -2 rlineto
          145 -7 76 -93 -129 vvcurveto
          endchar
        </CharString>
        <CharString name="blinebelow">
          167 callsubr
          -670 -1056 110 callsubr
        </CharString>
        <CharString name="braceleft">
          829 849 1044 rmoveto
          54 248 rlineto
          139 30 52 58 142 hhcurveto
          21 99 rlineto
          -48 hlineto
          -318 -170 -106 -237 -53 hvcurveto
          -58 -268 rlineto
          -154 -35 -82 -59 -123 hhcurveto
          -20 -99 rlineto
          127 54 -55 -171 -36 hvcurveto
          -69 -325 rlineto
          -265 -55 116 -137 322 hhcurveto
          48 hlineto
          22 99 rlineto
          -155 -7 98 159 34 hvcurveto
          46 219 rlineto
          50 236 -66 149 -245 39 253 24 121 92 48 217 rrcurveto
          endchar
        </CharString>
        <CharString name="braceright">
          829 424 1044 rmoveto
          -45 -217 82 -92 243 -24 -262 -39 -130 -149 -49 -236 -47 -219 rcurveline
          -159 -35 -48 -98 -154 hhcurveto
          -21 -99 rlineto
          48 hlineto
          322 175 137 265 57 hvcurveto
          70 325 rlineto
          171 36 77 55 128 hhcurveto
          21 99 rlineto
          -122 -58 59 154 32 hvcurveto
          55 268 rlineto
          237 48 -125 106 -318 hhcurveto
          -48 hlineto
          -21 -99 rlineto
          142 27 -58 -139 -28 hvcurveto
          endchar
        </CharString>
        <CharString name="bracketleft">
          829 189 -288 rmoveto
          559 hlineto
          22 100 -271 0 358 1676 270 0 21 100 rlineto
          -559 hlineto
          endchar
        </CharString>
        <CharString name="bracketright">
          829 916 1588 rmoveto
          -559 hlineto
          -22 -100 271 0 -358 -1676 -270 0 -21 -100 rlineto
          559 hlineto
          endchar
        </CharString>
        <CharString name="breve">
          1024 799 -65 callsubr
          1 callgsubr
        </CharString>
        <CharString name="breveacutecmb">
          -92 callgsubr
          262 -313 -42 callsubr
          80 callsubr
        </CharString>
        <CharString name="breveacutecmb.short">
          0 736 -76 callgsubr
          282 -257 87 callsubr
        </CharString>
        <CharString name="brevebelowcmb">
          0 -61 -460 rmoveto
          212 56 callgsubr
          -12 callgsubr
          171 hhcurveto
          endchar
        </CharString>
</ttFont>
